<svg id="Lag_1" data-name="Lag 1" xmlns="http://www.w3.org/2000/svg" xmlns:xlink="http://www.w3.org/1999/xlink" width="186.08mm" height="160.01mm" viewBox="0 0 527.46 453.58"><defs><style>.cls-1{opacity:0.28;}.cls-2{fill:url(#Ny_forløbsfarveprøve_2);}.cls-3{fill:url(#Ny_forløbsfarveprøve_2-2);}.cls-4{fill:url(#Ny_forløbsfarveprøve_2-3);}.cls-5{fill:url(#Ny_forløbsfarveprøve_2-4);}.cls-6{fill:url(#Ny_forløbsfarveprøve_2-5);}.cls-7{fill:url(#Ny_forløbsfarveprøve_2-6);}.cls-8{fill:url(#Ny_forløbsfarveprøve_2-7);}.cls-9{fill:url(#Ny_forløbsfarveprøve_2-8);}.cls-10{fill:url(#Ny_forløbsfarveprøve_2-9);}.cls-11{fill:url(#Ny_forløbsfarveprøve_2-10);}.cls-12{fill:url(#Ny_forløbsfarveprøve_2-11);}.cls-13{fill:url(#Ny_forløbsfarveprøve_2-12);}.cls-14{fill:url(#Ny_forløbsfarveprøve_2-13);}.cls-15{fill:url(#Ny_forløbsfarveprøve_2-14);}.cls-16{fill:url(#Ny_forløbsfarveprøve_2-15);}.cls-17{fill:url(#Ny_forløbsfarveprøve_2-16);}.cls-18{fill:url(#Ny_forløbsfarveprøve_2-17);}.cls-19{fill:url(#Ny_forløbsfarveprøve_2-18);}.cls-20{fill:url(#Ny_forløbsfarveprøve_2-19);}.cls-21{fill:url(#Ny_forløbsfarveprøve_2-20);}.cls-22{fill:url(#Ny_forløbsfarveprøve_2-21);}.cls-23{fill:url(#Ny_forløbsfarveprøve_2-22);}.cls-24{fill:url(#Ny_forløbsfarveprøve_2-23);}.cls-25{fill:url(#Ny_forløbsfarveprøve_2-24);}.cls-26{fill:url(#Ny_forløbsfarveprøve_2-25);}.cls-27{fill:url(#Ny_forløbsfarveprøve_2-26);}.cls-28{fill:url(#Ny_forløbsfarveprøve_2-27);}.cls-29{fill:url(#Ny_forløbsfarveprøve_2-28);}.cls-30{fill:url(#Ny_forløbsfarveprøve_2-29);}.cls-31{fill:url(#Ny_forløbsfarveprøve_2-30);}.cls-32{fill:url(#Ny_forløbsfarveprøve_2-31);}.cls-33{fill:url(#Ny_forløbsfarveprøve_2-32);}.cls-34{fill:url(#Ny_forløbsfarveprøve_2-33);}.cls-35{fill:url(#Ny_forløbsfarveprøve_2-34);}.cls-36{fill:url(#Ny_forløbsfarveprøve_2-35);}.cls-37{fill:url(#Ny_forløbsfarveprøve_2-36);}.cls-38{fill:url(#Ny_forløbsfarveprøve_2-37);}.cls-39{fill:url(#Ny_forløbsfarveprøve_2-38);}.cls-40{fill:url(#Ny_forløbsfarveprøve_2-39);}.cls-41{fill:url(#Ny_forløbsfarveprøve_2-40);}.cls-42{fill:url(#Ny_forløbsfarveprøve_2-41);}.cls-43{fill:url(#Ny_forløbsfarveprøve_2-42);}.cls-44{fill:url(#Ny_forløbsfarveprøve_2-43);}.cls-45{fill:url(#Ny_forløbsfarveprøve_2-44);}.cls-46{fill:url(#Ny_forløbsfarveprøve_2-45);}.cls-47{fill:url(#Ny_forløbsfarveprøve_2-46);}.cls-48{fill:url(#Ny_forløbsfarveprøve_2-47);}.cls-49{fill:url(#Ny_forløbsfarveprøve_2-48);}.cls-50{fill:url(#Ny_forløbsfarveprøve_2-49);}.cls-51{fill:url(#Ny_forløbsfarveprøve_2-50);}.cls-52{fill:url(#Ny_forløbsfarveprøve_2-51);}.cls-53{fill:url(#Ny_forløbsfarveprøve_2-52);}.cls-54{fill:url(#Ny_forløbsfarveprøve_2-53);}.cls-55{fill:url(#Ny_forløbsfarveprøve_2-54);}.cls-56{fill:url(#Ny_forløbsfarveprøve_2-55);}.cls-57{fill:url(#Ny_forløbsfarveprøve_2-56);}.cls-58{fill:url(#Ny_forløbsfarveprøve_2-57);}.cls-59{fill:url(#Ny_forløbsfarveprøve_2-58);}.cls-60{fill:url(#Ny_forløbsfarveprøve_2-59);}.cls-61{fill:url(#Ny_forløbsfarveprøve_2-60);}.cls-62{fill:url(#Ny_forløbsfarveprøve_2-61);}.cls-63{fill:url(#Ny_forløbsfarveprøve_2-62);}.cls-64{fill:url(#Ny_forløbsfarveprøve_2-63);}.cls-65{fill:url(#Ny_forløbsfarveprøve_2-64);}.cls-66{fill:url(#Ny_forløbsfarveprøve_2-65);}.cls-67{fill:url(#Ny_forløbsfarveprøve_2-66);}.cls-68{fill:url(#Ny_forløbsfarveprøve_2-67);}.cls-69{fill:url(#Ny_forløbsfarveprøve_2-68);}.cls-70{fill:url(#Ny_forløbsfarveprøve_2-69);}.cls-71{fill:url(#Ny_forløbsfarveprøve_2-70);}.cls-72{fill:url(#Ny_forløbsfarveprøve_2-71);}.cls-73{fill:url(#Ny_forløbsfarveprøve_2-72);}.cls-74{fill:url(#Ny_forløbsfarveprøve_2-73);}.cls-75{fill:url(#Ny_forløbsfarveprøve_2-74);}.cls-76{fill:url(#Ny_forløbsfarveprøve_2-75);}.cls-77{fill:url(#Ny_forløbsfarveprøve_2-76);}.cls-78{fill:url(#Ny_forløbsfarveprøve_2-77);}.cls-79{fill:url(#Ny_forløbsfarveprøve_2-78);}.cls-80{fill:url(#Ny_forløbsfarveprøve_2-79);}.cls-81{fill:url(#Ny_forløbsfarveprøve_2-80);}.cls-82{fill:url(#Ny_forløbsfarveprøve_2-81);}.cls-83{fill:url(#Ny_forløbsfarveprøve_2-82);}.cls-84{fill:url(#Ny_forløbsfarveprøve_2-83);}.cls-85{fill:url(#Ny_forløbsfarveprøve_2-84);}.cls-86{fill:url(#Ny_forløbsfarveprøve_2-85);}.cls-87{fill:url(#Ny_forløbsfarveprøve_2-86);}.cls-88{fill:url(#Ny_forløbsfarveprøve_2-87);}.cls-89{fill:url(#Ny_forløbsfarveprøve_2-88);}.cls-90{fill:url(#Ny_forløbsfarveprøve_2-89);}.cls-91{fill:url(#Ny_forløbsfarveprøve_2-90);}.cls-92{fill:url(#Ny_forløbsfarveprøve_2-91);}.cls-93{fill:url(#Ny_forløbsfarveprøve_2-92);}.cls-94{fill:url(#Ny_forløbsfarveprøve_2-93);}.cls-95{fill:url(#Ny_forløbsfarveprøve_2-94);}.cls-96{fill:url(#Ny_forløbsfarveprøve_2-95);}.cls-97{fill:url(#Ny_forløbsfarveprøve_2-96);}.cls-98{fill:url(#Ny_forløbsfarveprøve_2-97);}.cls-99{fill:url(#Ny_forløbsfarveprøve_2-98);}.cls-100{fill:url(#Ny_forløbsfarveprøve_2-99);}.cls-101{fill:url(#Ny_forløbsfarveprøve_2-100);}.cls-102{fill:url(#Ny_forløbsfarveprøve_2-101);}.cls-103{fill:url(#Ny_forløbsfarveprøve_2-102);}.cls-104{fill:url(#Ny_forløbsfarveprøve_2-103);}.cls-105{fill:url(#Ny_forløbsfarveprøve_2-104);}.cls-106{fill:url(#Ny_forløbsfarveprøve_2-105);}.cls-107{fill:url(#Ny_forløbsfarveprøve_2-106);}.cls-108{fill:url(#Ny_forløbsfarveprøve_2-107);}.cls-109{fill:url(#Ny_forløbsfarveprøve_2-108);}.cls-110{fill:url(#Ny_forløbsfarveprøve_2-109);}.cls-111{fill:url(#Ny_forløbsfarveprøve_2-110);}.cls-112{fill:url(#Ny_forløbsfarveprøve_2-111);}.cls-113{fill:url(#Ny_forløbsfarveprøve_2-112);}.cls-114{fill:url(#Ny_forløbsfarveprøve_2-113);}.cls-115{fill:url(#Ny_forløbsfarveprøve_2-114);}.cls-116{fill:url(#Ny_forløbsfarveprøve_2-115);}.cls-117{fill:url(#Ny_forløbsfarveprøve_2-116);}.cls-118{fill:url(#Ny_forløbsfarveprøve_2-117);}.cls-119{fill:url(#Ny_forløbsfarveprøve_2-118);}.cls-120{fill:url(#Ny_forløbsfarveprøve_2-119);}.cls-121{fill:url(#Ny_forløbsfarveprøve_2-120);}.cls-122{fill:url(#Ny_forløbsfarveprøve_2-121);}.cls-123{fill:url(#Ny_forløbsfarveprøve_2-122);}.cls-124{fill:url(#Ny_forløbsfarveprøve_2-123);}.cls-125{fill:url(#Ny_forløbsfarveprøve_2-124);}.cls-126{fill:url(#Ny_forløbsfarveprøve_2-125);}.cls-127{fill:url(#Ny_forløbsfarveprøve_2-126);}.cls-128{fill:url(#Ny_forløbsfarveprøve_2-127);}.cls-129{fill:url(#Ny_forløbsfarveprøve_2-128);}.cls-130{fill:url(#Ny_forløbsfarveprøve_2-129);}.cls-131{fill:url(#Ny_forløbsfarveprøve_2-130);}.cls-132{fill:url(#Ny_forløbsfarveprøve_2-131);}.cls-133{fill:url(#Ny_forløbsfarveprøve_2-132);}.cls-134{fill:url(#Ny_forløbsfarveprøve_2-133);}.cls-135{fill:url(#Ny_forløbsfarveprøve_2-134);}.cls-136{fill:url(#Ny_forløbsfarveprøve_2-135);}.cls-137{fill:url(#Ny_forløbsfarveprøve_2-136);}.cls-138{fill:url(#Ny_forløbsfarveprøve_2-137);}.cls-139{fill:url(#Ny_forløbsfarveprøve_2-138);}.cls-140{fill:url(#Ny_forløbsfarveprøve_2-139);}.cls-141{fill:url(#Ny_forløbsfarveprøve_2-140);}.cls-142{fill:url(#Ny_forløbsfarveprøve_2-141);}.cls-143{fill:url(#Ny_forløbsfarveprøve_2-142);}.cls-144{fill:url(#Ny_forløbsfarveprøve_2-143);}.cls-145{fill:url(#Ny_forløbsfarveprøve_2-144);}.cls-146{fill:url(#Ny_forløbsfarveprøve_2-145);}.cls-147{fill:url(#Ny_forløbsfarveprøve_2-146);}.cls-148{fill:url(#Ny_forløbsfarveprøve_2-147);}.cls-149{fill:url(#Ny_forløbsfarveprøve_2-148);}.cls-150{fill:url(#Ny_forløbsfarveprøve_2-149);}.cls-151{fill:url(#Ny_forløbsfarveprøve_2-150);}.cls-152{fill:url(#Ny_forløbsfarveprøve_2-151);}.cls-153{fill:url(#Ny_forløbsfarveprøve_2-152);}.cls-154{fill:url(#Ny_forløbsfarveprøve_2-153);}</style><linearGradient id="Ny_forløbsfarveprøve_2" x1="184.57" y1="275.77" x2="586.75" y2="275.77" gradientUnits="userSpaceOnUse"><stop offset="0" stop-color="#2c818d"/><stop offset="0.69" stop-color="#388591"/><stop offset="0.85" stop-color="#41a698"/><stop offset="1" stop-color="#cf9455" stop-opacity="0.4"/></linearGradient><linearGradient id="Ny_forløbsfarveprøve_2-2" x1="197.44" y1="277.52" x2="569.78" y2="277.52" xlink:href="#Ny_forløbsfarveprøve_2"/><linearGradient id="Ny_forløbsfarveprøve_2-3" x1="210.44" y1="279.27" x2="553.24" y2="279.27" xlink:href="#Ny_forløbsfarveprøve_2"/><linearGradient id="Ny_forløbsfarveprøve_2-4" x1="223.23" y1="281.01" x2="541.23" y2="281.01" xlink:href="#Ny_forløbsfarveprøve_2"/><linearGradient id="Ny_forløbsfarveprøve_2-5" x1="235.98" y1="282.76" x2="543.19" y2="282.76" xlink:href="#Ny_forløbsfarveprøve_2"/><linearGradient id="Ny_forløbsfarveprøve_2-6" x1="248.67" y1="284.52" x2="545.22" y2="284.52" xlink:href="#Ny_forløbsfarveprøve_2"/><linearGradient id="Ny_forløbsfarveprøve_2-7" x1="261.23" y1="298" x2="547.33" y2="298" xlink:href="#Ny_forløbsfarveprøve_2"/><linearGradient id="Ny_forløbsfarveprøve_2-8" x1="273.71" y1="312.24" x2="549.55" y2="312.24" xlink:href="#Ny_forløbsfarveprøve_2"/><linearGradient id="Ny_forløbsfarveprøve_2-9" x1="285.89" y1="326.48" x2="551.89" y2="326.48" xlink:href="#Ny_forløbsfarveprøve_2"/><linearGradient id="Ny_forløbsfarveprøve_2-10" x1="296.25" y1="340.73" x2="554.39" y2="340.73" xlink:href="#Ny_forløbsfarveprøve_2"/><linearGradient id="Ny_forløbsfarveprøve_2-11" x1="305.41" y1="354.97" x2="557.09" y2="354.97" xlink:href="#Ny_forløbsfarveprøve_2"/><linearGradient id="Ny_forløbsfarveprøve_2-12" x1="312.61" y1="359.16" x2="559.95" y2="359.16" xlink:href="#Ny_forløbsfarveprøve_2"/><linearGradient id="Ny_forløbsfarveprøve_2-13" x1="317.31" y1="355.06" x2="562.82" y2="355.06" xlink:href="#Ny_forløbsfarveprøve_2"/><linearGradient id="Ny_forløbsfarveprøve_2-14" x1="319.14" y1="350.97" x2="565.69" y2="350.97" xlink:href="#Ny_forløbsfarveprøve_2"/><linearGradient id="Ny_forløbsfarveprøve_2-15" x1="315.14" y1="346.88" x2="568.56" y2="346.88" xlink:href="#Ny_forløbsfarveprøve_2"/><linearGradient id="Ny_forløbsfarveprøve_2-16" x1="300.04" y1="342.78" x2="571.43" y2="342.78" xlink:href="#Ny_forløbsfarveprøve_2"/><linearGradient id="Ny_forløbsfarveprøve_2-17" x1="284.95" y1="338.69" x2="574.3" y2="338.69" xlink:href="#Ny_forløbsfarveprøve_2"/><linearGradient id="Ny_forløbsfarveprøve_2-18" x1="269.86" y1="334.6" x2="577.18" y2="334.6" xlink:href="#Ny_forløbsfarveprøve_2"/><linearGradient id="Ny_forløbsfarveprøve_2-19" x1="254.77" y1="330.5" x2="580.04" y2="330.5" xlink:href="#Ny_forløbsfarveprøve_2"/><linearGradient id="Ny_forløbsfarveprøve_2-20" x1="239.68" y1="326.41" x2="582.92" y2="326.41" xlink:href="#Ny_forløbsfarveprøve_2"/><linearGradient id="Ny_forløbsfarveprøve_2-21" x1="245.58" y1="331.6" x2="577.91" y2="331.6" xlink:href="#Ny_forløbsfarveprøve_2"/><linearGradient id="Ny_forløbsfarveprøve_2-22" x1="251.48" y1="336.79" x2="572.91" y2="336.79" xlink:href="#Ny_forløbsfarveprøve_2"/><linearGradient id="Ny_forløbsfarveprøve_2-23" x1="257.38" y1="341.99" x2="567.9" y2="341.99" xlink:href="#Ny_forløbsfarveprøve_2"/><linearGradient id="Ny_forløbsfarveprøve_2-24" x1="263.28" y1="347.18" x2="562.9" y2="347.18" xlink:href="#Ny_forløbsfarveprøve_2"/><linearGradient id="Ny_forløbsfarveprøve_2-25" x1="269.18" y1="352.37" x2="557.89" y2="352.37" xlink:href="#Ny_forløbsfarveprøve_2"/><linearGradient id="Ny_forløbsfarveprøve_2-26" x1="275.08" y1="357.57" x2="552.89" y2="357.57" xlink:href="#Ny_forløbsfarveprøve_2"/><linearGradient id="Ny_forløbsfarveprøve_2-27" x1="280.98" y1="362.76" x2="547.88" y2="362.76" xlink:href="#Ny_forløbsfarveprøve_2"/><linearGradient id="Ny_forløbsfarveprøve_2-28" x1="286.88" y1="367.96" x2="542.88" y2="367.96" xlink:href="#Ny_forløbsfarveprøve_2"/><linearGradient id="Ny_forløbsfarveprøve_2-29" x1="292.79" y1="373.14" x2="537.87" y2="373.14" xlink:href="#Ny_forløbsfarveprøve_2"/><linearGradient id="Ny_forløbsfarveprøve_2-30" x1="298.69" y1="378.34" x2="532.85" y2="378.34" xlink:href="#Ny_forløbsfarveprøve_2"/><linearGradient id="Ny_forløbsfarveprøve_2-31" x1="304.59" y1="383.54" x2="527.85" y2="383.54" xlink:href="#Ny_forløbsfarveprøve_2"/><linearGradient id="Ny_forløbsfarveprøve_2-32" x1="310.49" y1="388.73" x2="522.85" y2="388.73" xlink:href="#Ny_forløbsfarveprøve_2"/><linearGradient id="Ny_forløbsfarveprøve_2-33" x1="316.39" y1="393.93" x2="517.84" y2="393.93" xlink:href="#Ny_forløbsfarveprøve_2"/><linearGradient id="Ny_forløbsfarveprøve_2-34" x1="322.29" y1="399.12" x2="512.84" y2="399.12" xlink:href="#Ny_forløbsfarveprøve_2"/><linearGradient id="Ny_forløbsfarveprøve_2-35" x1="328.2" y1="404.31" x2="507.84" y2="404.31" xlink:href="#Ny_forløbsfarveprøve_2"/><linearGradient id="Ny_forløbsfarveprøve_2-36" x1="334.1" y1="409.5" x2="502.84" y2="409.5" xlink:href="#Ny_forløbsfarveprøve_2"/><linearGradient id="Ny_forløbsfarveprøve_2-37" x1="339.99" y1="414.7" x2="497.82" y2="414.7" xlink:href="#Ny_forløbsfarveprøve_2"/><linearGradient id="Ny_forløbsfarveprøve_2-38" x1="345.9" y1="419.89" x2="492.82" y2="419.89" xlink:href="#Ny_forløbsfarveprøve_2"/><linearGradient id="Ny_forløbsfarveprøve_2-39" x1="351.8" y1="425.09" x2="487.64" y2="425.09" xlink:href="#Ny_forløbsfarveprøve_2"/><linearGradient id="Ny_forløbsfarveprøve_2-40" x1="347.04" y1="420.5" x2="481.95" y2="420.5" xlink:href="#Ny_forløbsfarveprøve_2"/><linearGradient id="Ny_forløbsfarveprøve_2-41" x1="342.29" y1="415.92" x2="476.27" y2="415.92" xlink:href="#Ny_forløbsfarveprøve_2"/><linearGradient id="Ny_forløbsfarveprøve_2-42" x1="337.53" y1="411.33" x2="470.59" y2="411.33" xlink:href="#Ny_forløbsfarveprøve_2"/><linearGradient id="Ny_forløbsfarveprøve_2-43" x1="332.78" y1="406.75" x2="464.9" y2="406.75" xlink:href="#Ny_forløbsfarveprøve_2"/><linearGradient id="Ny_forløbsfarveprøve_2-44" x1="328.02" y1="402.16" x2="459.22" y2="402.16" xlink:href="#Ny_forløbsfarveprøve_2"/><linearGradient id="Ny_forløbsfarveprøve_2-45" x1="323.27" y1="397.58" x2="453.53" y2="397.58" xlink:href="#Ny_forløbsfarveprøve_2"/><linearGradient id="Ny_forløbsfarveprøve_2-46" x1="318.51" y1="393" x2="447.85" y2="393" xlink:href="#Ny_forløbsfarveprøve_2"/><linearGradient id="Ny_forløbsfarveprøve_2-47" x1="313.75" y1="388.41" x2="442.17" y2="388.41" xlink:href="#Ny_forløbsfarveprøve_2"/><linearGradient id="Ny_forløbsfarveprøve_2-48" x1="309" y1="383.83" x2="436.48" y2="383.83" xlink:href="#Ny_forløbsfarveprøve_2"/><linearGradient id="Ny_forløbsfarveprøve_2-49" x1="304.24" y1="379.24" x2="430.8" y2="379.24" xlink:href="#Ny_forløbsfarveprøve_2"/><linearGradient id="Ny_forløbsfarveprøve_2-50" x1="299.49" y1="374.66" x2="425.12" y2="374.66" xlink:href="#Ny_forløbsfarveprøve_2"/><linearGradient id="Ny_forløbsfarveprøve_2-51" x1="294.73" y1="370.07" x2="419.43" y2="370.07" xlink:href="#Ny_forløbsfarveprøve_2"/><linearGradient id="Ny_forløbsfarveprøve_2-52" x1="289.98" y1="365.49" x2="413.75" y2="365.49" xlink:href="#Ny_forløbsfarveprøve_2"/><linearGradient id="Ny_forløbsfarveprøve_2-53" x1="285.22" y1="360.9" x2="408.06" y2="360.9" xlink:href="#Ny_forløbsfarveprøve_2"/><linearGradient id="Ny_forløbsfarveprøve_2-54" x1="280.46" y1="356.32" x2="402.5" y2="356.32" xlink:href="#Ny_forløbsfarveprøve_2"/><linearGradient id="Ny_forløbsfarveprøve_2-55" x1="275.71" y1="351.73" x2="396.7" y2="351.73" xlink:href="#Ny_forløbsfarveprøve_2"/><linearGradient id="Ny_forløbsfarveprøve_2-56" x1="270.95" y1="347.14" x2="391.01" y2="347.14" xlink:href="#Ny_forløbsfarveprøve_2"/><linearGradient id="Ny_forløbsfarveprøve_2-57" x1="266.2" y1="342.56" x2="385.33" y2="342.56" xlink:href="#Ny_forløbsfarveprøve_2"/><linearGradient id="Ny_forløbsfarveprøve_2-58" x1="261.44" y1="337.97" x2="379.65" y2="337.97" xlink:href="#Ny_forløbsfarveprøve_2"/><linearGradient id="Ny_forløbsfarveprøve_2-59" x1="258.43" y1="332.23" x2="375.11" y2="332.23" xlink:href="#Ny_forløbsfarveprøve_2"/><linearGradient id="Ny_forløbsfarveprøve_2-60" x1="255.42" y1="326.48" x2="370.56" y2="326.48" xlink:href="#Ny_forløbsfarveprøve_2"/><linearGradient id="Ny_forløbsfarveprøve_2-61" x1="252.42" y1="320.73" x2="366.02" y2="320.73" xlink:href="#Ny_forløbsfarveprøve_2"/><linearGradient id="Ny_forløbsfarveprøve_2-62" x1="249.41" y1="314.99" x2="361.47" y2="314.99" xlink:href="#Ny_forløbsfarveprøve_2"/><linearGradient id="Ny_forløbsfarveprøve_2-63" x1="246.4" y1="309.24" x2="356.93" y2="309.24" xlink:href="#Ny_forløbsfarveprøve_2"/><linearGradient id="Ny_forløbsfarveprøve_2-64" x1="243.39" y1="303.49" x2="352.38" y2="303.49" xlink:href="#Ny_forløbsfarveprøve_2"/><linearGradient id="Ny_forløbsfarveprøve_2-65" x1="240.38" y1="297.74" x2="347.82" y2="297.74" xlink:href="#Ny_forløbsfarveprøve_2"/><linearGradient id="Ny_forløbsfarveprøve_2-66" x1="237.37" y1="292" x2="343.27" y2="292" xlink:href="#Ny_forløbsfarveprøve_2"/><linearGradient id="Ny_forløbsfarveprøve_2-67" x1="234.37" y1="286.25" x2="338.74" y2="286.25" xlink:href="#Ny_forløbsfarveprøve_2"/><linearGradient id="Ny_forløbsfarveprøve_2-68" x1="231.36" y1="280.51" x2="334.24" y2="280.51" xlink:href="#Ny_forløbsfarveprøve_2"/><linearGradient id="Ny_forløbsfarveprøve_2-69" x1="228.35" y1="274.78" x2="329.83" y2="274.78" xlink:href="#Ny_forløbsfarveprøve_2"/><linearGradient id="Ny_forløbsfarveprøve_2-70" x1="225.34" y1="269.05" x2="325.39" y2="269.05" xlink:href="#Ny_forløbsfarveprøve_2"/><linearGradient id="Ny_forløbsfarveprøve_2-71" x1="222.33" y1="263.33" x2="320.94" y2="263.33" xlink:href="#Ny_forløbsfarveprøve_2"/><linearGradient id="Ny_forløbsfarveprøve_2-72" x1="219.32" y1="257.6" x2="316.69" y2="257.6" xlink:href="#Ny_forløbsfarveprøve_2"/><linearGradient id="Ny_forløbsfarveprøve_2-73" x1="216.31" y1="251.87" x2="312.25" y2="251.87" xlink:href="#Ny_forløbsfarveprøve_2"/><linearGradient id="Ny_forløbsfarveprøve_2-74" x1="213.31" y1="246.14" x2="307.86" y2="246.14" xlink:href="#Ny_forløbsfarveprøve_2"/><linearGradient id="Ny_forløbsfarveprøve_2-75" x1="210.3" y1="240.42" x2="303.44" y2="240.42" xlink:href="#Ny_forløbsfarveprøve_2"/><linearGradient id="Ny_forløbsfarveprøve_2-76" x1="207.29" y1="234.71" x2="299.03" y2="234.71" xlink:href="#Ny_forløbsfarveprøve_2"/><linearGradient id="Ny_forløbsfarveprøve_2-77" x1="204.28" y1="229" x2="294.66" y2="229" xlink:href="#Ny_forløbsfarveprøve_2"/><linearGradient id="Ny_forløbsfarveprøve_2-78" x1="207.79" y1="227.24" x2="295.65" y2="227.24" xlink:href="#Ny_forløbsfarveprøve_2"/><linearGradient id="Ny_forløbsfarveprøve_2-79" x1="211.32" y1="225.5" x2="296.63" y2="225.5" xlink:href="#Ny_forløbsfarveprøve_2"/><linearGradient id="Ny_forløbsfarveprøve_2-80" x1="214.85" y1="223.77" x2="297.54" y2="223.77" xlink:href="#Ny_forløbsfarveprøve_2"/><linearGradient id="Ny_forløbsfarveprøve_2-81" x1="218.36" y1="222.05" x2="298.51" y2="222.05" xlink:href="#Ny_forløbsfarveprøve_2"/><linearGradient id="Ny_forløbsfarveprøve_2-82" x1="221.88" y1="220.31" x2="299.49" y2="220.31" xlink:href="#Ny_forløbsfarveprøve_2"/><linearGradient id="Ny_forløbsfarveprøve_2-83" x1="225.41" y1="218.59" x2="300.46" y2="218.59" xlink:href="#Ny_forløbsfarveprøve_2"/><linearGradient id="Ny_forløbsfarveprøve_2-84" x1="228.92" y1="216.88" x2="301.4" y2="216.88" xlink:href="#Ny_forløbsfarveprøve_2"/><linearGradient id="Ny_forløbsfarveprøve_2-85" x1="232.45" y1="215.18" x2="302.36" y2="215.18" xlink:href="#Ny_forløbsfarveprøve_2"/><linearGradient id="Ny_forløbsfarveprøve_2-86" x1="235.97" y1="213.48" x2="303.35" y2="213.48" xlink:href="#Ny_forløbsfarveprøve_2"/><linearGradient id="Ny_forløbsfarveprøve_2-87" x1="239.48" y1="211.79" x2="304.36" y2="211.79" xlink:href="#Ny_forløbsfarveprøve_2"/><linearGradient id="Ny_forløbsfarveprøve_2-88" x1="243.01" y1="210.09" x2="305.52" y2="210.09" xlink:href="#Ny_forløbsfarveprøve_2"/><linearGradient id="Ny_forløbsfarveprøve_2-89" x1="246.53" y1="208.39" x2="306.6" y2="208.39" xlink:href="#Ny_forløbsfarveprøve_2"/><linearGradient id="Ny_forløbsfarveprøve_2-90" x1="250.05" y1="206.68" x2="307.69" y2="206.68" xlink:href="#Ny_forløbsfarveprøve_2"/><linearGradient id="Ny_forløbsfarveprøve_2-91" x1="253.58" y1="204.98" x2="308.78" y2="204.98" xlink:href="#Ny_forløbsfarveprøve_2"/><linearGradient id="Ny_forløbsfarveprøve_2-92" x1="257.09" y1="203.29" x2="309.87" y2="203.29" xlink:href="#Ny_forløbsfarveprøve_2"/><linearGradient id="Ny_forløbsfarveprøve_2-93" x1="260.62" y1="201.59" x2="310.95" y2="201.59" xlink:href="#Ny_forløbsfarveprøve_2"/><linearGradient id="Ny_forløbsfarveprøve_2-94" x1="264.14" y1="199.89" x2="312.04" y2="199.89" xlink:href="#Ny_forløbsfarveprøve_2"/><linearGradient id="Ny_forløbsfarveprøve_2-95" x1="267.66" y1="198.19" x2="313.13" y2="198.19" xlink:href="#Ny_forløbsfarveprøve_2"/><linearGradient id="Ny_forløbsfarveprøve_2-96" x1="271.18" y1="196.49" x2="314.22" y2="196.49" xlink:href="#Ny_forløbsfarveprøve_2"/><linearGradient id="Ny_forløbsfarveprøve_2-97" x1="274.9" y1="199.89" x2="316.9" y2="199.89" xlink:href="#Ny_forløbsfarveprøve_2"/><linearGradient id="Ny_forløbsfarveprøve_2-98" x1="278.62" y1="203.29" x2="319.61" y2="203.29" xlink:href="#Ny_forløbsfarveprøve_2"/><linearGradient id="Ny_forløbsfarveprøve_2-99" x1="282.33" y1="206.69" x2="322.29" y2="206.69" xlink:href="#Ny_forløbsfarveprøve_2"/><linearGradient id="Ny_forløbsfarveprøve_2-100" x1="286.05" y1="210.09" x2="324.98" y2="210.09" xlink:href="#Ny_forløbsfarveprøve_2"/><linearGradient id="Ny_forløbsfarveprøve_2-101" x1="289.77" y1="213.5" x2="327.67" y2="213.5" xlink:href="#Ny_forløbsfarveprøve_2"/><linearGradient id="Ny_forløbsfarveprøve_2-102" x1="293.49" y1="216.9" x2="330.36" y2="216.9" xlink:href="#Ny_forløbsfarveprøve_2"/><linearGradient id="Ny_forløbsfarveprøve_2-103" x1="297.21" y1="220.3" x2="333.07" y2="220.3" xlink:href="#Ny_forløbsfarveprøve_2"/><linearGradient id="Ny_forløbsfarveprøve_2-104" x1="300.92" y1="223.71" x2="336.21" y2="223.71" xlink:href="#Ny_forløbsfarveprøve_2"/><linearGradient id="Ny_forløbsfarveprøve_2-105" x1="304.64" y1="227.11" x2="339.59" y2="227.11" xlink:href="#Ny_forløbsfarveprøve_2"/><linearGradient id="Ny_forløbsfarveprøve_2-106" x1="308.36" y1="230.52" x2="343.11" y2="230.52" xlink:href="#Ny_forløbsfarveprøve_2"/><linearGradient id="Ny_forløbsfarveprøve_2-107" x1="312.08" y1="233.96" x2="346.83" y2="233.96" xlink:href="#Ny_forløbsfarveprøve_2"/><linearGradient id="Ny_forløbsfarveprøve_2-108" x1="315.8" y1="237.89" x2="349.89" y2="237.89" xlink:href="#Ny_forløbsfarveprøve_2"/><linearGradient id="Ny_forløbsfarveprøve_2-109" x1="319.51" y1="241.84" x2="353.32" y2="241.84" xlink:href="#Ny_forløbsfarveprøve_2"/><linearGradient id="Ny_forløbsfarveprøve_2-110" x1="323.23" y1="245.77" x2="356.76" y2="245.77" xlink:href="#Ny_forløbsfarveprøve_2"/><linearGradient id="Ny_forløbsfarveprøve_2-111" x1="326.95" y1="249.71" x2="360.19" y2="249.71" xlink:href="#Ny_forløbsfarveprøve_2"/><linearGradient id="Ny_forløbsfarveprøve_2-112" x1="330.67" y1="253.65" x2="363.62" y2="253.65" xlink:href="#Ny_forløbsfarveprøve_2"/><linearGradient id="Ny_forløbsfarveprøve_2-113" x1="334.39" y1="257.58" x2="367.06" y2="257.58" xlink:href="#Ny_forløbsfarveprøve_2"/><linearGradient id="Ny_forløbsfarveprøve_2-114" x1="338.1" y1="261.52" x2="370.49" y2="261.52" xlink:href="#Ny_forløbsfarveprøve_2"/><linearGradient id="Ny_forløbsfarveprøve_2-115" x1="341.79" y1="265.46" x2="373.87" y2="265.46" xlink:href="#Ny_forløbsfarveprøve_2"/><linearGradient id="Ny_forløbsfarveprøve_2-116" x1="345.31" y1="269.21" x2="377.79" y2="269.21" xlink:href="#Ny_forløbsfarveprøve_2"/><linearGradient id="Ny_forløbsfarveprøve_2-117" x1="348.79" y1="272.96" x2="381.65" y2="272.96" xlink:href="#Ny_forløbsfarveprøve_2"/><linearGradient id="Ny_forløbsfarveprøve_2-118" x1="352.28" y1="276.72" x2="385.52" y2="276.72" xlink:href="#Ny_forløbsfarveprøve_2"/><linearGradient id="Ny_forløbsfarveprøve_2-119" x1="355.76" y1="280.47" x2="389.38" y2="280.47" xlink:href="#Ny_forløbsfarveprøve_2"/><linearGradient id="Ny_forløbsfarveprøve_2-120" x1="359.25" y1="284.22" x2="393.25" y2="284.22" xlink:href="#Ny_forløbsfarveprøve_2"/><linearGradient id="Ny_forløbsfarveprøve_2-121" x1="362.73" y1="287.97" x2="397.56" y2="287.97" xlink:href="#Ny_forløbsfarveprøve_2"/><linearGradient id="Ny_forløbsfarveprøve_2-122" x1="366.22" y1="291.73" x2="401.26" y2="291.73" xlink:href="#Ny_forløbsfarveprøve_2"/><linearGradient id="Ny_forløbsfarveprøve_2-123" x1="369.7" y1="295.48" x2="404.94" y2="295.48" xlink:href="#Ny_forløbsfarveprøve_2"/><linearGradient id="Ny_forløbsfarveprøve_2-124" x1="373.19" y1="299.25" x2="408.71" y2="299.25" xlink:href="#Ny_forløbsfarveprøve_2"/><linearGradient id="Ny_forløbsfarveprøve_2-125" x1="376.67" y1="303.48" x2="412.94" y2="303.48" xlink:href="#Ny_forløbsfarveprøve_2"/><linearGradient id="Ny_forløbsfarveprøve_2-126" x1="380.16" y1="307.72" x2="417.64" y2="307.72" xlink:href="#Ny_forløbsfarveprøve_2"/><linearGradient id="Ny_forløbsfarveprøve_2-127" x1="383.64" y1="311.96" x2="422.39" y2="311.96" xlink:href="#Ny_forløbsfarveprøve_2"/><linearGradient id="Ny_forløbsfarveprøve_2-128" x1="387.12" y1="316.19" x2="427.15" y2="316.19" xlink:href="#Ny_forløbsfarveprøve_2"/><linearGradient id="Ny_forløbsfarveprøve_2-129" x1="390.61" y1="320.42" x2="431.91" y2="320.42" xlink:href="#Ny_forløbsfarveprøve_2"/><linearGradient id="Ny_forløbsfarveprøve_2-130" x1="394.09" y1="324.66" x2="436.65" y2="324.66" xlink:href="#Ny_forløbsfarveprøve_2"/><linearGradient id="Ny_forløbsfarveprøve_2-131" x1="397.58" y1="328.9" x2="441.41" y2="328.9" xlink:href="#Ny_forløbsfarveprøve_2"/><linearGradient id="Ny_forløbsfarveprøve_2-132" x1="401.06" y1="333.13" x2="446.16" y2="333.13" xlink:href="#Ny_forløbsfarveprøve_2"/><linearGradient id="Ny_forløbsfarveprøve_2-133" x1="404.55" y1="337.37" x2="450.92" y2="337.37" xlink:href="#Ny_forløbsfarveprøve_2"/><linearGradient id="Ny_forløbsfarveprøve_2-134" x1="408.03" y1="341.6" x2="455.67" y2="341.6" xlink:href="#Ny_forløbsfarveprøve_2"/><linearGradient id="Ny_forløbsfarveprøve_2-135" x1="409.82" y1="342.95" x2="457.42" y2="342.95" xlink:href="#Ny_forløbsfarveprøve_2"/><linearGradient id="Ny_forløbsfarveprøve_2-136" x1="411.6" y1="344.31" x2="459.16" y2="344.31" xlink:href="#Ny_forløbsfarveprøve_2"/><linearGradient id="Ny_forløbsfarveprøve_2-137" x1="413.38" y1="345.66" x2="460.9" y2="345.66" xlink:href="#Ny_forløbsfarveprøve_2"/><linearGradient id="Ny_forløbsfarveprøve_2-138" x1="415.12" y1="347.01" x2="462.65" y2="347.01" xlink:href="#Ny_forløbsfarveprøve_2"/><linearGradient id="Ny_forløbsfarveprøve_2-139" x1="416.79" y1="348.36" x2="464.41" y2="348.36" xlink:href="#Ny_forløbsfarveprøve_2"/><linearGradient id="Ny_forløbsfarveprøve_2-140" x1="418.42" y1="349.71" x2="466.15" y2="349.71" xlink:href="#Ny_forløbsfarveprøve_2"/><linearGradient id="Ny_forløbsfarveprøve_2-141" x1="420.02" y1="351.07" x2="467.9" y2="351.07" xlink:href="#Ny_forløbsfarveprøve_2"/><linearGradient id="Ny_forløbsfarveprøve_2-142" x1="421.61" y1="352.42" x2="469.64" y2="352.42" xlink:href="#Ny_forløbsfarveprøve_2"/><linearGradient id="Ny_forløbsfarveprøve_2-143" x1="423.18" y1="353.77" x2="471.38" y2="353.77" xlink:href="#Ny_forløbsfarveprøve_2"/><linearGradient id="Ny_forløbsfarveprøve_2-144" x1="424.68" y1="355.13" x2="473.08" y2="355.13" xlink:href="#Ny_forløbsfarveprøve_2"/><linearGradient id="Ny_forløbsfarveprøve_2-145" x1="426.26" y1="356.48" x2="474.87" y2="356.48" xlink:href="#Ny_forløbsfarveprøve_2"/><linearGradient id="Ny_forløbsfarveprøve_2-146" x1="427.76" y1="357.83" x2="476.62" y2="357.83" xlink:href="#Ny_forløbsfarveprøve_2"/><linearGradient id="Ny_forløbsfarveprøve_2-147" x1="429.25" y1="359.18" x2="478.36" y2="359.18" xlink:href="#Ny_forløbsfarveprøve_2"/><linearGradient id="Ny_forløbsfarveprøve_2-148" x1="430.71" y1="360.54" x2="480.05" y2="360.54" xlink:href="#Ny_forløbsfarveprøve_2"/><linearGradient id="Ny_forløbsfarveprøve_2-149" x1="432.27" y1="361.89" x2="481.85" y2="361.89" xlink:href="#Ny_forløbsfarveprøve_2"/><linearGradient id="Ny_forløbsfarveprøve_2-150" x1="433.76" y1="363.25" x2="483.59" y2="363.25" xlink:href="#Ny_forløbsfarveprøve_2"/><linearGradient id="Ny_forløbsfarveprøve_2-151" x1="435.26" y1="364.59" x2="485.34" y2="364.59" xlink:href="#Ny_forløbsfarveprøve_2"/><linearGradient id="Ny_forløbsfarveprøve_2-152" x1="436.75" y1="365.95" x2="487.08" y2="365.95" xlink:href="#Ny_forløbsfarveprøve_2"/><linearGradient id="Ny_forløbsfarveprøve_2-153" x1="438.23" y1="367.3" x2="488.83" y2="367.3" xlink:href="#Ny_forløbsfarveprøve_2"/></defs><title>blad_enkelt_bla</title><g class="cls-1"><path class="cls-2" d="M528.38,407.17c5.78-34.8,10.07-70.48,5-105.65-4.58-31.45-16.87-61.38-39-84.58C483.49,205.52,471,195.77,458.3,186.5c-13.08-9.55-26.38-18.81-39.59-28.19-26.65-18.91-53.18-38.08-78.16-59.18-12.29-10.38-24.2-21.24-35.48-32.71q-8.38-8.52-16.27-17.51c-5.49-6.28-11.14-12.68-15.84-19.59a31.63,31.63,0,0,1-5.11-11.4.13.13,0,0,0-.21-.06c-37.15,33.25-64.39,77.08-76.32,125.59a227,227,0,0,0-6.06,72.28c2,25,8.8,49.2,19.18,72C225.16,333.41,256,375,292.31,409.36c18.56,17.58,38.76,34.06,61.13,46.57,23,12.86,48.33,20,74,25.15,48.85,9.71,101.63,13.13,144.36,41.35a134.86,134.86,0,0,1,14.71,11.24.13.13,0,0,0,.2-.15l-27.63-51.68q-7-13.09-14-26.19A245.16,245.16,0,0,1,533.17,431c-3.79-9.51-6.37-19.48-6.48-29.77a.13.13,0,0,0-.25,0c.26,23.78,13.34,45,24.21,65.32L569.07,501l9.21,17.22,4.36,8.16,2.43,4.54c.12.23,1,1.77,1,1.81s-.83-.56-1.25-.91c-33.43-28.41-78.15-37.26-120.18-44.41-23.58-4-47.31-7.74-70.26-14.65a214.74,214.74,0,0,1-64.29-32.19c-37-26.76-69-60.81-94.58-98.55C222.57,323,211,302.77,202,281.56A211.22,211.22,0,0,1,185.38,214c-3.22-44.49,7.48-89.71,28.85-128.75a252.83,252.83,0,0,1,41.21-55.42q2.83-2.88,5.76-5.69c1-.95,5.47-6.08,6.58-5.31.45.31,1,3.18,1.17,3.71.39.95.82,1.88,1.29,2.78a52.41,52.41,0,0,0,4.83,7.33c6.61,8.7,13.84,17,21.26,25,30.68,33.07,66.52,60.79,103,87.12,18.45,13.32,37.16,26.28,55.61,39.59,18.79,13.57,37.46,28.09,51.19,47,28.69,39.53,32.2,90.67,27.33,137.7-1.32,12.74-3.22,25.41-5.32,38,0,.16.22.22.25.07Z"/><path class="cls-3" d="M531.25,413.48c5.22-33.47,8.92-67.76,3.62-101.47-4.92-31.25-17.76-60.49-40.25-83-10.74-10.78-22.88-20-35.19-28.93s-24.92-17.71-37.38-26.56c-25.36-18-50.57-36.32-74.33-56.43-11.69-9.9-23-20.24-33.76-31.15q-8-8.11-15.49-16.65A199.52,199.52,0,0,1,283.63,51a30.49,30.49,0,0,1-5-10.91.13.13,0,0,0-.21-.05c-35.26,30.59-61.59,71.07-73.62,116.28a214.13,214.13,0,0,0-7.06,66.8,201.89,201.89,0,0,0,16.06,67.57c18,42.53,46.31,81.26,79.86,112.87,17.15,16.17,35.93,31.15,56.72,42.39,21.82,11.8,45.8,18.14,70.08,22.52,45.72,8.26,95.25,10.44,135.45,36.33A125.43,125.43,0,0,1,569.57,515a.12.12,0,0,0,.19-.15l-26.65-50.09c-8.61-16.17-18.24-32.19-25.07-49.23-3.69-9.2-6.23-18.83-6.44-28.78,0-.16-.26-.16-.25,0,.47,22.19,12.28,42,22.42,61q8.79,16.47,17.55,32.95c5.76,10.82,11.86,21.53,17.29,32.51.81,1.63.17.77-.74,0s-2.1-1.71-3.18-2.54q-2.75-2.13-5.61-4.08a132.67,132.67,0,0,0-12.84-7.76,173.22,173.22,0,0,0-27.15-11.4c-19.81-6.52-40.39-10.1-61-13.24-22.58-3.46-45.33-6.51-67.39-12.59A197.44,197.44,0,0,1,330,433c-35-24.41-65.08-56.42-88.52-92-12.18-18.49-22.94-38.16-30.79-58.89a197.27,197.27,0,0,1-12.79-62.3c-1.64-41.88,9.65-84,30.92-120.06a240.93,240.93,0,0,1,40.76-51.28c1.9-1.82,3.83-3.6,5.78-5.36.5-.44,2-2.36,2.63-2.32,1,.06,1.45,2.91,1.79,3.74,1.78,4.31,4.63,8.07,7.52,11.69,6.59,8.3,13.59,16.28,20.87,24,29.28,30.93,63.15,57,97.6,81.89,17.31,12.49,34.85,24.67,52.17,37.14C475.63,212,493.3,225.55,506.68,243c29.14,38.08,33.32,88.27,29,134.44-1.13,12-2.79,24-4.65,35.93,0,.16.21.23.24.07Z"/><path class="cls-4" d="M534.12,419.79c4.64-32,7.73-64.71,2.36-96.8-5-30-17.63-58-39.33-79.67-10.35-10.33-22-19.21-33.86-27.76-12-8.66-24.09-17.13-36.14-25.7-24.29-17.26-48.43-34.79-71.2-54-11.21-9.46-22.07-19.34-32.38-29.76q-7.74-7.81-15-16a187.72,187.72,0,0,1-14.41-17.6,29.75,29.75,0,0,1-4.72-10.18.13.13,0,0,0-.21-.06c-33.27,27.92-58.65,64.95-70.8,106.79-11.89,40.92-10.61,84.46,4.77,124.27s41.19,75.87,72.19,104.83c15.77,14.74,33.15,28.21,52.38,38.12,20.31,10.46,42.53,15.89,65,19.51,42.65,6.9,88.88,7.74,126.75,31.1a111.15,111.15,0,0,1,13.13,9.49.13.13,0,0,0,.2-.15q-12.94-24.5-25.91-49c-8.22-15.5-17.38-30.85-24-47.15-3.58-8.89-6.1-18.19-6.42-27.82a.13.13,0,0,0-.25,0c.68,20.72,11.35,39.19,20.83,57q16.38,30.84,32.7,61.73c.62,1.18,1.26,2.34,1.86,3.53,1.05,2.07-.25.46-1.08-.2q-2.55-2-5.22-3.92A117,117,0,0,0,533.25,483a153.05,153.05,0,0,0-25.71-10.73c-18.57-5.95-37.87-9-57.15-11.54-21.23-2.82-42.61-5.21-63.43-10.36a180.85,180.85,0,0,1-57.74-25.41c-32.94-22.09-61-52.09-82.14-85.52-11.13-17.58-20.68-36.32-27.2-56.1a185.28,185.28,0,0,1-9.34-58.62c.12-39.53,12.35-78.8,33.94-111.85a229.41,229.41,0,0,1,40.88-47A20.19,20.19,0,0,1,288,63.53c1.39-.83,1.33-.16,1.8,1.22a28.59,28.59,0,0,0,2.92,6,104.25,104.25,0,0,0,8.86,11.57c6.35,7.61,13,15,20,22,28.08,28.73,60.16,53.16,92.7,76.56,16.36,11.77,32.92,23.25,49.24,35.06,16.94,12.26,33.73,25.36,46.36,42.21,27.21,36.31,31.66,83.57,28,127.42-.94,11.4-2.39,22.75-4,34.06,0,.16.21.23.24.07Z"/><path class="cls-5" d="M537,426.07c4.13-31,6.63-62.73.81-93.69-5.32-28.28-17.67-54.49-38.25-74.84-9.95-9.84-21.14-18.32-32.46-26.5-11.51-8.32-23.15-16.46-34.72-24.69-23.11-16.43-46.09-33.11-67.8-51.38a469,469,0,0,1-34.83-32.19q-8.12-8.34-15.7-17.18c-5.38-6.28-11.83-12.89-13.83-21.16a.13.13,0,0,0-.21-.06c-31,25-55.22,58.24-67.57,96.24-12,36.83-12.47,76.64-.29,113.48,12.28,37.13,35.56,71.09,64,97.71,14.57,13.62,30.78,25.84,48.75,34.59,19,9.26,39.71,13.79,60.53,16.68,39.57,5.49,82.57,5.07,118,26.06a101.22,101.22,0,0,1,12.17,8.5.13.13,0,0,0,.2-.15q-12.3-23.4-24.62-46.79c-7.94-15-16.73-29.91-23.21-45.65-3.59-8.72-6.15-17.85-6.58-27.31,0-.16-.26-.16-.25,0C482,377.44,492,395,501.05,412q15.26,28.83,30.41,57.7c1.06,2,2.85,4.37,3.45,6.57.33,1.2-.33.17-1-.37-.85-.66-1.71-1.31-2.59-1.94a101.26,101.26,0,0,0-11.23-7.06A133,133,0,0,0,496,457c-17.34-5.39-35.39-7.91-53.39-9.88-20.39-2.23-40.91-4-61-8.45a165.25,165.25,0,0,1-55.18-23.06c-30.9-20.3-56.74-48.76-75.33-80.61a209.32,209.32,0,0,1-22.62-54.12,174.5,174.5,0,0,1-4.78-54.21c2.48-37.13,16.23-73,38.45-102.77a217.1,217.1,0,0,1,19.36-22.49q5.1-5.17,10.53-10c1.75-1.56,3.54-3.09,5.35-4.59.68-.57,1.79-2,2.72-1.48.4.25.87,2.62,1.11,3.17a47.23,47.23,0,0,0,7.05,10.65q4.35,5.37,8.93,10.55,9.4,10.66,19.6,20.59c27.1,26.49,57.54,49.23,88.3,71.23,15.45,11.05,31.1,21.84,46.4,33.09,15.89,11.69,31.38,24.44,42.84,40.69,24.39,34.59,28.7,78.43,25.69,119.52-.76,10.46-2,20.87-3.35,31.26,0,.16.23.16.25,0Z"/><path class="cls-6" d="M539.86,432.38c3.55-29.5,5.43-59.68-.46-89-5.47-27.27-17.73-52.39-37.77-71.9-9.37-9.12-19.81-17-30.39-24.69-11.08-8-22.28-15.85-33.42-23.77-22.27-15.84-44.42-31.92-65.36-49.5-11.5-9.67-22.63-19.78-33.14-30.53q-7.72-7.89-15-16.24c-5.17-6-11.34-12.26-13.36-20.12a.13.13,0,0,0-.21,0c-29,22.4-52.16,52.22-64.56,86.81a171.22,171.22,0,0,0-4.36,102.75c9.4,34.35,29.74,65.84,55.74,90,13.14,12.22,27.89,22.93,44.27,30.38,17.49,8,36.42,11.63,55.41,13.81,36.78,4.22,76.87,2.37,110.15,21.14A88.36,88.36,0,0,1,518.65,459a.12.12,0,0,0,.19-.15Q507.05,436.2,495.2,413.6c-7.62-14.51-16-28.85-22.33-44a81.24,81.24,0,0,1-6.55-26.35c0-.15-.26-.16-.25,0,1.05,18.21,10,34.53,18.3,50.32q14.22,26.94,28.3,54c1.15,2.2,2.29,4.4,3.44,6.59.53,1,1.09,2,1.6,3.08.76,1.53.54,1.14-.49.36a88,88,0,0,0-10.35-6.7,113.38,113.38,0,0,0-22-9.11c-16.22-4.94-33.14-7-50-8.37-19.25-1.59-38.62-2.67-57.64-6.27-18.42-3.48-36-9.79-51.9-19.75-28.89-18.07-52.56-44.75-68.56-74.7-16.66-31.19-23.78-66.59-19.34-101.74S257.07,163,280,136.19a206.18,206.18,0,0,1,18.86-19.34q4.89-4.39,10.06-8.49c1.19-.94,1.59-1.55,2.33-.06.31.62.49,1.34.77,2a32.87,32.87,0,0,0,3.43,5.87c4.93,6.9,10.82,13.25,16.57,19.47q9.11,9.84,18.9,19c25.81,24.34,54.42,45.45,83.25,66,14.57,10.38,29.32,20.52,43.67,31.2,14.78,11,29,23.14,39.6,38.4,22.72,32.76,27.3,73.88,25,112.71-.59,9.83-1.58,19.62-2.76,29.39,0,.16.23.16.25,0Z"/><path class="cls-7" d="M542.73,438.69c3-28.31,4.27-57.26-1.91-85.25-5.69-25.71-17.64-49.25-36.66-67.62-9.09-8.77-19.19-16.4-29.42-23.78-10.39-7.51-20.89-14.87-31.34-22.3-21.33-15.18-42.56-30.57-62.64-47.38-10.87-9.1-21.39-18.6-31.35-28.68q-7.62-7.69-14.76-15.85c-4.95-5.68-10.82-11.59-12.86-19a.13.13,0,0,0-.19-.08c-26.71,19.69-48.75,45.91-61.2,76.84a160.45,160.45,0,0,0-8.51,92,156.84,156.84,0,0,0,46.88,82.63c11.57,10.77,24.7,19.94,39.28,26.12,16.32,6.92,33.92,9.8,51.48,11.3,34,2.91,71.42-.39,102.49,16.45a77.34,77.34,0,0,1,9.68,6.22c.1.09.22-.07.17-.17q-14.49-28-29.12-56c-9.14-17.43-20.08-35.33-21.52-55.42,0-.16-.27-.17-.25,0,1.2,16.69,9.06,31.76,16.7,46.31q13.19,25.07,26.21,50.21l6.62,12.79c.44.84,1.29,1.77,0,1.09-.79-.43-1.53-1.09-2.28-1.59-1.65-1.1-3.35-2.14-5.08-3.11a96.21,96.21,0,0,0-20.52-8.39c-15.2-4.38-31.07-5.84-46.8-6.62-35.2-1.74-71.57-2.26-102.7-20.95-26.7-16-47.89-41.11-60.85-69.28-13.54-29.42-16.67-63.47-10.24-95.08,6.51-32.06,22.77-61.06,45.6-84.36a194.65,194.65,0,0,1,19.1-17.09c.93-.73,1.86-1.44,2.8-2.15s1.54-1.5,2.32-.46a10.36,10.36,0,0,1,.76,2,27.78,27.78,0,0,0,1.58,3,73,73,0,0,0,7.12,9.31,375.71,375.71,0,0,0,34.47,35.33c24.39,22.06,51,41.45,77.8,60.49,13.68,9.72,27.56,19.21,40.92,29.37,13.78,10.49,26.84,22.14,36.5,36.64,20.54,30.81,25.25,68.74,23.61,105-.41,9.19-1.21,18.36-2.18,27.51,0,.16.23.16.25,0Z"/><path class="cls-8" d="M545.6,445c2.4-26.61,3.06-53.73-3-79.92-5.65-24.3-17.11-46.67-35.09-64.13-17.37-16.87-38.26-30.08-57.92-44.07-20.27-14.41-40.44-29-59.58-44.9-10.52-8.72-20.72-17.84-30.39-27.5q-7.39-7.38-14.34-15.2c-4.85-5.47-10.57-11.16-12.68-18.33a.13.13,0,0,0-.19-.07c-24.66,17.16-45.58,40.11-58,67.66a149.54,149.54,0,0,0-11.88,81c2.06,15.06,6,29.37,13.1,42.84a121.85,121.85,0,0,0,24.63,32.25,105.69,105.69,0,0,0,35.11,22.09c15,5.54,30.95,7.49,46.81,8.27,30.85,1.52,64.82-3,93.46,11.18a65.88,65.88,0,0,1,9.06,5.44c.11.08.23-.07.17-.17q-13.86-27-27.9-54c-8.76-16.78-19.17-33.95-20.86-53.21,0-.16-.26-.16-.25,0,1.35,15.4,8.38,29.41,15.44,42.91q12.18,23.32,24.25,46.71l6.15,12c.25.48,2.75,5,2.49,5.14s-3.83-2.49-4.28-2.75a78.77,78.77,0,0,0-18.74-7.75c-14.1-3.94-28.9-4.88-43.47-5.05-32.42-.39-67.2,1.1-96.37-15.43-24.68-14-44.11-38.26-53-65.11-9.2-27.69-8.95-58.94-.81-86.82,8.58-29.37,26.24-54.83,49.28-74.76q4.85-4.19,10-8a35.56,35.56,0,0,1,4.32-3.15c1.34-.7,1.44-.38,1.95.92a20.3,20.3,0,0,0,.89,2c3.3,6.5,9,12,13.8,17.38a391.23,391.23,0,0,0,33.12,32.16c23.31,20.26,48.47,38.27,73.64,56.14,25.41,18,53.66,35.28,70.66,62.19C543.29,351.64,548,386.31,547,419.72c-.26,8.45-.85,16.87-1.61,25.29,0,.16.24.15.25,0Z"/><path class="cls-9" d="M548.47,451.32c1.83-25.26,1.88-51-4.39-75.7-5.81-22.89-17-43.85-34.06-60.3-16.73-16.11-36.73-28.78-55.59-42.2-19.21-13.66-38.32-27.51-56.49-42.55-10-8.25-19.66-16.87-28.86-26q-6.81-6.75-13.23-13.87c-4.73-5.25-10.31-10.7-12.49-17.58a.12.12,0,0,0-.18-.07c-22.46,14.64-42.15,34.24-54.4,58.27a140.45,140.45,0,0,0-14.85,71.31c.73,13,2.54,25.9,7.81,37.91a87.23,87.23,0,0,0,20.11,28.65,77.77,77.77,0,0,0,30.58,17.93c13.71,4.16,28.17,5.2,42.43,5.28,16.57.09,33.14-1.59,49.7-.94,15,.59,30.49,3.07,43.19,11.49.11.08.22-.06.17-.17q-13.07-25.68-26.3-51.28C433.13,335.14,423,318.45,421,299.75c0-.16-.27-.16-.25,0,1.5,14.41,8,27.56,14.56,40.25q11.08,21.35,22.06,42.73,2.7,5.26,5.38,10.53l2.68,5.27c.44.87,1,1.74,1.34,2.63s1,1.21-.22.75a45.87,45.87,0,0,1-4-2.29q-2.07-1.06-4.23-2a70,70,0,0,0-9-3.05c-13.07-3.48-26.84-3.83-40.29-3.39-15.13.48-30.26,1.42-45.41.63-14.83-.77-30.28-3-43.62-10-23.05-11.95-39.82-35.7-43.92-61.26-4.17-26-2.1-52.8,7.61-77.41,10.54-26.71,29.77-48.85,53-65.44,1.44-1,2.91-2,4.38-3,1.85-1.24,2.08-1.06,2.95.88a36,36,0,0,0,5.33,8c4.64,5.6,9.59,11,14.65,16.17a409.09,409.09,0,0,0,30.74,28.43c21.78,18.3,45,34.78,68.18,51.23,23.94,17,49.85,33.4,65.53,59,16.4,26.77,21.22,58.55,20.84,89.47-.1,7.82-.5,15.62-1.07,23.42,0,.16.24.16.25,0Z"/><path class="cls-10" d="M551.34,457.63c1.25-23.7.71-47.78-5.58-70.81-5.86-21.49-16.62-41.17-32.72-56.67C497.25,315,478.41,303,460.6,290.29c-18.49-13.16-36.91-26.47-54.43-40.91-9.5-7.83-18.73-16-27.51-24.61q-6.57-6.45-12.78-13.26c-4.42-4.85-9.57-9.85-11.73-16.2a.12.12,0,0,0-.18-.08c-20.23,12.19-38.58,28.53-50.6,49-10.87,18.55-16.52,39.87-17.37,61.31-.23,5.87-.07,11.78.13,17.65a60.32,60.32,0,0,0,2.52,16.13,58.28,58.28,0,0,0,14.65,24.27A53.14,53.14,0,0,0,330,377.78c12.14,2.47,24.67,2.62,37,2.05,14.94-.69,29.78-3.06,44.74-3.43,13.29-.32,27.38.9,39,7.89.11.07.22-.06.17-.17Q438.5,359.4,425.86,334.8c-8.11-15.72-17.73-31.68-19.91-49.55,0-.16-.27-.16-.25,0,1.6,13.12,7.31,25.17,13.29,36.81,6.72,13.08,13.49,26.14,20.15,39.26q5.14,10.13,10.26,20.28a13.87,13.87,0,0,1,.89,1.76c-.27.55-.78-.11-1.34-.41-1.11-.6-2.25-1.15-3.4-1.66a52.88,52.88,0,0,0-8.1-2.74c-12-3.09-24.77-2.8-37.05-1.75-14.27,1.21-28.47,2.95-42.81,3-13,.09-27.52-.4-39.42-6.11a55.47,55.47,0,0,1-23.93-22.19,61.7,61.7,0,0,1-6.37-15.85c-1.61-6.42-1.51-13.11-1.66-19.69-.53-23.6,4.09-47.2,15.39-68.08A123.75,123.75,0,0,1,325,217.63a159.86,159.86,0,0,1,15.5-13.09q3.72-2.76,7.59-5.3a26.16,26.16,0,0,1,4.51-2.86c.69-.27.69-.82,1.6-.24a10.74,10.74,0,0,1,1,2.24c2.69,5.24,7.19,9.66,11.13,14,4.54,5,9.25,9.77,14.08,14.44,9.48,9.18,19.46,17.83,29.72,26.12,20.21,16.33,41.49,31.28,62.66,46.32,22.13,15.72,45.1,31.23,59.21,55.08,14.64,24.76,19.5,53.71,19.69,82.12,0,7.08-.18,14.15-.56,21.21,0,.16.24.16.25,0Z"/><path class="cls-11" d="M554.21,463.94c.69-22.37-.49-45-6.94-66.59-6-20.06-16.48-38.36-31.69-52.83s-33.12-25.9-50.12-38c-17.31-12.32-34.55-24.79-51-38.28-9.08-7.44-17.91-15.19-26.32-23.37q-6.15-6-12-12.25c-4.2-4.54-9.05-9.21-11.23-15.13a.12.12,0,0,0-.18-.07c-34,18.61-64.94,52-67.49,92.4-.13,2.09-.18,4.19-.13,6.28.06,2.52.52,5.08.09,7.57a49.39,49.39,0,0,0-.65,15.2c1,7.79,4.11,15.31,9.83,20.83a32.64,32.64,0,0,0,10,6.5c4.17,1.76,8.42,1.35,12.83,1.61,5.35.31,10.35,2.18,15.75,2.29a77.25,77.25,0,0,0,14.86-1.38c12.79-2.22,25.26-5.76,38.19-7.2,11.88-1.32,24.88-1.55,35.75,4.1a.12.12,0,0,0,.17-.17q-11.93-24-24.1-47.79c-7.66-14.95-16.62-30-19-46.94,0-.16-.26-.09-.24.07,1.73,12.14,6.93,23.33,12.44,34.15,6.08,11.95,12.25,23.85,18.28,35.82q4.68,9.3,9.33,18.61c.74,1.47,1.56,2.93,2.21,4.43.89,2-.28.9-1.59.34a39.84,39.84,0,0,0-6.48-2.1c-10.91-2.59-22.49-1.55-33.45.12-12.47,1.9-24.62,5.64-37.15,7.16a49.9,49.9,0,0,1-17.45-.44,43.5,43.5,0,0,0-7.94-1.35c-3.05-.14-6.19.12-9.2-.53-9.67-2.08-17.54-10.64-20.77-19.65a42.53,42.53,0,0,1-2.36-15.94,40.09,40.09,0,0,1,.54-5.34c.2-1.23.71-2.57.79-3.8.15-2.32-.41-4.85-.43-7.21-.18-21.31,8.84-42,21.55-58.76A135.25,135.25,0,0,1,344.26,231a153,153,0,0,1,15.19-10.31,22.6,22.6,0,0,1,3.86-2.23c1.83-.61,1.57-.22,2.34,1.32a35,35,0,0,0,4.81,6.82c31.24,36.49,72,63.76,110.78,91.41,20.41,14.54,40.86,29.19,53.73,51.27,13.29,22.79,18.31,49.18,19.06,75.29.19,6.45.13,12.9-.07,19.34a.13.13,0,0,0,.25,0Z"/><path class="cls-12" d="M557.08,470.25c.12-20.67-1.61-41.52-8-61.29-6.05-18.8-16.15-36-30.5-49.61s-31-24.31-47-35.67C455.28,312,439,300.27,423.37,287.6c-8.61-7-17-14.27-25-21.93q-6.09-5.82-11.86-11.93c-4-4.24-8.56-8.58-10.76-14.09a.13.13,0,0,0-.18-.07c-30.2,14.7-59.2,41.07-65.44,75.54a62,62,0,0,0-1,10.08c0,2.34.06,4.14-.89,6.36a35.81,35.81,0,0,0-2,6.06c-1.29,5.67-1.4,12.56,2.52,17.28s10.58,5.72,16.31,5c2.55-.31,5-1.38,7.53-1.56,2.13-.16,4.28,0,6.41-.25a95,95,0,0,0,13.28-2.38c11.07-2.69,21.82-6.58,33-9,10.17-2.21,21.72-3.87,31.64.22.11.05.18-.1.14-.18q-11.24-22.83-22.73-45.52c-7.33-14.4-15.86-28.87-18.51-45,0-.15-.27-.09-.24.07,1.78,10.85,6.29,20.93,11.19,30.7,5.4,10.79,11,21.51,16.38,32.31q4.05,8.08,8.07,16.2,1.95,3.94,3.89,7.89c.27.55,1.71,2.64,1.22,3.06-.11.1-3.51-1.11-3.8-1.18-9.66-2.29-20.09-.49-29.59,1.74-11.21,2.64-22.07,6.6-33.32,9.1a70.87,70.87,0,0,1-16.2,2c-2.36,0-4.47.92-6.8,1.33a25.51,25.51,0,0,1-8.36.14c-4-.65-7.79-2.48-10.07-5.92-2.4-3.61-2.73-8.17-2.28-12.37a33.36,33.36,0,0,1,1.76-7.56c.48-1.35,1.52-2.82,1.8-4.22a9.83,9.83,0,0,0-.07-2,62.26,62.26,0,0,1,1.2-13.34c3.8-19.32,15.37-36.68,29.49-50.07a136.86,136.86,0,0,1,26.16-19.29q3.48-2,7.06-3.81c1.1-.55,1.84-1.16,2.72-.12s1.34,2.5,2.08,3.56c2.91,4.13,6.61,7.78,10.09,11.41,30.41,31.72,67.12,56.34,102.67,81.8,9.19,6.58,18.37,13.25,26.65,21a110.66,110.66,0,0,1,21.2,26.84c11.6,20.64,16.56,44.17,17.81,67.63.3,5.72.4,11.45.36,17.17a.13.13,0,0,0,.25,0Z"/><path class="cls-13" d="M560,476.57c-.43-19.2-2.75-38.46-9.17-56.65-6.16-17.44-15.95-33.36-29.46-46.05s-29.13-22.78-44.09-33.44c-15.55-11.08-31.05-22.25-45.91-34.26-8.07-6.52-15.95-13.29-23.5-20.41q-5.82-5.47-11.34-11.24c-3.7-3.86-7.8-7.75-10-12.72a.11.11,0,0,0-.14-.06c-26.74,11.19-53.55,31.28-62.9,59.89a55.13,55.13,0,0,0-2.14,8.85c-.18,1.24-.33,2.49-.42,3.74a6.3,6.3,0,0,1-.41,2.44,16.23,16.23,0,0,1-2.31,2.95,32.56,32.56,0,0,0-4.64,7.44c-.6,1.42-1.44,3.59-.54,5.09,2,3.27,8.49-.15,10.76-1.35,1.74-.92,3.44-2.45,5.35-2.94,1.6-.4,3.32-.49,4.94-.87a87.62,87.62,0,0,0,11.77-3.78c9.18-3.56,18-8,27.29-11.29,8.27-3,18-5.93,26.78-3.63.11,0,.18-.09.14-.19q-10.62-21.84-21.52-43.54c-6.95-13.76-15-27.52-17.85-42.84,0-.15-.27-.09-.24.07,1.87,9.88,5.93,19.11,10.37,28.07,4.7,9.5,9.6,18.92,14.32,28.42q3.72,7.47,7.38,15,1.74,3.52,3.45,7c.43.86,4.05,6.85,3.39,7.59-.11.13-4.34-.59-4.71-.6a37.86,37.86,0,0,0-6,.35,73.25,73.25,0,0,0-13.38,3.29c-10.08,3.37-19.58,8.21-29.47,12a81.61,81.61,0,0,1-13.31,4.11c-2,.4-3.61.31-5.29,1.41a37.84,37.84,0,0,1-5.64,3.13c-2.89,1.26-9.58,3.26-8.48-2.25.83-4.13,4-8.15,6.71-11.23,1.31-1.5,1.26-1.38,1.37-3.3a47.92,47.92,0,0,1,.72-5.85,58.65,58.65,0,0,1,3-10.48c6.66-17.17,19.9-31.39,34.79-41.86a133.16,133.16,0,0,1,12.34-7.7q3.09-1.71,6.27-3.26c1.58-.78,6.67-4.09,8.38-3,.58.37,1.22,2.23,1.66,2.86s1,1.4,1.54,2.06c1.55,1.92,3.26,3.71,4.95,5.5q5,5.32,10.3,10.4c28.73,27.65,62.07,49.69,94.25,73a208.2,208.2,0,0,1,23.74,19.38,108.34,108.34,0,0,1,18.71,24.6c10.36,18.57,15.4,39.52,17.15,60.59.43,5.15.67,10.32.78,15.5,0,.16.26.16.25,0Z"/><path class="cls-14" d="M562.82,482.88C560.88,448,550.41,413,524.2,388.54c-12.68-11.83-27.42-21.41-41.51-31.45-14.48-10.32-28.91-20.72-42.79-31.83-7.72-6.18-15.26-12.59-22.51-19.31q-5.25-4.87-10.29-10c-3.59-3.65-7.56-7.33-9.81-12a.14.14,0,0,0-.14-.06c-23.06,7.87-46.41,21.75-58.83,43.46A48.14,48.14,0,0,0,333,340.52a15.37,15.37,0,0,1-.52,2.75c-.65,1.33-3.22,2.07-4.48,2.7a54,54,0,0,1-7.76,3.5,4.31,4.31,0,0,1-1.69.38c-1.45-.45-.82-1.48-.47-2.24a18.1,18.1,0,0,1,1.43-2.44c.65-1,1.35-2,2.05-2.94,1.14-1.57,2.35-4,4.08-4.91,2.15-1.2,4.73-1.87,7-3,3.1-1.59,6.1-3.38,9.07-5.21,6.93-4.27,13.63-8.92,20.8-12.77,6.12-3.28,13.33-7,20.47-6.73a.13.13,0,0,0,.11-.19q-9.89-20.64-20.08-41.14c-6.63-13.25-14.24-26.45-17.4-41.07,0-.15-.27-.09-.24.07,2,9.45,6,18.29,10.28,26.92,4.53,9.16,9.2,18.26,13.71,27.43q3.46,7.08,6.9,14.16l3.21,6.65c.58,1.21,3.59,6.18,2.68,6.9-.51.39-3.31.31-4,.46a38.69,38.69,0,0,0-5.6,1.65A84.48,84.48,0,0,0,360.74,317c-8.65,4.83-16.67,10.7-25.32,15.52-1.79,1-3.6,1.94-5.45,2.8-1.12.51-2.25,1-3.4,1.41a7.5,7.5,0,0,0-1.69.59c-1.28,1-2.37,3.19-3.31,4.49s-1.83,2.52-2.66,3.84c-.47.76-2.32,3.22-1.29,4.21s3.95-.59,4.9-1c1.48-.62,2.92-1.33,4.35-2l2.64-1.32c.72-.36,2.61-.89,3.09-1.55s.37-2.08.53-2.81a41.26,41.26,0,0,1,1.23-4.48c5.25-15.57,18.05-28.2,31.39-37.19a129.13,129.13,0,0,1,25-13c1.45-.57,5.34-2.78,6.68-1.67.65.53,1.27,2.13,1.79,2.83s1.25,1.6,1.92,2.37c3,3.45,6.31,6.69,9.59,9.9,27.12,26.6,58.77,47.89,89.51,70,16.23,11.66,31.53,24,42.14,41.21s16.4,36.79,18.88,56.71c.62,5,1,10,1.31,15.05,0,.16.26.16.25,0Z"/><path class="cls-15" d="M565.69,489.19c-3-32.2-14.52-63.84-38.77-86.13-11.77-10.82-25.28-19.7-38.27-29-13.67-9.75-27.31-19.55-40.46-30-7.06-5.61-14-11.41-20.68-17.47q-5.16-4.68-10.12-9.58c-3.37-3.34-7.05-6.69-9.31-10.92a.12.12,0,0,0-.14-.06c-13.18,3.33-26.08,8.32-37.56,15.68-8.74,5.6-17.08,12.66-22.66,21.53a37.13,37.13,0,0,0-2.81,5.33c-.44,1.06-.46,2-1.68,2.39a21.36,21.36,0,0,1-5.06.39c-5.19.19-11.54-.07-15.54-3.84s-3.57-10.26-2.44-15.24a22.11,22.11,0,0,1,1.2-4.41c.62-1.3,1.83-1.94,2.92-2.79,2.48-1.95,4.84-4.07,7.15-6.22,5.86-5.43,11.42-11.18,17.45-16.42,5-4.37,10.7-9.34,17.09-11.56a.13.13,0,0,0,.08-.19c-6.18-13.11-12.43-26.18-18.87-39.17-6.25-12.6-13.34-25.1-16.73-38.86a.13.13,0,0,0-.24.07c3.47,14.1,10.8,26.89,17.2,39.8q5,10.18,9.94,20.44,2.36,4.89,4.68,9.81,1.28,2.67,2.54,5.36a8.87,8.87,0,0,1,.84,1.78c.06,1.16-.05.88-1,1.28-5,2.18-9.48,5.79-13.66,9.28-5.48,4.57-10.51,9.63-15.66,14.55-2.29,2.19-4.59,4.36-7,6.46-1.14,1-2.31,2-3.5,3-.93.74-2.48,1.49-3.23,2.42-.59.73-.8,2.51-1,3.42a40.47,40.47,0,0,0-.95,4.37,22.57,22.57,0,0,0-.2,6.25c1.5,11.87,16,11.21,24.88,10.19a.12.12,0,0,0,.12-.09c2.46-7.44,7.68-13.79,13.31-19.09a96.75,96.75,0,0,1,25.06-16.69A131.48,131.48,0,0,1,398.58,309c2.45-.79,5.47-2.18,8.05-2.34,2.14-.13,3.85,3.57,5.28,5.14a259.88,259.88,0,0,0,23.89,22.44c16.58,14.13,34.26,26.88,52,39.52C506,386.74,525.6,399,539.34,417c16,20.84,23.67,46.36,26.1,72.23,0,.16.27.16.25,0Z"/><path class="cls-16" d="M568.56,495.47c-4.08-29.37-16.52-57.58-38.73-77.73-11.12-10.09-23.77-18.46-36-27.16-12.61-9-25.2-18-37.38-27.61-6.65-5.22-13.19-10.61-19.51-16.22q-4.74-4.2-9.3-8.58c-3.16-3-6.54-6.06-8.81-9.85a.13.13,0,0,0-.14-.06c-13.46,2-26.79,5.63-39.05,11.65a87.16,87.16,0,0,0-14.41,8.77,56.05,56.05,0,0,0-4.66,3.91c-1.48,1.39-2.67,3.11-4.14,4.49-.1.09-.44.67-.56.74-.75.43-2,0-2.77-.16-1.67-.3-3.33-.67-5-1.09a56.57,56.57,0,0,1-9.39-3.31,36.54,36.54,0,0,1-13.11-9.77,38.3,38.3,0,0,1-7.45-25.92c.24-1.66,1.43-3,2.32-4.37s1.73-2.69,2.59-4c8.11-12.68,16-25.62,26-36.95a.14.14,0,0,0,0-.15c-5.72-12.36-11.52-24.68-17.51-36.9-5.91-12.06-12.57-24-16.22-37,0-.15-.28-.08-.24.07,4,14.24,11.51,27.28,17.95,40.51Q338,248.84,342.73,259q2.47,5.28,4.93,10.58c.67,1.44,1.34,2.37.25,3.64s-1.89,2.25-2.81,3.4c-8.58,10.67-15.7,22.34-23.08,33.85q-1.25,1.94-2.5,3.86a12.23,12.23,0,0,0-1.51,2.31c-.41,1.27-.12,3.3-.09,4.61a44.44,44.44,0,0,0,.37,5,35.08,35.08,0,0,0,5.59,15.28c7.14,10.46,19.86,15,31.86,16.83a.13.13,0,0,0,.14-.05c4-5.7,9.9-10.06,15.78-13.69a109.1,109.1,0,0,1,25.88-11.39,146,146,0,0,1,14.74-3.61q1.85-.36,3.69-.66c1.68-.28,2.36-.32,3.59.93,1.65,1.68,3,3.64,4.72,5.32,7,7,14.49,13.62,22.14,20,15.55,12.91,32,24.69,48.44,36.42,16.95,12.09,34.84,23.67,47.76,40.3,14.33,18.43,22.5,40.65,25.7,63.65,0,.15.26.09.24-.07Z"/><path class="cls-17" d="M571.43,501.78a126.8,126.8,0,0,0-18-45.17c-9-13.84-20.64-25-33.82-34.77-27.51-20.48-56.36-39.16-81.6-62.54-1.57-1.45-3.14-2.9-4.65-4.41-.63-.64-1.26-1.3-1.85-2-.42-.49-1.23-2.25-1.87-2.45-1.07-.33-2.83.07-3.95.13q-3.53.18-7,.5A158.84,158.84,0,0,0,395.09,355a130.47,130.47,0,0,0-19.28,6.31c-2.27.95-4.52,2-6.71,3.11a6.28,6.28,0,0,1-1.4.74c-1,.19-2.44-.59-3.35-.94q-3.35-1.29-6.6-2.82c-13.54-6.36-25.83-15.81-33.7-28.7-3.8-6.23-7.47-13.62-8.79-20.83-1.51-8.27,1.77-16.36,4.61-24,3-8,5.82-16,8.79-24,1.12-3,3-6.53,3.33-9.74.13-1.13-.36-1.79-.87-2.89l-3-6.66c-7.37-16.07-15.6-31.76-22.8-47.89a123.86,123.86,0,0,1-5-12.91c-.05-.15-.29-.08-.24.07A169.84,169.84,0,0,0,309.91,207c4,8.11,8,16.23,11.8,24.41q2.81,6,5.55,11.95,1.42,3.1,2.84,6.21c.94,2.07,1.9,3.7,1.2,6-2.35,7.67-5.53,15.07-8.17,22.64-2.69,7.75-6.21,15.39-7.9,23.45-1.42,6.78,0,13.08,2.74,19.35A79.33,79.33,0,0,0,328.16,339a72.06,72.06,0,0,0,14.89,14.08A95.82,95.82,0,0,0,363,363.91c1,.41,3.32,1.77,4.4,1.64a9.17,9.17,0,0,0,2.25-1.18c2.52-1.28,5.11-2.43,7.73-3.48,14.89-6,30.88-9,46.87-10,2.33-.14,4.45-.62,6.2,1.11,1.28,1.28,2.4,2.73,3.71,4,3.06,3,6.24,5.84,9.44,8.67,6.43,5.68,13.08,11.12,19.85,16.4,13.26,10.35,27,20.08,40.66,29.86,14.12,10.09,28.59,20,39.87,33.34a124.15,124.15,0,0,1,24.28,45.27c1.17,4,2.13,8.14,2.93,12.28,0,.16.27.09.24-.07Z"/><path class="cls-18" d="M574.3,508.09a117.56,117.56,0,0,0-21-42.25c-9.9-12.82-22.11-22.91-35.16-32.35-13.71-9.92-27.59-19.6-41.11-29.78-6.91-5.21-13.73-10.53-20.37-16.08q-5-4.14-9.79-8.45c-1.5-1.35-3-2.69-4.41-4.14-.9-.94-1.48-2.07-2.64-2.49-1.78-.64-4.34-.43-6.22-.58-2.15-.18-4.31-.32-6.47-.44q-6.11-.34-12.23-.39c-7.72-.05-15.43.29-23.13.75-2.92.17-5.84.36-8.76.49a20.87,20.87,0,0,1-3.53.11c-2.1-.28-4.42-2.06-6.23-3.07a159.2,159.2,0,0,1-20.41-13.61,124.23,124.23,0,0,1-29.76-33c-4.06-6.7-8-13.86-10.32-21.36-2.47-8.06-2.08-16.34-1.28-24.62.82-8.53,1.81-17,2.7-25.57.41-3.85.78-7.71.93-11.58a20.69,20.69,0,0,0,0-4.91,27.3,27.3,0,0,0-2-4.54C305.94,214,298,198.13,290.54,182c-1.94-4.2-3.76-8.45-5.34-12.79-.06-.15-.3-.09-.24.06,5.92,16.25,14.55,31.53,21.75,47.24q2.75,6,5.45,12.06c.94,2.11,2.52,4.61,2.78,6.92a33.46,33.46,0,0,1-.1,5.39c-.42,8.22-1.56,16.41-2.39,24.6s-2.15,16.74-1.78,25.15c.31,7.27,2.65,14.1,5.84,20.59a126.15,126.15,0,0,0,25.18,35.16,143.39,143.39,0,0,0,16.62,13.81q4.92,3.51,10.08,6.65c1.7,1,3.43,2,5.17,3,1.53.85,3.68,2.53,5.41,2.88,2.13.44,4.94-.15,7.1-.27,3.14-.17,6.28-.37,9.43-.54,7.89-.43,15.79-.66,23.69-.47q6.3.15,12.57.61c2.05.16,4.11.33,6.16.53,2.72.27,3.86,2.14,5.72,3.92,6.11,5.86,12.72,11.27,19.33,16.57,12.95,10.4,26.44,20.11,39.95,29.77,13.85,9.91,28.37,19.4,40.28,31.67a123.27,123.27,0,0,1,27.26,42.17,111.9,111.9,0,0,1,3.6,11.46c0,.16.28.09.24-.07Z"/><path class="cls-19" d="M577.17,514.41c-5.09-14.95-14-28.09-24.76-39.57-11.65-12.49-25.46-22.32-39.28-32.22-14.28-10.24-28.61-20.41-42.43-31.26-6.51-5.12-12.72-10.5-18.94-15.95-1.21-1.06-2.67-1.19-4.28-1.62-2.09-.56-4.2-1.1-6.3-1.62q-5.88-1.49-11.8-2.83c-14.44-3.27-30.33-4.28-43.24-12.13-6.92-4.21-13.1-9.61-19.38-14.69a233.46,233.46,0,0,1-17.49-15.62,192.18,192.18,0,0,1-29.1-36.67,127.1,127.1,0,0,1-11.27-22.3c-2.86-7.85-4.17-16.12-5.14-24.4-1-8.62-1.79-17.26-2.63-25.9-.4-4.09-.83-8.18-1.38-12.25-.45-3.36-.7-7.06-1.95-10.22-6.42-16.27-14.43-31.95-22-47.72-2-4.2-3.95-8.43-5.73-12.72-.06-.15-.31-.09-.24.06,6.67,16,14.89,31.42,21.95,47.3Q294.45,208,297,214c1.77,4.09,2.15,8.79,2.71,13.18,1.09,8.53,1.77,17.1,2.64,25.64.83,8.13,1.56,16.3,3.23,24.31a86.15,86.15,0,0,0,7.71,21.5,184.32,184.32,0,0,0,25.92,38c10.26,11.69,21.93,21.67,34,31.43,5.77,4.67,11.71,9.37,18.52,12.43,6,2.7,12.57,4,19,5.34,8.1,1.63,16.21,3.17,24.26,5.1q6,1.43,12,3a11.72,11.72,0,0,1,5.79,2.85c1.46,1.42,3,2.73,4.58,4,13,11,26.76,21.22,40.6,31.21,27.77,20.05,58.25,39.07,74.11,70.72a94.06,94.06,0,0,1,4.89,11.74c.05.15.29.09.24-.06Z"/><path class="cls-20" d="M580,520.69c-6.52-14.65-17.67-26.4-29.55-36.88-12.78-11.27-26.88-20.94-40.7-30.86-14.57-10.45-29.14-20.92-43.16-32.09-1.46-1.15-2.82-2.49-4.3-3.59a29.85,29.85,0,0,0-5.12-2.56l-11.87-5.59c-7.7-3.62-15.44-7.14-23.06-10.91a167.71,167.71,0,0,1-20-11.31,235.67,235.67,0,0,1-21-16.54,378.47,378.47,0,0,1-35.1-33.8,279.45,279.45,0,0,1-29.65-39.4,188,188,0,0,1-20.68-46.84c-4.93-16.82-8.73-34-13.94-50.71-2.49-8-6.42-15.83-9.84-23.5C268.46,168,264.63,160,260.72,152c-1.92-3.92-3.84-7.85-5.72-11.79-.07-.15-.28,0-.22.12,7.66,16,15.5,31.94,22.47,48.29a127,127,0,0,1,5,12.86c1.29,4.24,2.48,8.51,3.63,12.78,2.31,8.58,4.5,17.19,6.84,25.76,4.4,16.12,9.39,31.9,17.4,46.63a257.13,257.13,0,0,0,27.06,39.8A326.8,326.8,0,0,0,370.26,361c12,10.92,24.49,22,38.54,30.28,14.32,8.44,29.82,14.93,44.84,22l5.6,2.64a29,29,0,0,1,5.84,4c3.19,2.59,6.44,5.09,9.69,7.59,7,5.37,14.08,10.6,21.21,15.78,14.47,10.5,29.3,20.58,43.39,31.59,13.06,10.2,26,21.71,35,35.78a78.06,78.06,0,0,1,5.42,10.12c.07.15.28,0,.22-.12Z"/><path class="cls-21" d="M582.9,527c-8.24-14.12-21.79-23.83-34.67-33.39-15-11.15-30.2-22-45.4-32.88-30.47-21.77-61-43.55-89.87-67.43-25.73-21.28-50.16-44.31-71.58-70a362.63,362.63,0,0,1-54-87.42C273,203.29,262,169.27,246,137.36q-2.94-5.9-6.11-11.67c-.08-.14-.3,0-.22.12,17.4,31.69,28.93,66.05,42.79,99.33a412.12,412.12,0,0,0,22.41,46.6,348.72,348.72,0,0,0,27.51,40.85C352.91,339,376.73,362.64,402,384.41c27.65,23.79,57.13,45.35,86.76,66.58,15.06,10.8,30.17,21.52,45.15,32.42,7.41,5.39,14.8,10.8,22.09,16.35,6.78,5.16,13.44,10.57,19.1,17a65.39,65.39,0,0,1,7.55,10.4c.08.14.3,0,.22-.13Z"/><path class="cls-22" d="M577.89,522.73c-8-13.41-20.92-22.66-33.25-31.76-14.39-10.62-29-21-43.55-31.32-29.26-20.75-58.58-41.48-86.37-64.18-25-20.4-48.74-42.45-69.64-67.05a352,352,0,0,1-52.5-82.88c-14.11-31.11-25.12-63.6-40.75-94q-2.91-5.64-6-11.18c-.08-.14-.3,0-.22.13,16.82,29.83,28.2,62.19,41.66,93.57a403.69,403.69,0,0,0,22.24,45.08A339.34,339.34,0,0,0,336.25,318c20,25.3,43.19,48,67.76,68.84,26.5,22.51,54.69,42.95,83,63.09,14.58,10.37,29.2,20.66,43.69,31.14,7.16,5.18,14.31,10.37,21.36,15.7,6.46,4.89,12.81,10,18.23,16.05a64.51,64.51,0,0,1,7.38,10c.08.13.3,0,.21-.13Z"/><path class="cls-23" d="M572.89,518.46c-7.73-12.71-20-21.49-31.84-30.13-13.78-10.09-27.73-19.93-41.7-29.76-28-19.72-56.13-39.4-82.83-60.91-24-19.34-46.91-40.23-67.17-63.52A341.37,341.37,0,0,1,297.75,255c-13.87-29.52-24.8-60.38-40.08-89.24q-2.87-5.43-6-10.75c-.08-.14-.3,0-.22.13,16.49,28.4,27.81,59.3,41.13,89.22a384.35,384.35,0,0,0,21.92,42.87,330.31,330.31,0,0,0,26.1,36.94c19.42,23.95,41.75,45.41,65.35,65.18,25.61,21.44,52.77,40.93,80,60.16,13.83,9.75,27.7,19.44,41.45,29.31,6.8,4.88,13.6,9.78,20.3,14.8A125.24,125.24,0,0,1,565.47,509a62.64,62.64,0,0,1,7.2,9.58.13.13,0,0,0,.22-.12Z"/><path class="cls-24" d="M567.88,514.19c-7.47-12-19.19-20.33-30.44-28.51-13.25-9.63-26.67-19-40.1-28.38-26.95-18.8-54-37.55-79.71-58-23.11-18.39-45.19-38.22-64.8-60.34a330.5,330.5,0,0,1-50-74.76c-13.58-27.87-24.43-57.05-39.33-84.28q-2.84-5.17-5.87-10.25a.12.12,0,0,0-.21.13c16,26.79,27.25,56,40.33,84.27a372.39,372.39,0,0,0,21.62,40.86,319.83,319.83,0,0,0,25,34.47c18.8,22.75,40.34,43.13,63.06,61.91,24.64,20.37,50.73,38.9,76.93,57.2,13.42,9.39,26.88,18.71,40.22,28.21,12.35,8.79,25.74,17.25,36.1,28.43a60.83,60.83,0,0,1,7,9.17c.08.14.3,0,.21-.12Z"/><path class="cls-25" d="M562.88,509.92c-7.22-11.31-18.32-19.16-29-26.88-12.63-9.1-25.43-18-38.24-26.83-25.84-17.85-51.77-35.63-76.5-55C396.86,383.77,375.56,365,356.55,344a320.61,320.61,0,0,1-48.68-70.64c-15-29.59-26.84-60.79-44.36-89.07a.12.12,0,0,0-.21.13c15.6,25.19,26.71,52.7,39.54,79.32,12.38,25.68,27.15,49.64,45.61,71.4,38.08,44.89,86.4,79.32,134.48,112.58,14.38,9.95,28.79,19.84,43,30,13.14,9.34,27.85,18.47,36.69,32.33.09.14.3,0,.22-.12Z"/><path class="cls-26" d="M557.87,505.64c-7-10.73-17.71-18.18-28-25.52-11.89-8.48-23.93-16.75-36-25-24.35-16.65-48.78-33.2-72.18-51.16-21.68-16.63-42.48-34.54-61.12-54.55a310.79,310.79,0,0,1-47.52-66.57C298.3,255,286.5,225.57,269.41,199a.12.12,0,0,0-.21.13c15.27,23.76,26.34,49.8,39.05,74.95,12.23,24.22,26.75,46.76,44.63,67.21,36.89,42.17,83.12,74.56,129.07,106,13.63,9.33,27.3,18.61,40.8,28.11,12.48,8.79,26.37,17.38,34.91,30.39.08.13.3,0,.21-.13Z"/><path class="cls-27" d="M552.87,501.37c-6.69-9.89-16.58-16.82-26.19-23.62-11.54-8.15-23.22-16.08-34.93-24-23.22-15.7-46.55-31.3-68.94-48.19-20.66-15.59-40.53-32.34-58.45-51a301.64,301.64,0,0,1-46-62.1c-14.56-26.16-26.34-53.85-43-78.79-.09-.13-.31,0-.22.12C290,236.05,301,260.55,313.58,284.17a310.51,310.51,0,0,0,43.56,63c35.5,39.32,79.42,69.62,123.05,99.12,12.88,8.71,25.79,17.38,38.56,26.26,12.08,8.39,25.52,16.58,33.9,29,.09.13.31,0,.22-.13Z"/><path class="cls-28" d="M547.86,497.1c-6.7-9.58-16.5-16.24-26-22.83-10.76-7.48-21.64-14.78-32.54-22.06-22-14.69-44.13-29.27-65.41-45-19.78-14.65-38.85-30.36-56.14-47.91a293.44,293.44,0,0,1-44.61-58c-14.15-24.23-25.85-49.89-42-72.93-.09-.13-.31,0-.22.12,14.4,20.56,25.28,43.21,37.49,65.05a301.85,301.85,0,0,0,41.95,58.47c34.17,36.87,76,65.3,117.63,93,12.23,8.16,24.48,16.29,36.6,24.6,11.7,8,24.71,15.82,33,27.65.09.13.3,0,.21-.13Z"/><path class="cls-29" d="M542.86,492.83c-6.34-8.75-15.36-14.89-24.15-20.93-10.27-7.06-20.66-13.94-31.07-20.79-20.77-13.66-41.65-27.19-61.8-41.76-37.56-27.16-72.27-58.28-96.93-97.91C314.78,288.72,303,264.55,287.12,243c-.1-.13-.31,0-.22.12C301,262.21,311.84,283.37,324,303.74a293,293,0,0,0,40.76,54.05C397.48,391.8,437,418.16,476.3,444c11.75,7.72,23.52,15.42,35.16,23.3,11,7.47,23.23,14.73,31.18,25.7.09.13.31,0,.22-.13Z"/><path class="cls-30" d="M537.85,488.56c-6.16-8.17-14.74-13.91-23.12-19.58-9.65-6.53-19.42-12.9-29.21-19.23C465.86,437,446.1,424.44,427,410.93c-35.86-25.31-69.15-54.19-93.45-91.09-13.63-20.68-25.26-42.67-40.52-62.25-.1-.13-.27.05-.18.18,13.83,17.75,24.7,37.49,36.75,56.44a285.23,285.23,0,0,0,39.65,49.63c31.53,31.29,69,55.64,106.12,79.63,11,7.1,22,14.19,32.9,21.46,10.39,6.92,21.76,13.64,29.39,23.76.1.12.32,0,.22-.13Z"/><path class="cls-31" d="M532.83,484.26c-6-7.58-14.14-12.92-22.1-18.21-9.12-6.06-18.35-12-27.6-17.84-18.45-11.72-37-23.29-55-35.67-33.89-23.29-65.64-49.72-89.51-83.52-13.32-18.87-24.92-39-39.71-56.77-.1-.13-.28.05-.18.17,13.41,16.16,24.2,34.18,36,51.47a280.26,280.26,0,0,0,38.4,45.38c30.3,28.74,65.75,51.2,100.89,73.46,10.48,6.64,21,13.27,31.33,20.08,9.64,6.32,20,12.46,27.29,21.63.1.13.27-.05.18-.18Z"/><path class="cls-32" d="M527.82,480c-5.81-7-13.52-11.94-21.07-16.85-8.51-5.54-17.11-10.94-25.74-16.3-17.33-10.78-34.76-21.41-51.75-32.72-31.94-21.27-62.12-45.26-85.54-75.92-13-17.06-24.59-35.24-38.92-51.29-.11-.12-.28,0-.17.17,13.08,14.66,23.86,31.11,35.56,46.85a276.66,276.66,0,0,0,37.3,41.13c28.94,26,62.23,46.48,95.18,66.9,9.73,6,19.45,12.06,29.08,18.25,9.11,5.85,18.89,11.53,25.89,20,.11.12.28-.06.18-.18Z"/><path class="cls-33" d="M522.81,475.72c-5.53-6.28-12.64-10.78-19.64-15.23-8-5.11-16.14-10.08-24.27-15-16.08-9.76-32.27-19.36-48.1-29.52-29.87-19.17-58.46-40.58-81.39-67.9-13-15.44-24.63-32-38.71-46.48a.12.12,0,1,0-.17.17c12.57,13,23.22,27.53,34.59,41.51a279.56,279.56,0,0,0,36.41,37.29c27.66,23.38,58.89,42,89.79,60.64,9,5.42,17.94,10.85,26.82,16.43,8.58,5.38,17.73,10.6,24.5,18.29.1.12.28-.06.17-.18Z"/><path class="cls-34" d="M517.81,471.45c-5.24-5.57-11.75-9.62-18.21-13.61-7.41-4.6-14.89-9.07-22.4-13.5C462.37,435.6,447.44,427,432.77,418c-28.1-17.25-55.28-36.27-77.87-60.48-12.82-13.73-24.54-28.46-38.3-41.31-.11-.11-.29.07-.17.18,12.16,11.36,22.74,24.19,33.89,36.51a287.81,287.81,0,0,0,35.19,33c26.24,20.68,55.3,37.34,84.05,54.2,8.5,5,17,10,25.38,15.12,7.92,4.84,16.27,9.55,22.69,16.37.11.11.29-.06.18-.18Z"/><path class="cls-35" d="M512.8,467.18c-5-5-11.13-8.63-17.18-12.26q-10.39-6.23-20.95-12.2c-13.71-7.81-27.52-15.46-41.15-23.42-26.14-15.3-51.61-31.94-73.63-52.88-12.46-11.86-24.13-24.54-37.38-35.54-.13-.1-.3.08-.18.18,11.82,9.81,22.39,21,33.37,31.67a305.05,305.05,0,0,0,33.2,28.13c25,18.2,52.07,33.07,78.9,48.25,7.88,4.46,15.74,8.94,23.53,13.55,7.4,4.38,15.12,8.63,21.3,14.69a.12.12,0,1,0,.17-.17Z"/><path class="cls-36" d="M507.8,462.91c-4.87-4.36-10.53-7.65-16.16-10.89-6.18-3.56-12.4-7-18.65-10.44-12.74-7-25.57-13.76-38.29-20.76-24.66-13.58-48.8-28.13-70.54-46.12-11.86-9.81-23.26-20.18-35.78-29.18-.13-.09-.25.12-.12.22,11.49,8.25,22,17.67,32.87,26.76A342.16,342.16,0,0,0,393,396.3c23.72,15.63,49,28.71,73.91,42.24,7,3.78,13.92,7.6,20.82,11.52s14,7.72,19.9,13c.12.11.3-.07.18-.17Z"/><path class="cls-37" d="M502.79,458.64a100,100,0,0,0-14.72-9.29c-5.83-3.21-11.71-6.32-17.61-9.39-11.48-6-23-11.75-34.57-17.65-22.66-11.58-45.06-23.69-66-38.15-11.78-8.12-23.28-16.63-35.57-24a.13.13,0,0,0-.12.22c10.67,6.38,20.76,13.63,30.94,20.76s20.77,14,31.62,20.31c22.29,13,45.51,24.23,68.43,36,6.35,3.27,12.67,6.58,19,10s12.85,6.81,18.52,11.34c.12.1.3-.07.17-.17Z"/><path class="cls-38" d="M497.76,454.34c-9.21-6.41-19.77-11.09-29.84-16-10.51-5.12-21.11-10-31.71-15-20.84-9.69-41.61-19.53-61.78-30.56-11.32-6.19-22.56-12.51-34.25-18-.14-.07-.27.15-.12.22,20.73,9.68,40.31,21.66,60.82,31.79,20.82,10.29,42,19.73,63,29.8,11.37,5.48,23.41,10.68,33.8,17.91.13.09.25-.12.12-.22Z"/><path class="cls-39" d="M492.76,450.07c-8.76-5.09-18.15-9.18-27.39-13.31-9.4-4.2-18.9-8.21-28.43-12.12-19.31-7.91-38.76-15.5-58.17-23.15-10.81-4.26-21.66-8.41-32.71-12-.16-.05-.22.19-.07.24,19.32,6.28,38.1,14.14,57,21.59,19.66,7.76,39.34,15.54,58.69,24.06,10.44,4.61,21.09,9.17,31,14.91.14.08.27-.14.13-.22Z"/><path class="cls-40" d="M487.75,445.8A553.87,553.87,0,0,0,383,410.35q-15.42-3.56-31-6.21c-.16,0-.23.22-.07.25A553.83,553.83,0,0,1,458.05,433.6q15,5.77,29.58,12.42c.14.06.27-.15.12-.22Z"/><path class="cls-41" d="M482.06,441.5a530.9,530.9,0,0,0-103.59-35.71q-15.54-3.69-31.27-6.52c-.16,0-.22.22-.07.25a562.92,562.92,0,0,1,105.73,29.67q14.75,5.78,29.08,12.53c.14.07.27-.15.12-.22Z"/><path class="cls-42" d="M476.38,437.2c-32.7-16-67.56-27.46-102.88-36.08q-15.44-3.76-31.05-6.71c-.16,0-.23.21-.07.24A572.26,572.26,0,0,1,447.45,424.7q14.64,5.82,28.8,12.72c.15.07.27-.15.13-.22Z"/><path class="cls-43" d="M470.69,432.9c-32.16-16.29-66.83-27.56-101.72-36.34q-15.56-3.9-31.28-7c-.16,0-.22.21-.07.24,35.53,7.07,70.81,16.85,104.43,30.43q14.52,5.85,28.52,12.91a.13.13,0,0,0,.12-.22Z"/><path class="cls-44" d="M465,428.6c-31.75-16.67-66.38-27.76-101-36.7q-15.45-4-31.07-7.23a.12.12,0,0,0-.06.24c35.26,7.35,70.41,17.13,103.78,30.8,9.6,3.94,19,8.28,28.23,13.11.14.07.27-.14.12-.22Z"/><path class="cls-45" d="M459.32,424.3c-31.34-17.05-66-28-100.33-37.07q-15.32-4.07-30.81-7.43c-.16,0-.23.2-.07.24,35.15,7.67,70.32,17.49,103.56,31.36a297.49,297.49,0,0,1,27.52,13.12c.14.08.27-.14.13-.22Z"/><path class="cls-46" d="M453.63,420c-30.92-17.42-65.51-28.16-99.61-37.43q-15.21-4.14-30.6-7.64a.13.13,0,0,0-.07.24q26.76,6.1,53,14.1a499.72,499.72,0,0,1,50.71,18,269.15,269.15,0,0,1,26.42,13c.14.08.27-.14.13-.22Z"/><path class="cls-47" d="M447.94,415.7C417.59,398,383.16,387.44,349.49,378q-15.33-4.29-30.82-8c-.16,0-.23.2-.07.24q26.7,6.36,52.94,14.49c16.95,5.25,33.83,10.92,50.13,18a245.83,245.83,0,0,1,26.15,13.15c.14.08.26-.14.12-.22Z"/><path class="cls-48" d="M442.26,411.4c-14.62-8.83-30.32-15.65-46.34-21.51-16.9-6.19-34.11-11.57-51.4-16.52q-15.24-4.37-30.61-8.18a.13.13,0,0,0-.07.24q26.52,6.58,52.58,14.78c16.85,5.31,33.66,11,49.84,18.07a225.73,225.73,0,0,1,25.87,13.34c.14.08.26-.13.13-.22Z"/><path class="cls-49" d="M436.57,407.1c-14.41-9-30-15.86-45.93-21.74-16.8-6.2-33.92-11.61-51.1-16.65q-15.12-4.45-30.39-8.39a.12.12,0,0,0-.06.24q26.31,6.81,52.22,15.08c16.74,5.35,33.47,11,49.53,18.16a207.74,207.74,0,0,1,25.6,13.52.13.13,0,0,0,.13-.22Z"/><path class="cls-50" d="M430.88,402.8c-14.07-9.12-29.43-15.95-45.1-21.81-16.85-6.29-34-11.77-51.24-16.95q-15-4.53-30.14-8.59a.13.13,0,0,0-.07.24q26.26,7.08,52.15,15.47c16.68,5.42,33.38,11,49.36,18.34A193.42,193.42,0,0,1,430.76,403c.13.09.26-.13.12-.22Z"/><path class="cls-51" d="M425.2,398.5c-13.86-9.29-29.13-16.17-44.71-22-16.75-6.31-33.82-11.81-50.92-17.08q-14.91-4.61-29.93-8.8c-.15,0-.22.2-.07.24q26.07,7.31,51.79,15.77c16.58,5.47,33.21,11.08,49.06,18.42a179.2,179.2,0,0,1,24.65,13.71c.13.09.26-.13.13-.22Z"/><path class="cls-52" d="M419.51,394.2C406,384.81,391,378,375.62,372.1,359,365.75,342,360.22,325,354.85q-15-4.74-30.15-9.14c-.16,0-.23.2-.07.24q26.25,7.64,52.19,16.33c16.22,5.44,32.5,11,48,18.25a166.66,166.66,0,0,1,24.37,13.89c.14.09.26-.13.13-.22Z"/><path class="cls-53" d="M413.82,389.9c-13.31-9.56-28.24-16.46-43.49-22.33-16.54-6.36-33.41-11.92-50.27-17.37q-14.91-4.83-29.93-9.36c-.16,0-.22.2-.07.24q26.06,7.86,51.82,16.63c16.12,5.48,32.33,11,47.71,18.33a158.29,158.29,0,0,1,24.11,14.08c.13.09.25-.12.12-.22Z"/><path class="cls-54" d="M408.14,385.6c-13.05-9.69-27.82-16.62-42.92-22.48-16.49-6.42-33.34-12-50.14-17.58q-14.81-4.92-29.71-9.57c-.15-.05-.22.19-.06.24q25.85,8.09,51.45,16.93c16.13,5.56,32.38,11.08,47.74,18.57A148.52,148.52,0,0,1,408,385.82c.13.1.25-.12.13-.22Z"/><path class="cls-55" d="M402.45,381.3c-12.71-9.77-27.25-16.7-42.11-22.55C344,352.3,327.22,346.69,310.55,341q-14.93-5.07-29.93-9.93c-.16-.05-.22.19-.07.24q26,8.45,51.86,17.5c15.76,5.53,31.67,11,46.67,18.39a139.82,139.82,0,0,1,23.24,14.29c.13.1.25-.12.13-.22Z"/><path class="cls-56" d="M396.79,377c-12.39-9.86-26.69-16.8-41.34-22.63-16.41-6.54-33.19-12.22-49.88-18q-14.82-5.14-29.71-10.14c-.15-.05-.22.19-.07.24q25.59,8.59,51,17.63c15.68,5.58,31.54,11,46.46,18.45a132.5,132.5,0,0,1,23.33,14.65c.13.1.3-.08.18-.18Z"/><path class="cls-57" d="M391.1,372.72C379,362.79,365,355.84,350.56,350c-16.29-6.57-33-12.26-49.51-18.14q-15-5.31-29.94-10.52c-.16-.05-.22.19-.07.24q25.53,8.88,51,18c15.48,5.58,31.16,11,45.86,18.41a125.73,125.73,0,0,1,23.06,14.84c.13.1.3-.07.18-.18Z"/><path class="cls-58" d="M385.41,368.42c-11.84-10.09-25.81-17.09-40.15-22.92-16.19-6.6-32.77-12.31-49.2-18.27q-14.83-5.4-29.71-10.74c-.15-.05-.22.19-.07.24q25.34,9.11,50.6,18.35c15.37,5.63,31,11,45.56,18.5a118.74,118.74,0,0,1,22.8,15c.12.1.3-.07.17-.18Z"/><path class="cls-59" d="M379.73,364.12C368.25,354,354.57,347,340.52,341.2c-16.12-6.66-32.64-12.39-49-18.46l-30-11.12c-.15-.05-.21.19-.06.25l51,18.93c15.13,5.62,30.5,10.92,44.81,18.45a113.47,113.47,0,0,1,22.21,15.05c.12.11.3-.07.18-.18Z"/><path class="cls-60" d="M375.19,358.22c-11.61-10-25-17.07-39.09-23-15.9-6.64-32.2-12.4-48.34-18.42q-14.58-5.43-29.18-10.81c-.15-.06-.21.18-.06.24q25,9.23,50,18.6c15.14,5.69,30.52,11.1,44.83,18.72A117.85,117.85,0,0,1,375,358.39c.12.11.3-.07.18-.17Z"/><path class="cls-61" d="M370.65,352.31a121.36,121.36,0,0,0-17.8-12.7,192.91,192.91,0,0,0-20.8-10.13c-15.65-6.62-31.69-12.39-47.61-18.34q-14.42-5.4-28.86-10.69c-.15-.05-.22.19-.07.24q24.71,9.06,49.3,18.39c15,5.71,30.3,11.2,44.49,18.84a125.71,125.71,0,0,1,21.18,14.56c.12.11.3-.07.17-.17Z"/><path class="cls-62" d="M366.12,346.4c-2.5-2-4.76-4.22-7.41-6.11-3.2-2.27-6.51-4.37-9.9-6.34a195.61,195.61,0,0,0-21.21-10.42c-15.27-6.54-30.92-12.27-46.48-18.11q-14.25-5.35-28.55-10.55c-.15-.06-.22.18-.07.24q24.22,8.81,48.29,18.05c14.91,5.72,30,11.27,44.09,18.88,3.83,2.07,7.58,4.3,11.2,6.73,1.68,1.14,3.34,2.31,5,3.53s3.22,2.91,4.9,4.27c.12.11.3-.07.18-.17Z"/><path class="cls-63" d="M361.58,340.49a85.22,85.22,0,0,0-7.6-6.3c-3.22-2.26-6.55-4.36-10-6.33a204.23,204.23,0,0,0-20.88-10.3c-15.05-6.51-30.46-12.25-45.8-18q-13.86-5.22-27.78-10.25c-.15,0-.22.19-.07.24q23.91,8.64,47.6,17.83c14.54,5.65,29.23,11.18,43,18.6,3.72,2,7.37,4.15,10.9,6.49,1.82,1.2,3.61,2.46,5.36,3.76s3.36,2.95,5.07,4.47c.12.1.3-.07.18-.18Z"/><path class="cls-64" d="M357,334.58c-1.12-1-2-2.15-3.18-3.1-1.39-1.08-2.82-2.12-4.26-3.13-3.23-2.28-6.57-4.39-10-6.36a207.65,207.65,0,0,0-20.53-10.23c-14.79-6.49-29.94-12.23-45.05-17.95q-13.69-5.18-27.48-10.11c-.15-.06-.22.18-.07.24q23.43,8.4,46.61,17.49c14.53,5.7,29.21,11.35,42.94,18.84,3.6,2,7.13,4.05,10.55,6.32q2.75,1.8,5.39,3.77c1.84,1.37,3.23,2.91,4.89,4.4.12.1.3-.07.18-.18Z"/><path class="cls-65" d="M352.5,328.67c-1.06-.95-1.81-2.11-3-3q-2.11-1.62-4.29-3.15c-3.13-2.19-6.36-4.24-9.66-6.17A210.22,210.22,0,0,0,315,306c-14.54-6.48-29.44-12.21-44.31-17.86q-13.53-5.14-27.17-10c-.15-.05-.21.19-.06.24q23.1,8.22,45.9,17.27c14.44,5.73,29,11.45,42.61,19,3.6,2,7.14,4.1,10.57,6.39q2.56,1.71,5.05,3.54a29.38,29.38,0,0,1,3,2.32c.64.63,1,1.41,1.71,2a.12.12,0,0,0,.17-.18Z"/><path class="cls-66" d="M348,322.76c-.39-.35-.63-1-1-1.44a14.54,14.54,0,0,0-1.8-1.51c-1.41-1.09-2.86-2.13-4.32-3.16q-4.53-3.16-9.31-6A213.1,213.1,0,0,0,311,300.16C296.68,293.7,282,288,267.4,282.38q-13.36-5.1-26.87-9.86c-.15,0-.21.19-.06.25q29.14,10.29,57.71,22.14c9,3.76,18,7.7,26.65,12.3,4.17,2.22,8.27,4.6,12.23,7.18q3,1.94,5.83,4a24.34,24.34,0,0,1,3.38,2.58c.58.62.89,1.38,1.52,1.94.12.11.3-.07.18-.18Z"/><path class="cls-67" d="M343.43,316.85c-.73-.65-1.07-1.64-1.91-2.33-1.38-1.13-2.86-2.17-4.32-3.2-3-2.15-6.14-4.16-9.32-6.06a213.42,213.42,0,0,0-20.17-10.54c-14.28-6.61-28.95-12.43-43.64-18.06q-13.2-5.06-26.54-9.72c-.16-.05-.22.19-.07.24q29.27,10.24,57.84,22.34c8.51,3.61,16.95,7.41,25.09,11.78,4.19,2.24,8.29,4.64,12.27,7.24,2,1.29,3.95,2.64,5.86,4a24.68,24.68,0,0,1,3.39,2.59c1.89,2,.49,1.1,1.34,1.87.12.11.3-.07.18-.18Z"/><path class="cls-68" d="M338.84,310.91c-.06,0-.53-1.18-.6-1.27-.95-1.26-2.7-2.21-4-3.12-3-2.2-6.11-4.26-9.28-6.21a213.14,213.14,0,0,0-20.54-11c-14.12-6.69-28.67-12.56-43.24-18.18q-13.28-5.12-26.7-9.77c-.15-.05-.22.19-.07.24q28.14,9.78,55.54,21.5c8.25,3.54,16.44,7.24,24.38,11.45q5.94,3.13,11.64,6.69c2,1.27,4,2.58,6,3.95,1.61,1.12,6.49,3.68,6.54,5.8a.14.14,0,0,0,.09.12l.17,0c.15.06.22-.18.07-.24Z"/><path class="cls-69" d="M334.27,305c.3,0-.39-1.21-.37-1.18a14,14,0,0,0-3.26-2.62c-3-2.21-6.12-4.31-9.29-6.29a213.37,213.37,0,0,0-20.14-11c-14.12-6.85-28.69-12.84-43.32-18.5q-13.09-5.07-26.38-9.63c-.15-.06-.22.19-.07.24q27.85,9.58,54.88,21.35c8.26,3.6,16.46,7.39,24.4,11.67q5.94,3.21,11.64,6.81,2.65,1.7,5.24,3.49c1.3.91,6.82,4,6.42,5.75a.13.13,0,0,0,.12.16h.13c.16,0,.16-.24,0-.25Z"/><path class="cls-70" d="M329.7,299.1c1.18-.45-2.44-3-2.69-3.2q-4.53-3.36-9.31-6.38a217.56,217.56,0,0,0-20.14-11.22c-14-6.92-28.44-13-43-18.61q-12.95-5-26.08-9.51c-.15-.05-.22.19-.07.24q27.34,9.34,53.81,21c8.14,3.61,16.21,7.4,24,11.66,4,2.16,7.88,4.44,11.69,6.88,1.61,1,12.52,7.42,11.57,9.21,0,.09,0,.22.14.18l.09,0c.15-.06.09-.3-.06-.24Z"/><path class="cls-71" d="M325.09,293.24l0,.08c-.08.12.1.26.19.16,1.64-1.81-9.87-8.5-11.17-9.34a218.5,218.5,0,0,0-19.75-11.22c-13.84-7-28.16-13.12-42.6-18.78q-13-5.08-26.22-9.54c-.15-.06-.22.19-.06.24q27,9.15,53.14,20.87c8,3.61,15.95,7.42,23.66,11.68,2.31,1.27,24.46,13.75,23.07,16,.09-.14-.13-.26-.21-.13Z"/><path class="cls-72" d="M320.53,287.4v.13a.12.12,0,0,0,.19.1c2-1.4-9.19-8.15-10.29-8.86a225.66,225.66,0,0,0-19.76-11.43,453.89,453.89,0,0,0-42.27-18.91q-12.82-5.06-25.91-9.42c-.15,0-.21.19-.06.24a528.77,528.77,0,0,1,52.06,20.54c8,3.67,16,7.56,23.7,11.88,3.72,2.08,7.38,4.26,11,6.57,1.79,1.15,3.57,2.33,5.32,3.54,1.48,1,6.48,3.62,6.32,5.62,0-.16-.24-.16-.25,0Z"/><path class="cls-73" d="M316,281.52l0,.18c0,.08.12.1.18.07,1.93-.95-2.57-3.61-3-3.93q-5.94-4.3-12.21-8.13a282.56,282.56,0,0,0-25.89-13.92,477.85,477.85,0,0,0-55.61-22.37c-.16,0-.22.2-.07.25a481.38,481.38,0,0,1,51.4,20.38c7.78,3.62,15.46,7.45,22.92,11.68,3.73,2.11,7.4,4.31,11,6.63q2.68,1.74,5.33,3.57c1.9,1.32,5.76,3.17,6.17,5.53,0-.16-.27-.09-.24.06Z"/><path class="cls-74" d="M311.46,275.58v.2a.12.12,0,0,0,.12.12c.81,0,.76-.74.47-1.3-.47-.94-2-1.73-2.82-2.31-1.72-1.24-3.45-2.46-5.2-3.64-6.26-4.24-12.75-8.12-19.38-11.74a390.77,390.77,0,0,0-42-19.56q-12.93-5.17-26.17-9.51c-.16-.05-.22.19-.07.24a438.54,438.54,0,0,1,51.13,20.42c7.66,3.63,15.2,7.5,22.54,11.73q5.51,3.16,10.82,6.63c1.78,1.15,3.53,2.34,5.27,3.54s5.44,3,5.55,5.18c0-.16-.26-.16-.25,0Z"/><path class="cls-75" d="M306.92,269.71l0,.23c0,.06.07.08.12.09.84.09.92-.64.62-1.28-.45-.94-2.05-1.74-2.82-2.3-1.61-1.16-3.22-2.29-4.85-3.4-6.29-4.28-12.79-8.23-19.43-11.91a367.52,367.52,0,0,0-41.73-19.68q-12.56-5-25.41-9.21c-.15-.05-.22.19-.07.24a400,400,0,0,1,50.06,20.08c7.67,3.69,15.23,7.64,22.57,11.94q5.5,3.23,10.85,6.73c1.65,1.08,3.28,2.19,4.91,3.32.87.6,1.74,1.22,2.6,1.84l1.48,1.07a1.69,1.69,0,0,1,1.31,2.17c0-.16-.27-.09-.25.07Z"/><path class="cls-76" d="M302.39,263.8l.06.27s.05.08.09.08c1.84.31.4-1.7-.15-2.18-3.39-3-7.56-5.37-11.33-7.83-8.21-5.32-16.72-10.17-25.41-14.64a366.41,366.41,0,0,0-55.2-22.83c-.15,0-.22.19-.07.24a368.46,368.46,0,0,1,49.4,19.92c7.41,3.64,14.7,7.53,21.8,11.73q5.52,3.27,10.88,6.8,2.69,1.77,5.31,3.61,1.13.78,2.25,1.59l1.48,1.07c1.18.35,1.56,1.05,1.13,2.1,0-.16-.28-.09-.24.07Z"/><path class="cls-77" d="M297.85,257.89l.09.3a.12.12,0,0,0,.09.09c1.88.41.66-1.58,0-2.15-3.4-3-7.63-5.4-11.41-7.87-8.1-5.29-16.49-10.17-25.07-14.65a338.35,338.35,0,0,0-54.13-22.53c-.15-.05-.22.19-.06.24a339.29,339.29,0,0,1,48.32,19.57q11.15,5.55,21.83,12,5.34,3.19,10.53,6.64,2.69,1.78,5.33,3.63l2.26,1.59,1.5,1.08c1.25.36,1.57,1,.94,2,0-.15-.29-.09-.24.07Z"/><path class="cls-78" d="M293.31,252c.15.69,1,.67,1.33.13.84-1.25-2.92-3.23-3.49-3.64q-9.76-6.93-20.06-13.08a311.92,311.92,0,0,0-41.22-20.69q-12.51-5.16-25.44-9.2c-.15-.05-.22.19-.06.24a312.91,312.91,0,0,1,46.78,19q11.09,5.6,21.71,12.05,5.31,3.23,10.48,6.66,2.42,1.6,4.78,3.24c2.06,1.42,4.87,2.66,5.43,5.26,0-.15-.27-.09-.24.07Z"/><path class="cls-79" d="M294.4,253.94l.09.28a.16.16,0,0,0,.09.09c.87.14,1.28-.43,1-1.27-.37-1-1.95-1.83-2.74-2.45-1.34-1.06-2.68-2.1-4-3.14q-9.12-7-18.64-13.42a371.64,371.64,0,0,0-39.27-23.24q-11.25-5.73-22.87-10.64c-.15-.06-.28.16-.13.22A356.94,356.94,0,0,1,252.36,223q10.93,6.56,21.42,13.84,5.3,3.66,10.45,7.51c1.6,1.19,3.2,2.39,4.78,3.61,1.09.84,2.18,1.68,3.26,2.53l1.45,1.14a1.73,1.73,0,0,1,.92,2.25c-.05-.15-.29-.09-.24.07Z"/><path class="cls-80" d="M295.49,255.89l.07.24a.13.13,0,0,0,.12.09c2.38.1-.42-2.72-.86-3.11-3.84-3.39-7.8-6.65-11.77-9.88q-11.21-9.14-22.89-17.63a443.64,443.64,0,0,0-48.65-30.81c-.14-.07-.27.14-.13.22A437.33,437.33,0,0,1,254,221.48q10.95,7.7,21.47,16,5.25,4.13,10.4,8.38,2.6,2.14,5.15,4.32l2.2,1.88,1.46,1.26a2.24,2.24,0,0,1,1.09,2.54c-.05-.16-.29-.09-.24.06Z"/><path class="cls-81" d="M296.58,257.85l0,.18a.13.13,0,0,0,.12.09c1.07-.11.9-1.09.47-1.81a17.8,17.8,0,0,0-3.24-3.19q-2.33-2.16-4.66-4.31-8.9-8.15-18-16c-11.62-10-23.55-19.64-35.83-28.8q-10-7.52-20.42-14.55c-.14-.09-.26.12-.13.21,14.25,9.67,28,20,41.36,30.89q10.29,8.39,20.26,17.14,5.09,4.45,10.09,9c1.69,1.53,3.36,3.07,5,4.61l2.51,2.33,1.43,1.34a2.83,2.83,0,0,1,1.24,2.81.13.13,0,0,0-.24.07Z"/><path class="cls-82" d="M297.66,259.81l0,.12c0,.06.1.1.16.09,1.16-.35.57-1.57.08-2.26a31.77,31.77,0,0,0-3.68-3.75q-2.26-2.3-4.56-4.57-8.65-8.62-17.47-17.1-17-16.35-34.67-32-9.37-8.25-19-16.25c-.12-.1-.3.07-.17.18,13.36,11.11,26.36,22.65,39.09,34.48q10.17,9.47,20.12,19.15,4.92,4.78,9.79,9.62l4.91,4.89c2.16,2.16,5.08,4.19,5.59,7.32,0-.16-.26-.09-.24.07Z"/><path class="cls-83" d="M298.75,261.73v.07c0,.09.11.15.19.11,1.3-.74,0-2.25-.6-3-2.66-3.16-5.63-6.1-8.44-9.13q-8.62-9.3-17.3-18.54Q256.41,214,240,197q-8.88-9.16-17.86-18.23c-.12-.11-.29.07-.18.18q18.81,18.95,37.15,38.35,9.85,10.39,19.62,20.86,5,5.37,10,10.75l4.71,5.09c1.75,1.89,5.76,4.94,5.58,7.76,0-.16-.24-.16-.25,0Z"/><path class="cls-84" d="M299.92,263.57c1.56-.59-.7-3-1.31-3.68-2.89-3.37-5.8-6.72-8.7-10.09q-8.34-9.72-16.64-19.48Q257.53,211.78,242,193.09q-8.19-9.84-16.34-19.7c-.11-.13-.28.05-.18.17q17.51,21.19,35.21,42.22,9.45,11.22,19,22.38,4.89,5.73,9.8,11.45c1.24,1.44,12,12.47,10.42,14-.08.08,0,.26.12.21h0c.15-.06.09-.3-.07-.24Z"/><path class="cls-85" d="M301.17,265.61c-.14-.51.26-1.14,0-1.85-.6-1.52-2.15-2.86-3.15-4.1q-4-5-8-10-8.43-10.57-16.69-21.3-14.85-19.28-29.08-39-7.62-10.57-15-21.29c-.09-.14-.31,0-.22.12,17.82,25.78,36.55,50.93,56,75.53q4.41,5.58,8.86,11.12l4.35,5.39c.42.51.88,1,1.26,1.55l.62.77.91,2.95s0,.24,0,.19a.13.13,0,0,0,.25-.07Z"/><path class="cls-86" d="M302.25,267.57a10.65,10.65,0,0,1,.11-1.21,3.6,3.6,0,0,0-.51-1.19,47,47,0,0,0-4.05-5.41q-4.19-5.52-8.31-11.08-7.78-10.53-15.3-21.25-14.43-20.56-27.77-41.88-7.06-11.31-13.74-22.85c-.08-.14-.3,0-.22.12a914.65,914.65,0,0,0,53.33,81.25q4.36,6,8.8,11.85,2.24,3,4.5,5.94a19.33,19.33,0,0,1,2.33,3.06c.37.84.28,1.86.59,2.72.06.15.3.08.24-.07Z"/><path class="cls-87" d="M303.34,269.53c-.15-.36.05-1,0-1.36a5,5,0,0,0-.75-1.61c-1.16-1.93-2.66-3.7-4-5.52q-4.12-5.78-8.16-11.61-7.79-11.27-15.16-22.79-13.95-21.78-26.35-44.51-6.63-12.25-12.72-24.79c-.07-.14-.29,0-.22.13a694.28,694.28,0,0,0,50.94,87.29q4.24,6.24,8.61,12.4c1.42,2,2.84,4,4.28,6a33.28,33.28,0,0,1,2.28,3.16,33.42,33.42,0,0,1,1,3.27c.06.15.3.08.24-.06Z"/><path class="cls-88" d="M304.42,271.45c-.51-1.16-.32-2.15-1.06-3.33-1.33-2.12-2.84-4.13-4.24-6.21q-3.93-5.82-7.75-11.73-7.64-11.81-14.76-23.93c-9-15.34-17.4-31.05-25-47.13q-6.33-13.38-11.88-27.11c0-.14-.3-.08-.24.07,13.27,32.87,30.05,64.29,49.06,94.18q4.29,6.74,8.73,13.36,2.16,3.24,4.37,6.45a13.73,13.73,0,0,1,2.14,3.7,16,16,0,0,0,.41,1.81c.06.15.28,0,.22-.13Z"/><path class="cls-89" d="M305.5,273.41c-.31-.68-.24-1.57-.52-2.28a9.56,9.56,0,0,0-.89-1.55c-1.35-2.15-2.77-4.26-4.14-6.39q-3.88-6.09-7.63-12.26-7.5-12.36-14.38-25.07a524.37,524.37,0,0,1-24.18-50.93q-5.72-14-10.5-28.27c0-.15-.3-.09-.25.06,11.65,34.87,27.61,68.25,46.38,99.83q4.17,7,8.53,13.91,2.32,3.68,4.71,7.33c.6.92,1.28,1.83,1.8,2.81s.42,2,.86,2.94c.06.14.28,0,.21-.13Z"/><path class="cls-90" d="M306.59,275.37c-.68-1.48-.86-2.91-1.76-4.36-1.34-2.19-2.71-4.36-4-6.55q-4-6.54-7.76-13.19-7.35-12.92-14-26.22a482,482,0,0,1-22.95-54q-5.21-14.73-9.33-29.8c-.05-.15-.29-.09-.24.07,10.09,36.95,25.3,72.45,43.94,105.88q4.06,7.29,8.36,14.46,2.22,3.71,4.5,7.38c.67,1.08,1.43,2.15,2,3.29s.55,2.1,1,3.11c.07.15.29,0,.22-.12Z"/><path class="cls-91" d="M307.68,277.32a58.8,58.8,0,0,0-2.41-5.41q-2.07-3.46-4.08-7-3.9-6.75-7.57-13.63Q286.36,237.72,280,223.7a456.48,456.48,0,0,1-21.52-56.64q-4.67-15.39-8.13-31.12a.13.13,0,0,0-.24.07c8.51,38.74,22.79,76.14,41.15,111.27q4.16,7.93,8.58,15.73,2.11,3.72,4.29,7.39c.74,1.25,1.55,2.46,2.21,3.75.55,1.07.67,2.23,1.17,3.3.07.15.29,0,.22-.13Z"/><path class="cls-92" d="M308.77,279.28c-1-2.06-1.64-4-2.79-6.06-1.33-2.33-2.63-4.66-3.92-7q-3.84-7-7.45-14.17-7.33-14.53-13.65-29.57a438.76,438.76,0,0,1-20-58.84q-4.26-16.37-7.14-33c0-.16-.27-.09-.24.06,7,40.74,20.49,80.26,38.72,117.32q3.94,8,8.19,15.87,2.25,4.17,4.57,8.27c.72,1.27,1.5,2.51,2.15,3.81.57,1.13.8,2.36,1.34,3.49.07.14.28,0,.22-.13Z"/><path class="cls-93" d="M309.85,281.24c-1-2.11-1.79-4.23-2.92-6.3q-2.15-3.93-4.21-7.89Q299,260,295.6,252.78q-7.2-15.1-13.27-30.72a427,427,0,0,1-18.65-61q-4-17.75-6.33-35.82c0-.15-.28-.16-.25,0,5.52,42.56,18.08,84.08,36.1,123q3.93,8.5,8.22,16.84,2.16,4.19,4.39,8.32c1.42,2.62,2.55,5.28,3.83,7.95.07.15.28,0,.21-.12Z"/><path class="cls-94" d="M310.94,283.2c-4.82-10-9.91-19.86-14.48-30q-7.11-15.78-13-32.11A419.22,419.22,0,0,1,266,157q-3.46-18.43-5.17-37.12c0-.16-.27-.16-.25,0a417.61,417.61,0,0,0,33.56,128.77c5.12,11.74,11,23.13,16.54,34.64.07.15.29,0,.22-.12Z"/><path class="cls-95" d="M312,285.15c-20.78-41.55-36.23-85.29-43.45-131.3q-3.07-19.53-4.19-39.3c0-.16-.26-.16-.25,0a415.93,415.93,0,0,0,31.54,135.82c4.92,11.82,10.41,23.46,16.13,34.91.07.14.29,0,.22-.13Z"/><path class="cls-96" d="M313.11,287.11c-21.49-43.41-36.21-89.87-42.21-138q-2.47-19.87-3-39.93a.13.13,0,0,0-.25,0,416.34,416.34,0,0,0,29.09,141.88c4.85,12.28,10.29,24.34,16.15,36.17.07.14.29,0,.21-.13Z"/><path class="cls-97" d="M314.2,289.07a417.14,417.14,0,0,1-42.77-185.23.13.13,0,1,0-.25,0A417.45,417.45,0,0,0,314,289.19c.07.15.28,0,.21-.12Z"/><path class="cls-98" d="M316.89,291.67c-10.12-22.23-19.5-44.54-26.2-68.08a408,408,0,0,1-13.58-73q-2-21.21-2-42.52a.13.13,0,0,0-.25,0c-.1,49.79,8.08,99.69,25.7,146.33,4.8,12.72,10.45,25.06,16.08,37.42.06.15.28,0,.21-.12Z"/><path class="cls-99" d="M319.6,294.3c-4.54-11-9.78-21.62-14.15-32.66S297.27,239.39,294,228a397.83,397.83,0,0,1-13.29-73.35q-1.92-21.15-1.86-42.4a.13.13,0,1,0-.25,0c-.09,49.15,7.25,98.59,24.73,144.66,4.82,12.72,10.82,24.89,16,37.45.07.15.31.09.25-.06Z"/><path class="cls-100" d="M322.29,296.9c-4-11-9.57-21.4-13.92-32.29A336.14,336.14,0,0,1,297,231.06a388.8,388.8,0,0,1-12.62-72.31q-1.82-21.09-1.77-42.3a.13.13,0,0,0-.25,0c-.06,48.83,6.54,98.12,24.09,143.88,4.76,12.41,11.11,24.16,15.62,36.63.06.15.3.09.25-.06Z"/><path class="cls-101" d="M325,299.5a103.31,103.31,0,0,0-6.26-14.93q-4-8.38-7.44-17A314.44,314.44,0,0,1,300.18,235c-6.65-23.71-10.3-48.14-12.25-72.66q-1.67-20.81-1.63-41.7a.13.13,0,0,0-.25,0C286,169,291.82,218,309.33,263.32q3.36,8.69,7.22,17.16c2.89,6.34,6.19,12.39,8.19,19.08a.12.12,0,0,0,.24-.06Z"/><path class="cls-102" d="M327.67,302.1c-1.16-5.3-3.59-9.68-5.93-14.53q-4-8.24-7.43-16.69a294.88,294.88,0,0,1-11-32.07c-6.59-23.6-10-47.95-11.79-72.35Q290,145.7,290,124.86a.13.13,0,0,0-.25,0c0,48,5.06,96.83,22.61,141.83q3.33,8.55,7.19,16.87c2.84,6.14,6.41,11.94,7.86,18.6,0,.16.27.1.24-.06Z"/><path class="cls-103" d="M330.36,304.73a20.21,20.21,0,0,0-1.09-5.33c-1.12-2.77-2.84-5.41-4.17-8.09q-4-8.18-7.53-16.59a279,279,0,0,1-11-32c-6.55-23.55-9.67-47.87-11.37-72.21q-1.46-20.72-1.43-41.49a.13.13,0,0,0-.25,0c0,47.38,4.29,95.74,21.62,140.21q3.33,8.52,7.2,16.81c2.81,6,7.06,12,7.8,18.64,0,.16.27.16.25,0Z"/><path class="cls-104" d="M333.05,307.33a10.07,10.07,0,0,0-.78-5.05c-1.29-2.73-2.86-5.35-4.22-8q-3.87-7.71-7.23-15.68a260.64,260.64,0,0,1-11.19-32.26C303.23,223,300.39,199,298.81,175q-1.37-20.85-1.35-41.76a.13.13,0,0,0-.25,0c0,47.07,3.6,95.28,21,139.46q3.33,8.49,7.26,16.73,1.95,4.11,4.05,8.14c.7,1.34,1.44,2.66,2.13,4a10.36,10.36,0,0,1,1.18,5.72.13.13,0,0,0,.25,0Z"/><path class="cls-105" d="M335.74,310c.41-1.59.66-2.58-.05-4-1.32-2.7-2.91-5.29-4.28-8q-3.74-7.26-7-14.76A249.25,249.25,0,0,1,313,250.68c-6.44-23.33-9.05-47.45-10.52-71.55q-1.26-20.81-1.26-41.65a.13.13,0,0,0-.25,0c0,46.59,2.89,94.51,20.15,138.28q3.35,8.46,7.29,16.66c1.31,2.73,2.67,5.42,4.09,8.1q1.05,2,2.15,4c1.11,2,1.5,3.1.9,5.4a.13.13,0,0,0,.24.07Z"/><path class="cls-106" d="M338.42,312.6c.87-1.35,1.42-1.65.7-3-1.44-2.64-3-5.24-4.36-7.91q-3.79-7.2-7.07-14.66a235.75,235.75,0,0,1-11.53-32.42c-6.41-23.28-8.77-47.37-10.11-71.41q-1.16-20.76-1.16-41.55a.13.13,0,0,0-.25,0c0,46.28,2.22,94,19.49,137.53q3.27,8.22,7.15,16.19,2,4.07,4.11,8.05,1.17,2.19,2.4,4.35c1,1.78,1.63,2.78.41,4.67-.09.14.13.26.22.13Z"/><path class="cls-107" d="M341.06,315.24a5.39,5.39,0,0,1,1.87-1,.13.13,0,0,0,.07-.19,225.48,225.48,0,0,1-24.79-59.85c-5.69-22.51-7.52-45.75-8.63-68.87q-1-19.73-1-39.47a.13.13,0,0,0-.25,0c0,24.2.79,48.54,3.4,72.61,2.45,22.61,7.48,44.76,16.11,65.85q3.44,8.37,7.52,16.45,2,4,4.24,8c.74,1.3,1.53,2.58,2.24,3.9.94,1.75.53,1.36-.93,2.37-.14.09,0,.3.12.21Z"/><path class="cls-108" d="M343.72,317.86l2.55.07a.13.13,0,0,0,.17-.17,214.56,214.56,0,0,1-24.93-59.24c-5.66-22.41-7.27-45.55-8.28-68.57q-.89-19.92-.9-39.86a.13.13,0,0,0-.25,0c0,24.46.65,49.07,3.19,73.41,2.36,22.69,7.45,44.87,16.34,65.93q3.54,8.4,7.81,16.5,2.16,4.13,4.52,8.15c.28.48,2.18,3.08,2,3.4.11-.21-2.36.15-2.3.13-.16,0-.09.28.06.25Z"/><path class="cls-109" d="M346.38,320.46a4.67,4.67,0,0,1,3.29,1.12c.1.09.28,0,.2-.15a205.06,205.06,0,0,1-25.15-58.94c-5.6-22.37-7-45.48-7.87-68.43q-.77-19.87-.8-39.76a.13.13,0,0,0-.25,0c0,24.71.51,49.59,3,74.19,2.26,22.63,7.38,44.73,16.43,65.63q3.71,8.56,8.18,16.75c1.55,2.84,3.18,5.66,4.87,8.43a8,8,0,0,1,.93,1.5c0,.49.62.06-.19-.08a12.7,12.7,0,0,0-2.61-.51.13.13,0,0,0,0,.25Z"/><path class="cls-110" d="M349,323.06a6.6,6.6,0,0,1,4.07,2.19c.09.11.27,0,.19-.15a196.16,196.16,0,0,1-25.36-58.64c-5.56-22.33-6.67-45.4-7.46-68.3q-.68-19.82-.72-39.66a.13.13,0,0,0-.25,0c.06,24.65.38,49.47,2.65,74,2.1,22.59,7.14,44.64,16.28,65.46q3.74,8.5,8.27,16.64,2.37,4.25,5,8.36a8.26,8.26,0,0,1,.94,1.49c0,.11,1,.41-.24-.34a8.77,8.77,0,0,0-3.27-1.32c-.15,0-.22.21-.06.24Z"/><path class="cls-111" d="M351.73,325.66a9,9,0,0,1,4.79,3.23c.09.13.31,0,.22-.12a187.87,187.87,0,0,1-25.48-57.92c-5.57-22.3-6.46-45.37-7.14-68.24q-.6-20-.64-39.9a.13.13,0,0,0-.25,0c.07,25.06.2,50.32,2.46,75.29,2.05,22.65,7.24,44.73,16.72,65.46q3.84,8.43,8.52,16.46c.82,1.39,1.65,2.78,2.5,4.15.63,1,1.62,3.39,2.61,4.09.73.52-.84-1-.81-1a9.52,9.52,0,0,0-3.44-1.72c-.15-.05-.22.19-.06.24Z"/><path class="cls-112" d="M354.42,328.26a11.88,11.88,0,0,1,5.53,4.31c.09.13.31,0,.22-.13a180.16,180.16,0,0,1-25.59-57.19c-5.61-22.4-6.27-45.58-6.84-68.54q-.48-19.89-.54-39.8a.13.13,0,0,0-.25,0c.07,25.33,0,50.89,2.21,76.14,2,22.7,7.29,44.81,17,65.46a180.55,180.55,0,0,0,9,16.67c.45.73,4.51,6.73,4.55,6.66.58-.84-4.71-3.6-5.26-3.82-.15-.06-.21.18-.06.24Z"/><path class="cls-113" d="M357.08,330.85a15.58,15.58,0,0,1,3.87,2.51c.45.4,2.22,2.38,2.16,2-.16-.93-1.68-2.47-2.18-3.24-.87-1.33-1.73-2.67-2.56-4q-4.11-6.64-7.59-13.65A173.7,173.7,0,0,1,339,283.72c-6.41-23.11-7.07-47.1-7.56-70.93q-.42-20.83-.49-41.67a.13.13,0,0,0-.25,0c.08,23.82,0,47.78,1.55,71.57,1.41,21.51,5.52,42.55,14,62.45a173.65,173.65,0,0,0,17.19,31.1c.09.13.3,0,.21-.13a15.53,15.53,0,0,0-6.4-5.48c-.14-.07-.27.15-.12.22Z"/><path class="cls-114" d="M359.77,333.45a18.66,18.66,0,0,1,5.78,4.67c2.2,2.72-.06-.53-.5-1.17-.81-1.19-1.61-2.4-2.4-3.61q-4.33-6.72-8-13.86a166.37,166.37,0,0,1-12.22-31c-6.59-23.33-7-47.55-7.39-71.62q-.31-20.77-.38-41.57a.13.13,0,0,0-.25,0c.08,23.77-.13,47.66,1.25,71.4,1.24,21.48,5.25,42.47,13.78,62.31a167.2,167.2,0,0,0,17.4,30.88c.09.13.3,0,.21-.13a19,19,0,0,0-7.14-6.55c-.14-.08-.26.14-.12.22Z"/><path class="cls-115" d="M362.46,336.05a22.34,22.34,0,0,1,6,5,11.92,11.92,0,0,0,1.45,1.79,7.12,7.12,0,0,0-.95-1.49q-1.24-1.75-2.45-3.56a159.76,159.76,0,0,1-20.65-44.49c-6.73-23.39-7-47.68-7.21-71.82q-.19-21-.29-41.95a.13.13,0,0,0-.25,0c.1,23.71-.25,47.54.95,71.22,1.09,21.45,5,42.39,13.59,62.16a161.24,161.24,0,0,0,17.61,30.67c.09.13.31,0,.22-.13a22.9,22.9,0,0,0-7.88-7.62.13.13,0,0,0-.13.22Z"/><path class="cls-116" d="M365.15,338.65a26.07,26.07,0,0,1,6.18,5.29c.14.17,2.84,4.05,1.54,1.8-.71-1.23-1.69-2.34-2.5-3.51a152.18,152.18,0,0,1-8.59-14,154.71,154.71,0,0,1-12.73-31c-6.67-23.19-6.69-47.26-6.79-71.18q-.09-21.16-.19-42.34a.13.13,0,0,0-.25,0c.11,23.66-.39,47.42.64,71.06.93,21.41,4.74,42.31,13.41,62a155.16,155.16,0,0,0,17.82,30.46c.09.13.3,0,.21-.13a27,27,0,0,0-8.62-8.69c-.14-.09-.27.13-.13.22Z"/><path class="cls-117" d="M369.9,343.17a22.38,22.38,0,0,1,5.89,5.08,13.23,13.23,0,0,0,1.4,1.81,9.71,9.71,0,0,0-1-1.46c-.84-1.17-1.67-2.34-2.49-3.53a154.67,154.67,0,0,1-20.87-44.37c-6.72-23.25-6.85-47.39-7-71.39q-.16-20.81-.27-41.63a.13.13,0,0,0-.25,0c.14,23.54-.28,47.17.84,70.68,1,21.38,4.89,42.26,13.54,61.93a155,155,0,0,0,17.86,30.52c.09.12.3,0,.22-.13A23,23,0,0,0,370,343c-.14-.08-.26.13-.13.22Z"/><path class="cls-118" d="M374.66,347.69a19.6,19.6,0,0,1,3.83,2.88c.59.59,2.53,2.28,2.51,3.1,0-.71-1.19-1.9-1.68-2.57-.83-1.18-1.66-2.36-2.46-3.56a152.48,152.48,0,0,1-8.22-13.74,156.91,156.91,0,0,1-12.22-30.48c-6.46-22.76-6.75-46.39-7-69.87q-.23-20.91-.37-41.82a.13.13,0,0,0-.25,0c.18,23.73-.21,47.57,1.1,71.27,1.16,21.16,5.19,41.84,13.81,61.29a154.3,154.3,0,0,0,17.72,30.17c.09.13.3,0,.21-.12a19.32,19.32,0,0,0-6.85-6.77c-.13-.08-.26.14-.12.22Z"/><path class="cls-119" d="M379.41,352.21a15.73,15.73,0,0,1,3.63,2.7c.53.55.92,1.15,1.43,1.73,0,0,.72.92.51.47a22.17,22.17,0,0,0-2.27-3.12c-.82-1.17-1.63-2.35-2.42-3.53a153.41,153.41,0,0,1-8.08-13.65,157.8,157.8,0,0,1-12-30.21c-6.42-22.61-6.86-46.09-7.19-69.42q-.3-20.81-.46-41.6c0-.16-.26-.16-.25,0,.22,23.6-.1,47.32,1.3,70.89,1.26,21.12,5.34,41.78,13.94,61.2a154,154,0,0,0,17.76,30.25.13.13,0,0,0,.22-.13,15.73,15.73,0,0,0-6-5.8c-.14-.07-.27.14-.13.22Z"/><path class="cls-120" d="M384.17,356.73a12.18,12.18,0,0,1,3.41,2.55c.31.34,1.26,2.1,1.27,1.39a8.22,8.22,0,0,0-1-1.39q-2.4-3.28-4.62-6.71-4.21-6.49-7.75-13.38a159.48,159.48,0,0,1-11.7-30c-6.31-22.57-6.8-46-7.21-69.3-.23-13.46-.38-26.93-.53-40.39a.13.13,0,0,0-.25,0c.26,23.47,0,47.07,1.52,70.5,1.35,21.1,5.48,41.74,14.07,61.14a153.65,153.65,0,0,0,17.8,30.31c.09.12.3,0,.21-.13a12.17,12.17,0,0,0-5.07-4.83c-.14-.08-.26.14-.12.21Z"/><path class="cls-121" d="M388.92,361.25a11.89,11.89,0,0,1,3.32,2.6c1.41,1.37-.82-1.38-1.06-1.71q-2.26-3.13-4.37-6.39a153.41,153.41,0,0,1-7.91-13.81,160.94,160.94,0,0,1-11.47-29.68c-6.2-22.35-6.84-45.55-7.31-68.6-.28-13.39-.45-26.79-.62-40.18,0-.17-.26-.17-.25,0,.29,23.35.12,46.82,1.72,70.12,1.44,21.07,5.63,41.7,14.21,61.07A153.87,153.87,0,0,0,393,365c.1.13.3,0,.22-.12a8.92,8.92,0,0,0-4.18-3.87c-.15-.07-.27.15-.13.21Z"/><path class="cls-122" d="M393.71,365.79s3.14,2,2.81,2.15c.32-.17-.55-1-.72-1.2-.77-1-1.52-2.09-2.26-3.15q-2.22-3.19-4.26-6.48-4-6.42-7.32-13.2a163.69,163.69,0,0,1-11-29c-6-22-6.77-44.89-7.31-67.59-.32-13.29-.52-26.58-.71-39.87a.13.13,0,0,0-.25,0c.34,23.55.21,47.23,2,70.73,1.59,20.84,5.9,41.26,14.44,60.41a153.36,153.36,0,0,0,17.7,30,.12.12,0,0,0,.21-.13,6,6,0,0,0-3.32-2.91c-.15-.06-.21.18-.06.24Z"/><path class="cls-123" d="M398.46,370.31c-2.85-.81,2,.86,2,1,.06-.2-1.11-1.49-1.29-1.73-.68-.93-1.34-1.87-2-2.82-1.55-2.25-3-4.54-4.48-6.87q-3.84-6.27-7.07-12.88a165.18,165.18,0,0,1-10.91-29.12c-5.93-21.81-6.82-44.42-7.43-66.89-.36-13.21-.58-26.43-.79-39.65,0-.16-.26-.16-.25,0,.38,23.42.32,47,2.21,70.34,1.69,20.81,6.05,41.22,14.58,60.35a153,153,0,0,0,17.73,30.09A.13.13,0,0,0,401,372a3.48,3.48,0,0,0-2.43-1.95c-.16-.05-.22.2-.07.24Z"/><path class="cls-124" d="M403.25,374.83c1.92.1.78.15.53-.63a8.12,8.12,0,0,0-1.27-1.75c-.68-.94-1.34-1.88-2-2.83-1.47-2.14-2.88-4.33-4.23-6.54q-3.94-6.48-7.23-13.32a166.56,166.56,0,0,1-10.8-29.24c-5.79-21.61-6.77-44-7.44-66.25-.4-13-.64-26-.87-39a.13.13,0,0,0-.25,0c.42,23.3.44,46.72,2.43,69.95,1.78,20.79,6.19,41.18,14.71,60.29a152.44,152.44,0,0,0,17.77,30.14c.07.11.28.05.23-.09a1.49,1.49,0,0,0-1.59-1,.13.13,0,0,0,0,.25Z"/><path class="cls-125" d="M408.07,379.34c.79-.39-3.19-5.43-3.65-6.1q-2.18-3.18-4.19-6.48-3.92-6.4-7.19-13.17a169.46,169.46,0,0,1-10.8-28.93c-5.94-21.72-7.1-44.26-7.85-66.65-.44-12.91-.7-25.83-.95-38.74,0-.16-.26-.16-.25,0,.46,23.34.54,46.81,2.68,70.07,1.91,20.72,6.43,41.05,15,60.09a152.57,152.57,0,0,0,17.64,29.83c.08.1.28.05.23-.09l-.07-.22a.12.12,0,0,0-.18-.07l-.51.24c-.14.07,0,.29.13.22Z"/><path class="cls-126" d="M412.88,383.75c.14-1.34-1.12-2.09-1.87-3.12-1.53-2.07-3-4.19-4.41-6.34a149.5,149.5,0,0,1-7.8-13.35A167.32,167.32,0,0,1,387,331.42c-6.52-22-8.07-45-9-67.8-.53-13.47-.82-26.94-1.11-40.4a.13.13,0,0,0-.25,0c1,44.31-.2,90.58,18.89,131.67a155,155,0,0,0,8.07,15.17q2.34,3.85,4.92,7.56c.81,1.17,1.65,2.33,2.5,3.48.45.61,1.68,1.74,1.58,2.65,0,.16.24.16.25,0Z"/><path class="cls-127" d="M417.63,388.24c-.58-1.84-2.15-3.21-3.27-4.75q-2.28-3.12-4.38-6.38a151.24,151.24,0,0,1-7.73-13.41,168.81,168.81,0,0,1-11.58-29.24c-6.42-21.81-8.1-44.5-9.07-67.11-.56-13.39-.88-26.79-1.19-40.19,0-.16-.26-.16-.25,0,1,44.2.21,90.28,19.23,131.24a155.68,155.68,0,0,0,8.09,15.2q2.34,3.86,4.92,7.57c.82,1.17,1.65,2.34,2.51,3.49s2.06,2.3,2.48,3.65c.05.15.29.08.24-.07Z"/><path class="cls-128" d="M422.38,392.73c-1.1-2.09-2.77-3.78-4.16-5.68-1.52-2.09-3-4.22-4.39-6.39a154.65,154.65,0,0,1-7.75-13.45,170.34,170.34,0,0,1-11.61-29.3c-6.41-21.72-8.25-44.31-9.29-66.84-.61-13.31-.95-26.63-1.29-40a.13.13,0,0,0-.25,0c1.13,44.66.66,91.15,20.31,132.36a153,153,0,0,0,8.28,15.13q2.28,3.66,4.77,7.17c1.65,2.33,3.84,4.57,5.16,7.09.07.14.29,0,.22-.13Z"/><path class="cls-129" d="M427.13,397.25c-2.76-4.26-6.18-8.07-9-12.33a151.06,151.06,0,0,1-7.84-13.42,170.69,170.69,0,0,1-11.78-29.3c-6.6-21.88-8.64-44.67-9.77-67.4-.66-13.24-1-26.49-1.38-39.74,0-.16-.26-.16-.25,0,1.21,44.82,1.09,91.45,21,132.69a152.43,152.43,0,0,0,8.37,15.12q2.31,3.64,4.83,7.16c1.79,2.49,3.89,4.78,5.55,7.35.09.13.31,0,.22-.13Z"/><path class="cls-130" d="M431.88,401.77c-3.11-4.23-6.49-8.2-9.4-12.58a150.62,150.62,0,0,1-7.93-13.4,171.48,171.48,0,0,1-12.09-29.72c-6.69-21.91-8.9-44.76-10.12-67.54-.71-13.16-1.1-26.34-1.48-39.52a.13.13,0,0,0-.25,0c1.3,44.83,1.53,91.44,21.57,132.64a151.29,151.29,0,0,0,8.66,15.49c3.32,5.18,7.2,9.82,10.83,14.76.09.13.31,0,.21-.13Z"/><path class="cls-131" d="M436.62,406.27c-6.79-8.5-13-17-18.1-26.71a173.32,173.32,0,0,1-12.06-29.4c-6.73-21.72-9.17-44.38-10.49-67-.79-13.39-1.21-26.8-1.63-40.21a.13.13,0,0,0-.25,0c1.41,45.24,2,92.28,22.65,133.67,5.4,10.83,12.18,20.39,19.7,29.82.1.12.28-.05.18-.18Z"/><path class="cls-132" d="M441.37,410.79a161.19,161.19,0,0,1-30.85-56.35c-6.85-21.72-9.51-44.4-10.94-67.05-.86-13.48-1.31-27-1.75-40.49,0-.16-.26-.16-.25,0,1.49,45.4,2.45,92.59,23.38,134A153.18,153.18,0,0,0,441.2,411c.1.12.28-.06.17-.18Z"/><path class="cls-133" d="M446.13,415.31c-14.47-16.3-24.7-35.47-31.4-56.17-7.12-22-10-45-11.57-68-.91-13.4-1.38-26.83-1.85-40.26a.13.13,0,0,0-.25,0c1.6,45.81,2.93,93.52,24.52,135.11A144.69,144.69,0,0,0,446,415.49c.11.12.29-.06.18-.18Z"/><path class="cls-134" d="M450.88,419.84c-31.25-34-40.94-80.3-44.14-125-1-13.32-1.45-26.68-1.94-40,0-.16-.26-.16-.25,0,1.69,45.81,3.38,93.54,25.06,135.06A140.39,140.39,0,0,0,450.71,420c.11.12.28-.06.17-.17Z"/><path class="cls-135" d="M455.64,424.36c-31.47-33.25-41.66-79.71-45.17-123.95-1.1-13.86-1.65-27.77-2.19-41.66a.13.13,0,0,0-.25,0c1.81,46.48,3.91,95.11,26.64,136.92a136.85,136.85,0,0,0,20.79,28.86c.11.12.29-.06.18-.17Z"/><path class="cls-136" d="M457.38,425.68c-30.51-34-41.83-80.06-45.37-124.49-1.09-13.66-1.56-27.36-1.94-41.06,0-.16-.26-.16-.25,0,1.28,46.52,4.47,94.29,26.82,136.16a149.18,149.18,0,0,0,20.57,29.57c.1.12.28-.06.17-.18Z"/><path class="cls-137" d="M459.13,427c-29.47-34.49-41.91-80.15-45.54-124.55-1.11-13.62-1.53-27.29-1.74-40.95a.13.13,0,0,0-.25,0c.39,24.76,1.44,49.64,6.1,74a221.64,221.64,0,0,0,21.06,61.71A162,162,0,0,0,459,427.18c.11.13.28-.05.18-.17Z"/><path class="cls-138" d="M460.87,428.33c-28.58-35.07-42.09-80.57-45.76-125.09-1.11-13.42-1.44-26.89-1.48-40.35a.13.13,0,0,0-.25,0c.07,24.39,1.13,48.91,5.94,72.88A235.59,235.59,0,0,0,440.7,397.9a178.21,178.21,0,0,0,20,30.61c.1.12.27-.06.17-.18Z"/><path class="cls-139" d="M462.62,429.65c-27.73-35.6-42.22-81.06-46-125.66-1.11-13.21-1.39-26.47-1.24-39.72a.13.13,0,0,0-.25,0c-.27,24,.86,48.21,5.81,71.77a252.27,252.27,0,0,0,21.68,62.55,195.83,195.83,0,0,0,19.79,31.24c.1.13.28-.05.18-.18Z"/><path class="cls-140" d="M464.38,431a226.77,226.77,0,0,1-30.75-57.86,265.23,265.23,0,0,1-15.36-67.44,345.37,345.37,0,0,1-1.08-40.05c0-.16-.24-.16-.25,0-.64,24,.64,48.09,5.9,71.52a271.39,271.39,0,0,0,21.71,62,212.44,212.44,0,0,0,19.62,31.94c.09.13.31,0,.21-.13Z"/><path class="cls-141" d="M466.13,432.33a246.33,246.33,0,0,1-30.6-58.79c-7.92-21.6-13.59-44.16-15.72-67.09A288.16,288.16,0,0,1,419,267a.13.13,0,0,0-.25,0c-1,23.7.45,47.56,5.88,70.68a291.45,291.45,0,0,0,22.08,62.59,232.77,232.77,0,0,0,19.22,32.16c.1.13.31,0,.22-.13Z"/><path class="cls-142" d="M467.87,433.65a267.94,267.94,0,0,1-30.28-59.27c-7.9-21.46-13.93-43.92-16.19-66.72a243.69,243.69,0,0,1-.64-39.24c0-.17-.24-.16-.25,0a234.51,234.51,0,0,0,5.88,69.81A310.7,310.7,0,0,0,448.64,401a252.62,252.62,0,0,0,19,32.75c.09.13.31,0,.21-.13Z"/><path class="cls-143" d="M469.62,435a290.57,290.57,0,0,1-29.93-59.64C431.8,354,425.43,331.57,423,308.87a207.31,207.31,0,0,1-.46-39.07c0-.16-.24-.16-.25,0a213,213,0,0,0,6,69.37,332.47,332.47,0,0,0,22.42,62.9,276.61,276.61,0,0,0,18.69,33c.09.14.31,0,.22-.12Z"/><path class="cls-144" d="M471.36,436.3a315.34,315.34,0,0,1-29.6-60.07c-7.87-21.25-14.52-43.6-17.14-66.16a176.82,176.82,0,0,1-.3-38.89c0-.16-.23-.16-.25,0-2.45,23.3.34,46.4,6.17,69a354.23,354.23,0,0,0,22.41,62.65,300.48,300.48,0,0,0,18.5,33.6c.08.13.3,0,.21-.13Z"/><path class="cls-145" d="M473.11,437.63a342.08,342.08,0,0,1-29.24-60.42C436,356,429.1,333.72,426.25,311.26a151.45,151.45,0,0,1-.14-38.7c0-.16-.23-.16-.25,0-3,23.2.39,46.14,6.33,68.58a379.37,379.37,0,0,0,22.52,62.75,328.76,328.76,0,0,0,18.18,33.86.13.13,0,0,0,.22-.12Z"/><path class="cls-146" d="M474.85,439A372.83,372.83,0,0,1,446,378.14q-5.79-15.57-10.3-31.6a262.67,262.67,0,0,1-7.54-32.74,131,131,0,0,1-.23-39.83c0-.16-.21-.22-.24-.06-3.63,22.79.38,45.4,6.32,67.43a405.27,405.27,0,0,0,22.68,63.34,359.15,359.15,0,0,0,18,34.4.12.12,0,0,0,.21-.13Z"/><path class="cls-147" d="M476.6,440.28a405,405,0,0,1-28.55-61.13q-5.79-15.6-10.38-31.62A282.92,282.92,0,0,1,429.82,315c-2.15-13.08-2.66-26.53-.16-39.6,0-.15-.21-.22-.24-.06-4.33,22.6.53,45.24,6.52,67a436,436,0,0,0,22.74,63.43q8,17.75,17.7,34.64c.08.14.3,0,.22-.12Z"/><path class="cls-148" d="M478.34,441.6a440.31,440.31,0,0,1-28.2-61.47q-5.83-15.75-10.52-31.87a311.28,311.28,0,0,1-8.14-32.64c-2.29-12.82-3-26.12,0-38.89,0-.15-.21-.22-.24-.06-5,22.08.59,44.61,6.52,65.9A468.86,468.86,0,0,0,460.79,407q7.89,17.75,17.34,34.73c.08.14.29,0,.21-.13Z"/><path class="cls-149" d="M480.09,442.93a480.28,480.28,0,0,1-27.85-61.78c-7.71-20.89-14.68-42.54-19-64.42-2.5-12.68-3.44-26,0-38.61,0-.16-.2-.23-.24-.07-5.89,21.7.83,44.6,6.76,65.54a503.13,503.13,0,0,0,23.07,64.5q7.8,17.84,17.05,35c.08.14.3,0,.22-.12Z"/><path class="cls-150" d="M481.83,444.25a523.89,523.89,0,0,1-27.66-62.52C446.44,360.67,439.54,339,434.9,317c-2.59-12.28-3.79-25.36.11-37.5.05-.16-.19-.22-.24-.07-3.26,10.15-2.94,21-1.27,31.41,1.79,11.16,5,22.17,8.07,33a541.18,541.18,0,0,0,23.17,65.07q7.75,18,16.88,35.44c.07.14.29,0,.21-.13Z"/><path class="cls-151" d="M483.58,445.58A562.87,562.87,0,0,1,436.75,318c-2.8-12.08-4.47-25.22,0-37.1.06-.15-.18-.22-.24-.07-3.77,9.94-3.2,20.81-1.32,31.1,2,11.13,5.23,22.13,8.38,33a582.26,582.26,0,0,0,23.15,65.15q7.68,18.12,16.6,35.65c.08.15.29,0,.22-.12Z"/><path class="cls-152" d="M485.33,446.9A628,628,0,0,1,438.64,319c-2.92-11.87-5.3-25.07-.08-36.66.07-.15-.15-.28-.21-.13-4.14,9.19-3.51,19.51-1.66,29.19,2.18,11.42,5.5,22.71,8.76,33.87a630.81,630.81,0,0,0,23.39,66.1q7.56,18.1,16.27,35.71c.07.14.29,0,.22-.13Z"/><path class="cls-153" d="M487.07,448.22A685.61,685.61,0,0,1,440.36,319.1c-2.88-11.41-5.92-24.45,0-35.43.08-.14-.13-.27-.21-.13-4.65,8.65-3.74,18.75-1.81,28,2.37,11.38,5.68,22.64,9,33.79a685.46,685.46,0,0,0,23.57,67.09q7.48,18.18,16,35.9c.07.15.29,0,.22-.13Z"/><path class="cls-154" d="M488.82,449.55a741.52,741.52,0,0,1-46.73-130.27c-2.8-10.94-6.62-23.93,0-34.23.08-.14-.13-.26-.22-.13-5.18,8-4,17.91-2,26.76,2.59,11.44,5.84,22.78,9.16,34q10.17,34.37,23.63,67.64,7.44,18.38,15.85,36.33c.07.14.28,0,.22-.13Z"/></g></svg>
