<svg id="Lag_1" data-name="Lag 1" xmlns="http://www.w3.org/2000/svg" xmlns:xlink="http://www.w3.org/1999/xlink" width="96.11mm" height="160.01mm" viewBox="0 0 272.45 453.58"><defs><style>.cls-1{opacity:0.5;}.cls-2{fill:url(#Ikke-navngivet_forløb_61);}.cls-3{fill:url(#Ikke-navngivet_forløb_61-2);}.cls-4{fill:url(#Ikke-navngivet_forløb_61-3);}.cls-5{fill:url(#Ikke-navngivet_forløb_61-4);}.cls-6{fill:url(#Ikke-navngivet_forløb_61-5);}.cls-7{fill:url(#Ikke-navngivet_forløb_61-6);}.cls-8{fill:url(#Ikke-navngivet_forløb_61-7);}.cls-9{fill:url(#Ikke-navngivet_forløb_61-8);}.cls-10{fill:url(#Ikke-navngivet_forløb_61-9);}.cls-11{fill:url(#Ikke-navngivet_forløb_61-10);}.cls-12{fill:url(#Ikke-navngivet_forløb_61-11);}.cls-13{fill:url(#Ikke-navngivet_forløb_61-12);}.cls-14{fill:url(#Ikke-navngivet_forløb_61-13);}.cls-15{fill:url(#Ikke-navngivet_forløb_61-14);}.cls-16{fill:url(#Ikke-navngivet_forløb_61-15);}.cls-17{fill:url(#Ikke-navngivet_forløb_61-16);}.cls-18{fill:url(#Ikke-navngivet_forløb_61-17);}.cls-19{fill:url(#Ikke-navngivet_forløb_61-18);}.cls-20{fill:url(#Ikke-navngivet_forløb_61-19);}.cls-21{fill:url(#Ikke-navngivet_forløb_61-20);}.cls-22{fill:url(#Ikke-navngivet_forløb_61-21);}.cls-23{fill:url(#Ikke-navngivet_forløb_61-22);}.cls-24{fill:url(#Ikke-navngivet_forløb_61-23);}.cls-25{fill:url(#Ikke-navngivet_forløb_61-24);}.cls-26{fill:url(#Ikke-navngivet_forløb_61-25);}.cls-27{fill:url(#Ikke-navngivet_forløb_61-26);}.cls-28{fill:url(#Ikke-navngivet_forløb_61-27);}.cls-29{fill:url(#Ikke-navngivet_forløb_61-28);}.cls-30{fill:url(#Ikke-navngivet_forløb_61-29);}.cls-31{fill:url(#Ikke-navngivet_forløb_61-30);}.cls-32{fill:url(#Ikke-navngivet_forløb_61-31);}.cls-33{fill:url(#Ikke-navngivet_forløb_61-32);}.cls-34{fill:url(#Ikke-navngivet_forløb_61-33);}.cls-35{fill:url(#Ikke-navngivet_forløb_61-34);}.cls-36{fill:url(#Ikke-navngivet_forløb_61-35);}.cls-37{fill:url(#Ikke-navngivet_forløb_61-36);}.cls-38{fill:url(#Ikke-navngivet_forløb_61-37);}.cls-39{fill:url(#Ikke-navngivet_forløb_61-38);}.cls-40{fill:url(#Ikke-navngivet_forløb_61-39);}.cls-41{fill:url(#Ikke-navngivet_forløb_61-40);}.cls-42{fill:url(#Ikke-navngivet_forløb_61-41);}.cls-43{fill:url(#Ikke-navngivet_forløb_61-42);}.cls-44{fill:url(#Ikke-navngivet_forløb_61-43);}.cls-45{fill:url(#Ikke-navngivet_forløb_61-44);}.cls-46{fill:url(#Ikke-navngivet_forløb_61-45);}.cls-47{fill:url(#Ikke-navngivet_forløb_61-46);}.cls-48{fill:url(#Ikke-navngivet_forløb_61-47);}.cls-49{fill:url(#Ikke-navngivet_forløb_61-48);}.cls-50{fill:url(#Ikke-navngivet_forløb_61-49);}.cls-51{fill:url(#Ikke-navngivet_forløb_61-50);}.cls-52{fill:url(#Ikke-navngivet_forløb_61-51);}.cls-53{fill:url(#Ikke-navngivet_forløb_61-52);}.cls-54{fill:url(#Ikke-navngivet_forløb_61-53);}.cls-55{fill:url(#Ikke-navngivet_forløb_61-54);}.cls-56{fill:url(#Ikke-navngivet_forløb_61-55);}.cls-57{fill:url(#Ikke-navngivet_forløb_61-56);}.cls-58{fill:url(#Ikke-navngivet_forløb_61-57);}.cls-59{fill:url(#Ikke-navngivet_forløb_61-58);}.cls-60{fill:url(#Ikke-navngivet_forløb_61-59);}.cls-61{fill:url(#Ikke-navngivet_forløb_61-60);}.cls-62{fill:url(#Ikke-navngivet_forløb_61-61);}.cls-63{fill:url(#Ikke-navngivet_forløb_61-62);}.cls-64{fill:url(#Ikke-navngivet_forløb_61-63);}.cls-65{fill:url(#Ikke-navngivet_forløb_61-64);}.cls-66{fill:url(#Ikke-navngivet_forløb_61-65);}.cls-67{fill:url(#Ikke-navngivet_forløb_61-66);}.cls-68{fill:url(#Ikke-navngivet_forløb_61-67);}.cls-69{fill:url(#Ikke-navngivet_forløb_61-68);}.cls-70{fill:url(#Ikke-navngivet_forløb_61-69);}.cls-71{fill:url(#Ikke-navngivet_forløb_61-70);}.cls-72{fill:url(#Ikke-navngivet_forløb_61-71);}.cls-73{fill:url(#Ikke-navngivet_forløb_61-72);}.cls-74{fill:url(#Ikke-navngivet_forløb_61-73);}.cls-75{fill:url(#Ikke-navngivet_forløb_61-74);}.cls-76{fill:url(#Ikke-navngivet_forløb_61-75);}.cls-77{fill:url(#Ikke-navngivet_forløb_61-76);}.cls-78{fill:url(#Ikke-navngivet_forløb_61-77);}.cls-79{fill:url(#Ikke-navngivet_forløb_61-78);}.cls-80{fill:url(#Ikke-navngivet_forløb_61-79);}.cls-81{fill:url(#Ikke-navngivet_forløb_61-80);}.cls-82{fill:url(#Ikke-navngivet_forløb_61-81);}.cls-83{fill:url(#Ikke-navngivet_forløb_61-82);}.cls-84{fill:url(#Ikke-navngivet_forløb_61-83);}.cls-85{fill:url(#Ikke-navngivet_forløb_61-84);}.cls-86{fill:url(#Ikke-navngivet_forløb_61-85);}.cls-87{fill:url(#Ikke-navngivet_forløb_61-86);}.cls-88{fill:url(#Ikke-navngivet_forløb_61-87);}.cls-89{fill:url(#Ikke-navngivet_forløb_61-88);}.cls-90{fill:url(#Ikke-navngivet_forløb_61-89);}.cls-91{fill:url(#Ikke-navngivet_forløb_61-90);}.cls-92{fill:url(#Ikke-navngivet_forløb_61-91);}.cls-93{fill:url(#Ikke-navngivet_forløb_61-92);}.cls-94{fill:url(#Ikke-navngivet_forløb_61-93);}.cls-95{fill:url(#Ikke-navngivet_forløb_61-94);}.cls-96{fill:url(#Ikke-navngivet_forløb_61-95);}.cls-97{fill:url(#Ikke-navngivet_forløb_61-96);}.cls-98{fill:url(#Ikke-navngivet_forløb_61-97);}.cls-99{fill:url(#Ikke-navngivet_forløb_61-98);}.cls-100{fill:url(#Ikke-navngivet_forløb_61-99);}.cls-101{fill:url(#Ikke-navngivet_forløb_61-100);}.cls-102{fill:url(#Ikke-navngivet_forløb_61-101);}.cls-103{fill:url(#Ikke-navngivet_forløb_61-102);}.cls-104{fill:url(#Ikke-navngivet_forløb_61-103);}.cls-105{fill:url(#Ikke-navngivet_forløb_61-104);}.cls-106{fill:url(#Ikke-navngivet_forløb_61-105);}.cls-107{fill:url(#Ikke-navngivet_forløb_61-106);}.cls-108{fill:url(#Ikke-navngivet_forløb_61-107);}.cls-109{fill:url(#Ikke-navngivet_forløb_61-108);}.cls-110{fill:url(#Ikke-navngivet_forløb_61-109);}.cls-111{fill:url(#Ikke-navngivet_forløb_61-110);}.cls-112{fill:url(#Ikke-navngivet_forløb_61-111);}.cls-113{fill:url(#Ikke-navngivet_forløb_61-112);}.cls-114{fill:url(#Ikke-navngivet_forløb_61-113);}.cls-115{fill:url(#Ikke-navngivet_forløb_61-114);}.cls-116{fill:url(#Ikke-navngivet_forløb_61-115);}.cls-117{fill:url(#Ikke-navngivet_forløb_61-116);}.cls-118{fill:url(#Ikke-navngivet_forløb_61-117);}.cls-119{fill:url(#Ikke-navngivet_forløb_61-118);}.cls-120{fill:url(#Ikke-navngivet_forløb_61-119);}.cls-121{fill:url(#Ikke-navngivet_forløb_61-120);}.cls-122{fill:url(#Ikke-navngivet_forløb_61-121);}.cls-123{fill:url(#Ikke-navngivet_forløb_61-122);}.cls-124{fill:url(#Ikke-navngivet_forløb_61-123);}.cls-125{fill:url(#Ikke-navngivet_forløb_61-124);}.cls-126{fill:url(#Ikke-navngivet_forløb_61-125);}.cls-127{fill:url(#Ikke-navngivet_forløb_61-126);}.cls-128{fill:url(#Ikke-navngivet_forløb_61-127);}.cls-129{fill:url(#Ikke-navngivet_forløb_61-128);}.cls-130{fill:url(#Ikke-navngivet_forløb_61-129);}.cls-131{fill:url(#Ikke-navngivet_forløb_61-130);}.cls-132{fill:url(#Ikke-navngivet_forløb_61-131);}.cls-133{fill:url(#Ikke-navngivet_forløb_61-132);}.cls-134{fill:url(#Ikke-navngivet_forløb_61-133);}.cls-135{fill:url(#Ikke-navngivet_forløb_61-134);}.cls-136{fill:url(#Ikke-navngivet_forløb_61-135);}.cls-137{fill:url(#Ikke-navngivet_forløb_61-136);}.cls-138{fill:url(#Ikke-navngivet_forløb_61-137);}.cls-139{fill:url(#Ikke-navngivet_forløb_61-138);}.cls-140{fill:url(#Ikke-navngivet_forløb_61-139);}.cls-141{fill:url(#Ikke-navngivet_forløb_61-140);}.cls-142{fill:url(#Ikke-navngivet_forløb_61-141);}.cls-143{fill:url(#Ikke-navngivet_forløb_61-142);}.cls-144{fill:url(#Ikke-navngivet_forløb_61-143);}.cls-145{fill:url(#Ikke-navngivet_forløb_61-144);}.cls-146{fill:url(#Ikke-navngivet_forløb_61-145);}.cls-147{fill:url(#Ikke-navngivet_forløb_61-146);}.cls-148{fill:url(#Ikke-navngivet_forløb_61-147);}.cls-149{fill:url(#Ikke-navngivet_forløb_61-148);}.cls-150{fill:url(#Ikke-navngivet_forløb_61-149);}.cls-151{fill:url(#Ikke-navngivet_forløb_61-150);}.cls-152{fill:url(#Ikke-navngivet_forløb_61-151);}.cls-153{fill:url(#Ikke-navngivet_forløb_61-152);}.cls-154{fill:url(#Ikke-navngivet_forløb_61-153);}</style><linearGradient id="Ikke-navngivet_forløb_61" x1="24.42" y1="229.37" x2="236.7" y2="229.37" gradientUnits="userSpaceOnUse"><stop offset="0.2" stop-color="#fff" stop-opacity="0.6"/><stop offset="0.7" stop-color="#41a698" stop-opacity="0.5"/><stop offset="1" stop-color="#cf9455" stop-opacity="0.4"/></linearGradient><linearGradient id="Ikke-navngivet_forløb_61-2" x1="26.22" y1="229.04" x2="232.11" y2="229.04" xlink:href="#Ikke-navngivet_forløb_61"/><linearGradient id="Ikke-navngivet_forløb_61-3" x1="28.12" y1="228.71" x2="227.53" y2="228.71" xlink:href="#Ikke-navngivet_forløb_61"/><linearGradient id="Ikke-navngivet_forløb_61-4" x1="29.94" y1="228.38" x2="222.97" y2="228.38" xlink:href="#Ikke-navngivet_forløb_61"/><linearGradient id="Ikke-navngivet_forløb_61-5" x1="31.73" y1="228.05" x2="218.39" y2="228.05" xlink:href="#Ikke-navngivet_forløb_61"/><linearGradient id="Ikke-navngivet_forløb_61-6" x1="33.5" y1="231.92" x2="213.91" y2="231.92" xlink:href="#Ikke-navngivet_forløb_61"/><linearGradient id="Ikke-navngivet_forløb_61-7" x1="35.23" y1="241.85" x2="209.43" y2="241.85" xlink:href="#Ikke-navngivet_forløb_61"/><linearGradient id="Ikke-navngivet_forløb_61-8" x1="36.91" y1="251.79" x2="204.98" y2="251.79" xlink:href="#Ikke-navngivet_forløb_61"/><linearGradient id="Ikke-navngivet_forløb_61-9" x1="38.53" y1="261.73" x2="200.58" y2="261.73" xlink:href="#Ikke-navngivet_forløb_61"/><linearGradient id="Ikke-navngivet_forløb_61-10" x1="40.07" y1="271.67" x2="196.25" y2="271.67" xlink:href="#Ikke-navngivet_forløb_61"/><linearGradient id="Ikke-navngivet_forløb_61-11" x1="41.48" y1="281.61" x2="191.95" y2="281.61" xlink:href="#Ikke-navngivet_forløb_61"/><linearGradient id="Ikke-navngivet_forløb_61-12" x1="42.74" y1="290.37" x2="187.7" y2="290.37" xlink:href="#Ikke-navngivet_forløb_61"/><linearGradient id="Ikke-navngivet_forløb_61-13" x1="43.78" y1="286.4" x2="183.67" y2="286.4" xlink:href="#Ikke-navngivet_forløb_61"/><linearGradient id="Ikke-navngivet_forløb_61-14" x1="44.53" y1="282.43" x2="180.05" y2="282.43" xlink:href="#Ikke-navngivet_forløb_61"/><linearGradient id="Ikke-navngivet_forløb_61-15" x1="44.92" y1="278.46" x2="176.52" y2="278.46" xlink:href="#Ikke-navngivet_forløb_61"/><linearGradient id="Ikke-navngivet_forløb_61-16" x1="44.99" y1="274.49" x2="173.53" y2="274.49" xlink:href="#Ikke-navngivet_forløb_61"/><linearGradient id="Ikke-navngivet_forløb_61-17" x1="44.74" y1="270.52" x2="171.07" y2="270.52" xlink:href="#Ikke-navngivet_forløb_61"/><linearGradient id="Ikke-navngivet_forløb_61-18" x1="44.27" y1="266.56" x2="169.55" y2="266.56" xlink:href="#Ikke-navngivet_forløb_61"/><linearGradient id="Ikke-navngivet_forløb_61-19" x1="43.79" y1="262.59" x2="171.37" y2="262.59" xlink:href="#Ikke-navngivet_forløb_61"/><linearGradient id="Ikke-navngivet_forløb_61-20" x1="43.3" y1="258.62" x2="177.97" y2="258.62" xlink:href="#Ikke-navngivet_forløb_61"/><linearGradient id="Ikke-navngivet_forløb_61-21" x1="45.61" y1="262.07" x2="177.34" y2="262.07" xlink:href="#Ikke-navngivet_forløb_61"/><linearGradient id="Ikke-navngivet_forløb_61-22" x1="47.91" y1="265.52" x2="176.71" y2="265.52" xlink:href="#Ikke-navngivet_forløb_61"/><linearGradient id="Ikke-navngivet_forløb_61-23" x1="50.22" y1="268.97" x2="176.08" y2="268.97" xlink:href="#Ikke-navngivet_forløb_61"/><linearGradient id="Ikke-navngivet_forløb_61-24" x1="52.52" y1="272.42" x2="175.45" y2="272.42" xlink:href="#Ikke-navngivet_forløb_61"/><linearGradient id="Ikke-navngivet_forløb_61-25" x1="54.83" y1="275.87" x2="174.82" y2="275.87" xlink:href="#Ikke-navngivet_forløb_61"/><linearGradient id="Ikke-navngivet_forløb_61-26" x1="57.13" y1="279.32" x2="174.18" y2="279.32" xlink:href="#Ikke-navngivet_forløb_61"/><linearGradient id="Ikke-navngivet_forløb_61-27" x1="59.44" y1="282.77" x2="173.55" y2="282.77" xlink:href="#Ikke-navngivet_forløb_61"/><linearGradient id="Ikke-navngivet_forløb_61-28" x1="61.74" y1="286.22" x2="172.92" y2="286.22" xlink:href="#Ikke-navngivet_forløb_61"/><linearGradient id="Ikke-navngivet_forløb_61-29" x1="64.05" y1="289.67" x2="172.29" y2="289.67" xlink:href="#Ikke-navngivet_forløb_61"/><linearGradient id="Ikke-navngivet_forløb_61-30" x1="66.35" y1="293.12" x2="171.66" y2="293.12" xlink:href="#Ikke-navngivet_forløb_61"/><linearGradient id="Ikke-navngivet_forløb_61-31" x1="68.66" y1="296.57" x2="171.02" y2="296.57" xlink:href="#Ikke-navngivet_forløb_61"/><linearGradient id="Ikke-navngivet_forløb_61-32" x1="70.97" y1="300.03" x2="170.39" y2="300.03" xlink:href="#Ikke-navngivet_forløb_61"/><linearGradient id="Ikke-navngivet_forløb_61-33" x1="73.28" y1="303.48" x2="169.77" y2="303.48" xlink:href="#Ikke-navngivet_forløb_61"/><linearGradient id="Ikke-navngivet_forløb_61-34" x1="75.58" y1="306.93" x2="169.14" y2="306.93" xlink:href="#Ikke-navngivet_forløb_61"/><linearGradient id="Ikke-navngivet_forløb_61-35" x1="77.88" y1="310.38" x2="168.51" y2="310.38" xlink:href="#Ikke-navngivet_forløb_61"/><linearGradient id="Ikke-navngivet_forløb_61-36" x1="80.19" y1="313.82" x2="167.87" y2="313.82" xlink:href="#Ikke-navngivet_forløb_61"/><linearGradient id="Ikke-navngivet_forløb_61-37" x1="82.49" y1="317.27" x2="167.24" y2="317.27" xlink:href="#Ikke-navngivet_forløb_61"/><linearGradient id="Ikke-navngivet_forløb_61-38" x1="84.8" y1="320.73" x2="166.6" y2="320.73" xlink:href="#Ikke-navngivet_forløb_61"/><linearGradient id="Ikke-navngivet_forløb_61-39" x1="87.1" y1="324.18" x2="165.87" y2="324.18" xlink:href="#Ikke-navngivet_forløb_61"/><linearGradient id="Ikke-navngivet_forløb_61-40" x1="89.84" y1="320.09" x2="167.89" y2="320.09" xlink:href="#Ikke-navngivet_forløb_61"/><linearGradient id="Ikke-navngivet_forløb_61-41" x1="92.58" y1="315.99" x2="169.91" y2="315.99" xlink:href="#Ikke-navngivet_forløb_61"/><linearGradient id="Ikke-navngivet_forløb_61-42" x1="95.32" y1="311.9" x2="171.93" y2="311.9" xlink:href="#Ikke-navngivet_forløb_61"/><linearGradient id="Ikke-navngivet_forløb_61-43" x1="98.06" y1="307.81" x2="173.94" y2="307.81" xlink:href="#Ikke-navngivet_forløb_61"/><linearGradient id="Ikke-navngivet_forløb_61-44" x1="100.8" y1="303.72" x2="175.96" y2="303.72" xlink:href="#Ikke-navngivet_forløb_61"/><linearGradient id="Ikke-navngivet_forløb_61-45" x1="103.54" y1="299.62" x2="177.98" y2="299.62" xlink:href="#Ikke-navngivet_forløb_61"/><linearGradient id="Ikke-navngivet_forløb_61-46" x1="106.28" y1="295.53" x2="180" y2="295.53" xlink:href="#Ikke-navngivet_forløb_61"/><linearGradient id="Ikke-navngivet_forløb_61-47" x1="109.02" y1="291.44" x2="182.01" y2="291.44" xlink:href="#Ikke-navngivet_forløb_61"/><linearGradient id="Ikke-navngivet_forløb_61-48" x1="111.76" y1="287.35" x2="184.03" y2="287.35" xlink:href="#Ikke-navngivet_forløb_61"/><linearGradient id="Ikke-navngivet_forløb_61-49" x1="114.5" y1="283.25" x2="186.12" y2="283.25" xlink:href="#Ikke-navngivet_forløb_61"/><linearGradient id="Ikke-navngivet_forløb_61-50" x1="117.23" y1="279.15" x2="188.05" y2="279.15" xlink:href="#Ikke-navngivet_forløb_61"/><linearGradient id="Ikke-navngivet_forløb_61-51" x1="119.97" y1="275.06" x2="190.07" y2="275.06" xlink:href="#Ikke-navngivet_forløb_61"/><linearGradient id="Ikke-navngivet_forløb_61-52" x1="122.71" y1="270.97" x2="192.09" y2="270.97" xlink:href="#Ikke-navngivet_forløb_61"/><linearGradient id="Ikke-navngivet_forløb_61-53" x1="125.45" y1="266.88" x2="194.11" y2="266.88" xlink:href="#Ikke-navngivet_forløb_61"/><linearGradient id="Ikke-navngivet_forløb_61-54" x1="128.19" y1="262.79" x2="196.19" y2="262.79" xlink:href="#Ikke-navngivet_forløb_61"/><linearGradient id="Ikke-navngivet_forløb_61-55" x1="130.93" y1="258.69" x2="198.21" y2="258.69" xlink:href="#Ikke-navngivet_forløb_61"/><linearGradient id="Ikke-navngivet_forløb_61-56" x1="133.67" y1="254.61" x2="200.16" y2="254.61" xlink:href="#Ikke-navngivet_forløb_61"/><linearGradient id="Ikke-navngivet_forløb_61-57" x1="136.41" y1="250.52" x2="202.18" y2="250.52" xlink:href="#Ikke-navngivet_forløb_61"/><linearGradient id="Ikke-navngivet_forløb_61-58" x1="139.15" y1="246.42" x2="204.19" y2="246.42" xlink:href="#Ikke-navngivet_forløb_61"/><linearGradient id="Ikke-navngivet_forløb_61-59" x1="140.8" y1="241.9" x2="204.92" y2="241.9" xlink:href="#Ikke-navngivet_forløb_61"/><linearGradient id="Ikke-navngivet_forløb_61-60" x1="142.45" y1="237.37" x2="205.65" y2="237.37" xlink:href="#Ikke-navngivet_forløb_61"/><linearGradient id="Ikke-navngivet_forløb_61-61" x1="144.09" y1="232.84" x2="206.38" y2="232.84" xlink:href="#Ikke-navngivet_forløb_61"/><linearGradient id="Ikke-navngivet_forløb_61-62" x1="145.74" y1="228.31" x2="207.1" y2="228.31" xlink:href="#Ikke-navngivet_forløb_61"/><linearGradient id="Ikke-navngivet_forløb_61-63" x1="147.39" y1="223.78" x2="207.82" y2="223.78" xlink:href="#Ikke-navngivet_forløb_61"/><linearGradient id="Ikke-navngivet_forløb_61-64" x1="149.04" y1="219.25" x2="208.54" y2="219.25" xlink:href="#Ikke-navngivet_forløb_61"/><linearGradient id="Ikke-navngivet_forløb_61-65" x1="150.75" y1="214.72" x2="209.33" y2="214.72" xlink:href="#Ikke-navngivet_forløb_61"/><linearGradient id="Ikke-navngivet_forløb_61-66" x1="152.42" y1="210.19" x2="210.06" y2="210.19" xlink:href="#Ikke-navngivet_forløb_61"/><linearGradient id="Ikke-navngivet_forløb_61-67" x1="153.98" y1="205.67" x2="210.78" y2="205.67" xlink:href="#Ikke-navngivet_forløb_61"/><linearGradient id="Ikke-navngivet_forløb_61-68" x1="155.57" y1="201.13" x2="211.5" y2="201.13" xlink:href="#Ikke-navngivet_forløb_61"/><linearGradient id="Ikke-navngivet_forløb_61-69" x1="157.17" y1="196.6" x2="212.29" y2="196.6" xlink:href="#Ikke-navngivet_forløb_61"/><linearGradient id="Ikke-navngivet_forløb_61-70" x1="158.71" y1="192.09" x2="212.98" y2="192.09" xlink:href="#Ikke-navngivet_forløb_61"/><linearGradient id="Ikke-navngivet_forløb_61-71" x1="160.27" y1="187.58" x2="213.71" y2="187.58" xlink:href="#Ikke-navngivet_forløb_61"/><linearGradient id="Ikke-navngivet_forløb_61-72" x1="161.86" y1="183.07" x2="214.48" y2="183.07" xlink:href="#Ikke-navngivet_forløb_61"/><linearGradient id="Ikke-navngivet_forløb_61-73" x1="163.42" y1="178.56" x2="215.21" y2="178.56" xlink:href="#Ikke-navngivet_forløb_61"/><linearGradient id="Ikke-navngivet_forløb_61-74" x1="165" y1="174.06" x2="215.95" y2="174.06" xlink:href="#Ikke-navngivet_forløb_61"/><linearGradient id="Ikke-navngivet_forløb_61-75" x1="166.51" y1="169.55" x2="216.61" y2="169.55" xlink:href="#Ikke-navngivet_forløb_61"/><linearGradient id="Ikke-navngivet_forløb_61-76" x1="168.07" y1="165.05" x2="217.34" y2="165.05" xlink:href="#Ikke-navngivet_forløb_61"/><linearGradient id="Ikke-navngivet_forløb_61-77" x1="169.62" y1="160.55" x2="218.09" y2="160.55" xlink:href="#Ikke-navngivet_forløb_61"/><linearGradient id="Ikke-navngivet_forløb_61-78" x1="169.41" y1="159.92" x2="214.65" y2="159.92" xlink:href="#Ikke-navngivet_forløb_61"/><linearGradient id="Ikke-navngivet_forløb_61-79" x1="169.19" y1="159.28" x2="211.22" y2="159.28" xlink:href="#Ikke-navngivet_forløb_61"/><linearGradient id="Ikke-navngivet_forløb_61-80" x1="168.97" y1="158.66" x2="207.81" y2="158.66" xlink:href="#Ikke-navngivet_forløb_61"/><linearGradient id="Ikke-navngivet_forløb_61-81" x1="168.77" y1="158.03" x2="204.41" y2="158.03" xlink:href="#Ikke-navngivet_forløb_61"/><linearGradient id="Ikke-navngivet_forløb_61-82" x1="168.55" y1="157.4" x2="200.97" y2="157.4" xlink:href="#Ikke-navngivet_forløb_61"/><linearGradient id="Ikke-navngivet_forløb_61-83" x1="168.33" y1="156.79" x2="197.5" y2="156.79" xlink:href="#Ikke-navngivet_forløb_61"/><linearGradient id="Ikke-navngivet_forløb_61-84" x1="168.11" y1="156.19" x2="194.1" y2="156.19" xlink:href="#Ikke-navngivet_forløb_61"/><linearGradient id="Ikke-navngivet_forløb_61-85" x1="167.89" y1="155.59" x2="190.66" y2="155.59" xlink:href="#Ikke-navngivet_forløb_61"/><linearGradient id="Ikke-navngivet_forløb_61-86" x1="167.68" y1="154.99" x2="187.23" y2="154.99" xlink:href="#Ikke-navngivet_forløb_61"/><linearGradient id="Ikke-navngivet_forløb_61-87" x1="167.46" y1="154.39" x2="183.79" y2="154.39" xlink:href="#Ikke-navngivet_forløb_61"/><linearGradient id="Ikke-navngivet_forløb_61-88" x1="167.24" y1="153.8" x2="180.36" y2="153.8" xlink:href="#Ikke-navngivet_forløb_61"/><linearGradient id="Ikke-navngivet_forløb_61-89" x1="167.02" y1="153.2" x2="177.4" y2="153.2" xlink:href="#Ikke-navngivet_forløb_61"/><linearGradient id="Ikke-navngivet_forløb_61-90" x1="166.8" y1="152.6" x2="175.11" y2="152.6" xlink:href="#Ikke-navngivet_forløb_61"/><linearGradient id="Ikke-navngivet_forløb_61-91" x1="166.57" y1="152" x2="173.29" y2="152" xlink:href="#Ikke-navngivet_forløb_61"/><linearGradient id="Ikke-navngivet_forløb_61-92" x1="166.3" y1="151.4" x2="171.81" y2="151.4" xlink:href="#Ikke-navngivet_forløb_61"/><linearGradient id="Ikke-navngivet_forløb_61-93" x1="162.93" y1="150.81" x2="170.59" y2="150.81" xlink:href="#Ikke-navngivet_forløb_61"/><linearGradient id="Ikke-navngivet_forløb_61-94" x1="159.5" y1="150.21" x2="169.56" y2="150.21" xlink:href="#Ikke-navngivet_forløb_61"/><linearGradient id="Ikke-navngivet_forløb_61-95" x1="156.06" y1="149.61" x2="168.68" y2="149.61" xlink:href="#Ikke-navngivet_forløb_61"/><linearGradient id="Ikke-navngivet_forløb_61-96" x1="152.62" y1="149.01" x2="167.91" y2="149.01" xlink:href="#Ikke-navngivet_forløb_61"/><linearGradient id="Ikke-navngivet_forløb_61-97" x1="151.14" y1="151.91" x2="166.7" y2="151.91" xlink:href="#Ikke-navngivet_forløb_61"/><linearGradient id="Ikke-navngivet_forløb_61-98" x1="149.65" y1="154.8" x2="165.48" y2="154.8" xlink:href="#Ikke-navngivet_forløb_61"/><linearGradient id="Ikke-navngivet_forløb_61-99" x1="148.16" y1="157.69" x2="164.26" y2="157.69" xlink:href="#Ikke-navngivet_forløb_61"/><linearGradient id="Ikke-navngivet_forløb_61-100" x1="146.67" y1="160.58" x2="163.04" y2="160.58" xlink:href="#Ikke-navngivet_forløb_61"/><linearGradient id="Ikke-navngivet_forløb_61-101" x1="145.18" y1="163.47" x2="161.82" y2="163.47" xlink:href="#Ikke-navngivet_forløb_61"/><linearGradient id="Ikke-navngivet_forløb_61-102" x1="143.69" y1="166.37" x2="160.6" y2="166.37" xlink:href="#Ikke-navngivet_forløb_61"/><linearGradient id="Ikke-navngivet_forløb_61-103" x1="142.2" y1="169.26" x2="159.39" y2="169.26" xlink:href="#Ikke-navngivet_forløb_61"/><linearGradient id="Ikke-navngivet_forløb_61-104" x1="140.72" y1="172.15" x2="158.17" y2="172.15" xlink:href="#Ikke-navngivet_forløb_61"/><linearGradient id="Ikke-navngivet_forløb_61-105" x1="139.23" y1="175.04" x2="156.95" y2="175.04" xlink:href="#Ikke-navngivet_forløb_61"/><linearGradient id="Ikke-navngivet_forløb_61-106" x1="137.74" y1="177.94" x2="155.74" y2="177.94" xlink:href="#Ikke-navngivet_forløb_61"/><linearGradient id="Ikke-navngivet_forløb_61-107" x1="136.25" y1="181.14" x2="154.52" y2="181.14" xlink:href="#Ikke-navngivet_forløb_61"/><linearGradient id="Ikke-navngivet_forløb_61-108" x1="134.76" y1="184.46" x2="153.31" y2="184.46" xlink:href="#Ikke-navngivet_forløb_61"/><linearGradient id="Ikke-navngivet_forløb_61-109" x1="133.27" y1="187.78" x2="152.09" y2="187.78" xlink:href="#Ikke-navngivet_forløb_61"/><linearGradient id="Ikke-navngivet_forløb_61-110" x1="131.79" y1="191.09" x2="150.88" y2="191.09" xlink:href="#Ikke-navngivet_forløb_61"/><linearGradient id="Ikke-navngivet_forløb_61-111" x1="130.3" y1="194.41" x2="149.66" y2="194.41" xlink:href="#Ikke-navngivet_forløb_61"/><linearGradient id="Ikke-navngivet_forløb_61-112" x1="128.81" y1="197.73" x2="148.44" y2="197.73" xlink:href="#Ikke-navngivet_forløb_61"/><linearGradient id="Ikke-navngivet_forløb_61-113" x1="127.32" y1="201.05" x2="147.23" y2="201.05" xlink:href="#Ikke-navngivet_forløb_61"/><linearGradient id="Ikke-navngivet_forløb_61-114" x1="125.83" y1="204.37" x2="146.02" y2="204.37" xlink:href="#Ikke-navngivet_forløb_61"/><linearGradient id="Ikke-navngivet_forløb_61-115" x1="124.34" y1="207.68" x2="144.8" y2="207.68" xlink:href="#Ikke-navngivet_forløb_61"/><linearGradient id="Ikke-navngivet_forløb_61-116" x1="122.95" y1="210.9" x2="143.09" y2="210.9" xlink:href="#Ikke-navngivet_forløb_61"/><linearGradient id="Ikke-navngivet_forløb_61-117" x1="121.56" y1="214.12" x2="141.38" y2="214.12" xlink:href="#Ikke-navngivet_forløb_61"/><linearGradient id="Ikke-navngivet_forløb_61-118" x1="120.16" y1="217.34" x2="139.67" y2="217.34" xlink:href="#Ikke-navngivet_forløb_61"/><linearGradient id="Ikke-navngivet_forløb_61-119" x1="118.77" y1="220.56" x2="137.96" y2="220.56" xlink:href="#Ikke-navngivet_forløb_61"/><linearGradient id="Ikke-navngivet_forløb_61-120" x1="117.37" y1="223.78" x2="136.23" y2="223.78" xlink:href="#Ikke-navngivet_forløb_61"/><linearGradient id="Ikke-navngivet_forløb_61-121" x1="115.98" y1="227" x2="134.53" y2="227" xlink:href="#Ikke-navngivet_forløb_61"/><linearGradient id="Ikke-navngivet_forløb_61-122" x1="114.59" y1="230.22" x2="132.82" y2="230.22" xlink:href="#Ikke-navngivet_forløb_61"/><linearGradient id="Ikke-navngivet_forløb_61-123" x1="113.19" y1="233.44" x2="131.11" y2="233.44" xlink:href="#Ikke-navngivet_forløb_61"/><linearGradient id="Ikke-navngivet_forløb_61-124" x1="111.8" y1="236.66" x2="129.4" y2="236.66" xlink:href="#Ikke-navngivet_forløb_61"/><linearGradient id="Ikke-navngivet_forløb_61-125" x1="110.41" y1="240.24" x2="127.71" y2="240.24" xlink:href="#Ikke-navngivet_forløb_61"/><linearGradient id="Ikke-navngivet_forløb_61-126" x1="109.01" y1="243.86" x2="126" y2="243.86" xlink:href="#Ikke-navngivet_forløb_61"/><linearGradient id="Ikke-navngivet_forløb_61-127" x1="107.62" y1="247.49" x2="124.29" y2="247.49" xlink:href="#Ikke-navngivet_forløb_61"/><linearGradient id="Ikke-navngivet_forløb_61-128" x1="106.22" y1="251.12" x2="122.58" y2="251.12" xlink:href="#Ikke-navngivet_forløb_61"/><linearGradient id="Ikke-navngivet_forløb_61-129" x1="104.83" y1="254.75" x2="120.87" y2="254.75" xlink:href="#Ikke-navngivet_forløb_61"/><linearGradient id="Ikke-navngivet_forløb_61-130" x1="103.44" y1="258.37" x2="119.16" y2="258.37" xlink:href="#Ikke-navngivet_forløb_61"/><linearGradient id="Ikke-navngivet_forløb_61-131" x1="102.04" y1="262" x2="117.44" y2="262" xlink:href="#Ikke-navngivet_forløb_61"/><linearGradient id="Ikke-navngivet_forløb_61-132" x1="100.65" y1="265.63" x2="115.73" y2="265.63" xlink:href="#Ikke-navngivet_forløb_61"/><linearGradient id="Ikke-navngivet_forløb_61-133" x1="99.26" y1="269.26" x2="114.02" y2="269.26" xlink:href="#Ikke-navngivet_forløb_61"/><linearGradient id="Ikke-navngivet_forløb_61-134" x1="97.86" y1="272.89" x2="112.31" y2="272.89" xlink:href="#Ikke-navngivet_forløb_61"/><linearGradient id="Ikke-navngivet_forløb_61-135" x1="97.01" y1="274.15" x2="111.17" y2="274.15" xlink:href="#Ikke-navngivet_forløb_61"/><linearGradient id="Ikke-navngivet_forløb_61-136" x1="96.16" y1="275.4" x2="110.03" y2="275.4" xlink:href="#Ikke-navngivet_forløb_61"/><linearGradient id="Ikke-navngivet_forløb_61-137" x1="95.31" y1="276.65" x2="108.89" y2="276.65" xlink:href="#Ikke-navngivet_forløb_61"/><linearGradient id="Ikke-navngivet_forløb_61-138" x1="94.46" y1="277.91" x2="107.76" y2="277.91" xlink:href="#Ikke-navngivet_forløb_61"/><linearGradient id="Ikke-navngivet_forløb_61-139" x1="93.6" y1="279.17" x2="106.62" y2="279.17" xlink:href="#Ikke-navngivet_forløb_61"/><linearGradient id="Ikke-navngivet_forløb_61-140" x1="92.75" y1="280.42" x2="105.48" y2="280.42" xlink:href="#Ikke-navngivet_forløb_61"/><linearGradient id="Ikke-navngivet_forløb_61-141" x1="91.92" y1="281.68" x2="104.36" y2="281.68" xlink:href="#Ikke-navngivet_forløb_61"/><linearGradient id="Ikke-navngivet_forløb_61-142" x1="91.06" y1="282.93" x2="103.22" y2="282.93" xlink:href="#Ikke-navngivet_forløb_61"/><linearGradient id="Ikke-navngivet_forløb_61-143" x1="90.21" y1="284.19" x2="102.09" y2="284.19" xlink:href="#Ikke-navngivet_forløb_61"/><linearGradient id="Ikke-navngivet_forløb_61-144" x1="89.36" y1="285.44" x2="100.95" y2="285.44" xlink:href="#Ikke-navngivet_forløb_61"/><linearGradient id="Ikke-navngivet_forløb_61-145" x1="88.52" y1="286.7" x2="99.83" y2="286.7" xlink:href="#Ikke-navngivet_forløb_61"/><linearGradient id="Ikke-navngivet_forløb_61-146" x1="87.67" y1="287.96" x2="98.7" y2="287.96" xlink:href="#Ikke-navngivet_forløb_61"/><linearGradient id="Ikke-navngivet_forløb_61-147" x1="86.82" y1="289.21" x2="97.57" y2="289.21" xlink:href="#Ikke-navngivet_forløb_61"/><linearGradient id="Ikke-navngivet_forløb_61-148" x1="85.97" y1="290.47" x2="96.43" y2="290.47" xlink:href="#Ikke-navngivet_forløb_61"/><linearGradient id="Ikke-navngivet_forløb_61-149" x1="85.12" y1="291.73" x2="95.3" y2="291.73" xlink:href="#Ikke-navngivet_forløb_61"/><linearGradient id="Ikke-navngivet_forløb_61-150" x1="84.28" y1="292.98" x2="94.17" y2="292.98" xlink:href="#Ikke-navngivet_forløb_61"/><linearGradient id="Ikke-navngivet_forløb_61-151" x1="83.43" y1="294.23" x2="93.04" y2="294.23" xlink:href="#Ikke-navngivet_forløb_61"/><linearGradient id="Ikke-navngivet_forløb_61-152" x1="82.58" y1="295.49" x2="91.89" y2="295.49" xlink:href="#Ikke-navngivet_forløb_61"/><linearGradient id="Ikke-navngivet_forløb_61-153" x1="81.74" y1="296.75" x2="90.77" y2="296.75" xlink:href="#Ikke-navngivet_forløb_61"/></defs><title>blad_enkelt_hvid</title><g class="cls-1"><path class="cls-2" d="M52.74,336c-15.5-29.14-29.68-60.76-28-94.53C25.56,224.62,31,209,39.58,194.57c8.11-13.63,18-26.25,27.29-39,18.56-25.44,37.09-51.1,51.77-79,3.67-7,7.1-14.13,10.2-21.4Q131,50,133,44.85C134.41,41,136,37.08,136.55,33c.11-.89-.27-3.88.64-4.2.41-.14,2.38,1.05,2.84,1.26q1.41.64,2.82,1.32,5.4,2.58,10.63,5.53a173.45,173.45,0,0,1,20,13.18,163.84,163.84,0,0,1,52.88,69.37,143.8,143.8,0,0,1,9.76,41.83c1.29,16.91-.73,33.92-4.1,50.49A276.22,276.22,0,0,1,196.87,301c-8.43,13.75-18.08,26.9-30.11,37.74-11.57,10.43-24.93,18.61-38.51,26.14-25.36,14.06-52.63,26.45-72.81,47.93q-3.44,3.64-6.5,7.6-1.57,2.06-3,4.2c-.53.77-1,1.55-1.55,2.34a10.64,10.64,0,0,1-1.47,2.39c-.64.49-.08-.65,0-1.31l.57-3.42,1.16-6.85L46.77,405l4.45-26.41c1.35-8,2.9-16.08,3.51-24.21a59.11,59.11,0,0,0-2.17-22.49c-.05-.15-.29-.08-.24.07,5,15.79,1,32.67-1.67,48.52q-4.2,24.94-8.41,49.88c0,.14.16.23.23.1,17.38-29.84,49.46-45.7,78.72-61.49,15.08-8.13,30.11-16.68,43.18-27.85,13.44-11.48,24-25.77,33.18-40.8a275.22,275.22,0,0,0,37-101.32c2.62-17.23,3.12-34.7,0-51.9a150.77,150.77,0,0,0-15.85-44.65C202.86,73.14,178,49.32,148.53,33.93c-3.93-2.06-7.95-3.95-12-5.71-.08,0-.2,0-.19.11C137,34.47,134.4,40.4,132.25,46c-2.09,5.47-4.38,10.86-6.83,16.17C120.88,72,115.78,81.61,110.3,91c-11.18,19.09-23.9,37.21-36.87,55.11-6.58,9.09-13.23,18.12-19.8,27.21s-13,18.24-18.19,28.18c-10.22,19.64-13,41.39-9.75,63.19,3.75,25.45,14.87,49,26.83,71.52.08.14.29,0,.22-.13Z"/><path class="cls-3" d="M52.25,340.74c-14.56-28.29-27.6-59-25.58-91.49,1-16.21,6.33-31.17,14.62-45.05,7.7-12.89,17-24.84,25.81-36.95,17.56-24.06,35.11-48.29,49.3-74.53,6.81-12.6,13.23-25.79,17.66-39.44a31.19,31.19,0,0,0,1.3-5.29,21.31,21.31,0,0,0,.18-2.25c0-1.42,0-1.76,1.38-1.43a33.58,33.58,0,0,1,5.71,2.51q2.64,1.22,5.24,2.53a166,166,0,0,1,19.19,11.36,153.56,153.56,0,0,1,53.09,63,133.12,133.12,0,0,1,11,39.31c1.81,15.75.36,31.66-2.54,47.2a248.94,248.94,0,0,1-32.28,84.07c-8.21,13.42-17.66,26.25-29.56,36.64-11.08,9.67-23.85,17.14-36.8,24-24.24,12.84-50.36,24.15-69.43,44.54q-3.15,3.38-6,7-1.45,1.92-2.8,3.9c-.44.67-.88,1.34-1.31,2s-.74,2-.79.69c-.06-1.85.67-4,1-5.87.35-2.13.71-4.25,1.06-6.37q1.05-6.36,2.12-12.73l4.08-24.47c1.28-7.63,2.73-15.28,3.28-23a57.73,57.73,0,0,0-2-21.41.12.12,0,0,0-.24.06c4.76,15.4.81,31.8-1.77,47.23q-4,24-8,48c0,.14.15.23.23.1C66,386.75,96.61,372.5,124.32,358.16c14.06-7.28,28.08-15,40.32-25.11,13.18-10.95,23.48-24.81,32.33-39.38a247,247,0,0,0,33.66-94.62c2.13-15.86,2.15-31.9-1.14-47.6a139.69,139.69,0,0,0-15.75-40.82C198.11,83.5,174.07,61.83,146,48.13c-3.5-1.7-7.05-3.27-10.66-4.74-.07,0-.16,0-.16.12.57,5.72-1.78,11.18-3.8,16.41s-4.18,10.32-6.51,15.38c-4.42,9.59-9.39,18.92-14.73,28-10.74,18.36-22.95,35.8-35.41,53-6.24,8.62-12.55,17.19-18.79,25.81s-12.59,17.5-17.74,27A95.78,95.78,0,0,0,27.58,239a110.48,110.48,0,0,0-.3,32.63C30.53,296.2,40.81,319.05,52,340.87c.07.14.29,0,.21-.13Z"/><path class="cls-4" d="M51.77,345.44C38.5,318.73,26.89,289.9,28.46,259.51a95.91,95.91,0,0,1,13-43c7.1-12.44,15.91-23.86,24.34-35.41,16.73-22.92,33.56-45.89,47.5-70.66a283.93,283.93,0,0,0,17.48-36.58,53.71,53.71,0,0,0,3.38-10.54c.18-1.11-.22-3.8.86-4.21.74-.29,5.18,2.09,5.86,2.38a157.46,157.46,0,0,1,19.28,9.94c22.78,13.81,41.86,33.61,53.94,57.42a123,123,0,0,1,11.86,36c2.41,15,1.46,30.24-1.1,45.14A222.05,222.05,0,0,1,195,288.79c-7.66,12.42-16.53,24.3-27.67,33.83-10.63,9.09-22.93,15.94-35.37,22.21C108.82,356.48,83.72,366.68,65.69,386a78,78,0,0,0-5.13,6.07Q59.11,394,57.79,396c-.09.14-1.34,1.95-1.29,2-.29-.26.39-2.73.46-3.14q1.92-11.76,3.86-23.52t3.89-23.52c1.17-7.08,2.47-14.17,2.93-21.34a56.45,56.45,0,0,0-1.88-19.83.13.13,0,0,0-.24.07c4.41,14.85.68,30.58-1.78,45.44q-3.85,23.28-7.67,46.55c0,.14.15.23.23.1C72.08,373,101,360.35,127.06,347.54c13.31-6.54,26.59-13.48,38.17-22.85,12.1-9.78,21.61-22.24,29.76-35.39a220.47,220.47,0,0,0,31.24-86.89c2-15.09,1.87-30.32-1.56-45.19a127.24,127.24,0,0,0-15.56-37.72c-15.25-25-38.29-44.56-64.83-56.72-3.31-1.52-6.68-2.91-10.09-4.21a.14.14,0,0,0-.16.12c.47,5.72-2,11.16-4,16.37q-3,7.57-6.45,14.94c-4.37,9.31-9.26,18.38-14.5,27.23-10.47,17.7-22.3,34.55-34.36,51.19-6,8.28-12,16.5-18,24.78-6.15,8.5-12.25,17.08-17.21,26.35C29.57,238,26.44,258.5,29,279.23c2.83,23.43,12.19,45.37,22.6,66.33.07.15.29,0,.22-.12Z"/><path class="cls-5" d="M51.28,350.14C39,324.36,28.5,296.55,30.36,267.49A94.24,94.24,0,0,1,42.67,227c6.62-11.73,14.87-22.5,22.8-33.36,15.71-21.54,31.56-43.08,45-66.15a292.65,292.65,0,0,0,17.43-34.73c1.26-3,2.49-6,3.57-9.11a36.21,36.21,0,0,0,1.38-4.81c.22-1.14-.07-4.08,1-4.49.58-.23,3.62,1.33,4.23,1.57Q141,77,143.85,78.26q4.52,2,8.89,4.25c22.66,11.77,42.17,29.5,55,51.68A113.09,113.09,0,0,1,220.5,166.9c2.93,13.61,2.74,27.54.76,41.26A195,195,0,0,1,194,282.93c-7.18,11.56-15.51,22.62-26,31.39-10.07,8.41-21.76,14.59-33.56,20.19C112.33,345,88.22,354,71.15,372.27c-1.61,1.72-3.15,3.52-4.58,5.39-.94,1.24-1.73,2.66-2.72,3.84-.73.86-.46.71-.3-.54.12-1,.31-2,.47-2.95q1.82-11.28,3.66-22.56,1.75-10.8,3.53-21.58c1.13-6.86,2.37-13.72,2.84-20.66A56.23,56.23,0,0,0,72.36,294a.12.12,0,0,0-.24.06c4.11,14.46.49,29.72-1.88,44.16q-3.66,22.3-7.25,44.63a.13.13,0,0,0,.23.1c15-23.7,42.24-34.73,66.6-46,12.67-5.88,25.35-12.13,36.35-20.84,11.19-8.86,20-20.27,27.55-32.3a193.81,193.81,0,0,0,28.41-80.41,111.59,111.59,0,0,0-2.44-41,116.55,116.55,0,0,0-15.42-34.31c-16.8-25.6-42.48-44.23-71.22-54.34a.13.13,0,0,0-.15.13c.35,5.42-2,10.56-3.91,15.49q-2.87,7.17-6.16,14.14c-4.21,8.92-8.9,17.61-13.93,26.09C98.79,146.7,87.38,163,75.74,179.06s-24.59,31.83-34.15,49.33-13.06,37.1-11.14,57c2.21,22.82,10.82,44.33,20.62,64.85.07.15.28,0,.21-.12Z"/><path class="cls-6" d="M50.8,354.83c-11.11-24.31-20.24-50.38-18.66-77.51A92,92,0,0,1,43.5,238.16c6.06-11.08,13.72-21.21,21.14-31.39,14.87-20.4,29.93-40.72,43-62.38a302.8,302.8,0,0,0,17.31-32.87c2.53-5.68,5.53-11.69,6.76-17.81.18-.88,0-3.21.39-3.73.89-1.07,3.09.28,4.16.65,3.43,1.22,6.83,2.56,10.16,4,21.94,9.69,41.41,25,54.76,45.08a104.18,104.18,0,0,1,13.7,29.4,98.42,98.42,0,0,1,2.71,37.16,168.14,168.14,0,0,1-24.84,71.15c-6.78,10.82-14.73,21.12-24.76,29.12-9.6,7.64-20.73,13.07-31.9,18-20.75,9.12-43.53,16.94-59.43,33.89a62.35,62.35,0,0,0-4.72,5.66,18,18,0,0,1-1.12,1.58c-.83.92-.32.65-.39-.09-.17-1.77.65-4.12.93-5.89q1.68-10.56,3.38-21.12c2.08-12.95,5-26,5.8-39.13A55.15,55.15,0,0,0,79,281.36a.13.13,0,0,0-.24.07c3.77,13.91.36,28.5-1.89,42.37Q73.32,345.4,69.9,367a.13.13,0,0,0,.23.1C84.35,345.38,110.2,336,133,326.16c12-5.19,24.08-10.78,34.46-18.88,10-7.82,18-17.93,24.79-28.59A167.69,167.69,0,0,0,218,204.37c2.2-24.22-4.38-47.48-18.38-67.31-16.38-23.19-40.81-39.52-67.69-48.12a.12.12,0,0,0-.15.12c.24,5.27-2,10.24-4,15q-2.82,7-6.07,13.72c-4.08,8.52-8.6,16.82-13.43,24.93-9.8,16.47-20.82,32.16-32.05,47.67s-23.5,30.5-32.74,47.23c-9.35,16.92-12.94,35.64-11.43,54.87,1.71,21.88,9.46,42.65,18.51,62.45.07.15.29,0,.22-.13Z"/><path class="cls-7" d="M50.32,359.53c-10-23.09-18-47.8-16.37-73.29a90.43,90.43,0,0,1,10.17-36.46c5.55-10.56,12.69-20.19,19.69-29.81,13.92-19.15,28.1-38.16,40.6-58.28a321,321,0,0,0,17-30.64q3.66-7.62,6.78-15.46a34.59,34.59,0,0,0,2.6-8.66c.11-.89-.19-1.93.82-2.32.83-.33,4.3,1.31,5.23,1.62,41.7,13.91,78.72,50.69,76.79,97.14-1,23.6-8.87,47.15-21.25,67.17-6.27,10.13-13.71,19.83-23.12,27.25s-20.51,12.34-31.56,16.75c-19.36,7.74-40.8,14.35-55.52,29.95a52.5,52.5,0,0,0-4.22,5.07c-1.3,1.78-.6-.14-.42-1.27q.45-3,.92-5.9,1.53-9.84,3.09-19.67c2-12.25,4.63-24.6,5.4-37a54.59,54.59,0,0,0-1.37-17,.12.12,0,0,0-.24.06c3.46,13.52.17,27.63-2,41.08q-3.31,20.64-6.51,41.3a.13.13,0,0,0,.23.1c13.66-20,38.46-27.66,59.88-36.16,10.86-4.31,21.74-9.05,31.13-16.1s16.82-16.34,23.13-26.15c12.9-20.06,21.13-43.68,22.57-67.54,1.31-21.79-5.84-42.46-19.16-59.63-15.95-20.55-39-34.48-63.82-41.57a.13.13,0,0,0-.16.12c.14,5-2,9.65-3.86,14.16s-3.85,8.94-6,13.32c-4,8.25-8.41,16.29-13.12,24.15-9.4,15.71-19.93,30.71-30.66,45.54s-22.61,29.4-31.6,45.47a95.33,95.33,0,0,0-11.73,52.73c1.23,20.94,8.11,41,16.42,60.05.06.14.28,0,.22-.13Z"/><path class="cls-8" d="M49.84,364.26C41,342.8,34.33,320,35.64,296.55a89.45,89.45,0,0,1,9-34.93c4.89-9.86,11.32-18.84,17.76-27.72,13-17.9,26.24-35.59,38.21-54.17,6-9.35,11.72-18.93,16.83-28.82q3.77-7.31,7.08-14.83c2-4.55,4.45-9.37,5.05-14.35.25-2.08.78-2,2.6-1.52,1.31.35,2.62.72,3.92,1.11,2.72.81,5.42,1.72,8.08,2.71a123.92,123.92,0,0,1,16.12,7.36,106.66,106.66,0,0,1,24.58,18.42c13.66,13.81,23.34,31.86,24.2,51.52,1,22.32-6.45,45.4-18.24,64.17-5.95,9.47-13.15,18.46-22.29,25-8.68,6.25-18.76,10.21-28.78,13.76-18.12,6.43-38.59,11.78-52.21,26.29-.86.93-1.69,1.88-2.47,2.88a7.42,7.42,0,0,1-.49.62c-1.51,1.4-.09.57-.52.33s1.36-8.88,1.51-9.85q1.4-9.1,2.82-18.21c1.8-11.53,4.33-23.16,5-34.83a53.71,53.71,0,0,0-1.24-15.43c0-.15-.27-.09-.24.07,3.12,13,0,26.41-2,39.29q-3.17,19.94-6.19,39.88a.13.13,0,0,0,.23.1c12.93-17.95,36.16-23.89,55.92-30.9,9.78-3.46,19.62-7.32,28.17-13.31s15.59-14.3,21.42-23.08c11.87-17.9,19.26-39.37,19.93-60.91.61-19.53-7-37.75-19.57-52.47-15.51-18.1-37.23-29.79-60.19-35.46a.13.13,0,0,0-.16.12c0,5.23-2.4,10.19-4.42,14.91q-2.53,5.91-5.39,11.69c-3.85,7.85-8.1,15.5-12.61,23-9.09,15.08-19.22,29.5-29.54,43.75-10.18,14.06-21.27,27.78-29.91,42.87a94.32,94.32,0,0,0-12.34,50.16c.59,20.31,6.66,39.89,14.33,58.54.06.14.3.08.24-.07Z"/><path class="cls-9" d="M49.36,369c-7.83-20.29-13.42-41.8-12-63.72a88.9,88.9,0,0,1,8-32c4.37-9.3,10.23-17.81,16.21-26.13,23.73-33,49.8-65.61,64.9-103.75.91-2.31,1.3-4.63,2-7,.4-1.38.41-1.38,1.76-1.3a25.48,25.48,0,0,1,4.53,1.07,119.6,119.6,0,0,1,14.75,4.77,104.46,104.46,0,0,1,26.32,15c13.44,10.66,24.56,25.45,27.83,42.57,3.84,20.1-2.48,42.41-12.86,59.65-5.56,9.24-12.6,18-21.59,24.15-8.15,5.55-17.66,8.76-27,11.59-16.91,5.12-36.63,9.13-49.16,22.66-.2.22-1.86,2.29-1.93,2.26-.35-.15.21-2.32.27-2.75l1.26-8.38q1.29-8.62,2.63-17.25c1.64-10.68,3.91-21.43,4.52-32.23a53.51,53.51,0,0,0-1-14.78c0-.16-.27-.09-.24.07,2.81,12.56-.14,25.53-2.1,38q-3,19-5.77,38a.13.13,0,0,0,.23.1c12.08-15.7,33.49-20,51.4-25.42,9.14-2.76,18.39-5.88,26.41-11.17s14.31-12.52,19.59-20.34c10.73-15.9,17.28-35.61,16.65-54.91C204.4,191,196.47,175.8,185,163.91c-15.07-15.62-35.41-25.13-56.49-29.43a.12.12,0,0,0-.16.12c-.08,4.81-2.26,9.29-4.14,13.63q-2.48,5.72-5.25,11.3c-3.76,7.59-7.9,15-12.28,22.23-8.75,14.47-18.48,28.31-28.38,42-9.77,13.51-20.38,26.68-28.76,41.12A93.36,93.36,0,0,0,36.91,312c0,19.65,5.18,38.78,12.21,57,.06.15.3.09.24-.06Z"/><path class="cls-10" d="M48.87,373.65c-6.72-18.76-11.19-38.55-9.85-58.6a89.79,89.79,0,0,1,6.79-29.33c3.81-8.91,9.13-17.08,14.71-25,21.91-31,45.94-60.85,61.78-95.63,1.88-4.12,4.15-8.48,4.92-13,.14-.79,0-1.79,1-2.08s2.81.48,3.67.64q3.83.74,7.61,1.72a103.93,103.93,0,0,1,26.34,10.71c14,8.18,26.71,20.54,32,36.19,5.89,17.49,1,38.12-8.25,53.59-4.93,8.25-11.42,16.06-19.6,21.26-7.92,5-17.19,7.47-26.23,9.62-8.89,2.11-17.88,3.87-26.46,7.09A60.89,60.89,0,0,0,106.57,296a38.62,38.62,0,0,0-4,2.8c-.68.53-1.33,1.08-2,1.66S99,302.5,98.3,302.77c-.58.22-.21.19-.29-.5a8.65,8.65,0,0,1,.28-1.94c.17-1.12.33-2.25.5-3.38l1.2-8.21q1.14-7.73,2.32-15.44c1.45-9.55,3.42-19.14,3.94-28.79a53.71,53.71,0,0,0-.88-13.69c0-.15-.28-.09-.25.07,2.49,12.11-.31,24.55-2.16,36.55s-3.65,24.13-5.4,36.21c0,.11.12.23.21.12,11.28-13.46,30.84-16.09,46.91-20,8.24-2,16.62-4.25,24-8.56s13.3-10.68,18.15-17.62c9.62-13.77,15.23-31.55,13.42-48.41-1.52-14.22-9.72-26.68-20.17-36.07-14.59-13.12-33.5-20.49-52.71-23.49a.13.13,0,0,0-.16.12c-.21,4.8-2.46,9.27-4.38,13.58q-2.46,5.5-5.19,10.87c-3.64,7.18-7.61,14.19-11.81,21.05-8.37,13.7-17.62,26.83-27,39.83S59.09,260.92,51,274.89a93.06,93.06,0,0,0-12.45,44.69c-.46,18.56,3.84,36.77,10.07,54.14.06.15.3.09.24-.07Z"/><path class="cls-11" d="M48.39,378.35c-5.8-17.66-9.25-36.2-7.7-54.85a90.94,90.94,0,0,1,6.42-27.28c3.44-8.3,8.25-15.93,13.36-23.29,20-28.73,42.15-56,57.87-87.46,1.93-3.87,3.77-7.79,5.48-11.77a39.47,39.47,0,0,0,1.92-5.2c.19-.72.11-2.07.51-2.64.72-1.06,2.13-.54,3.19-.41a107.17,107.17,0,0,1,26.27,6.62c13.89,5.52,27.42,14.74,35,27.94,8.36,14.58,6,33.15-2.17,47.33-4.34,7.57-10.49,14.59-18.14,18.93-7.46,4.23-16.17,5.77-24.53,7.12-8.21,1.33-16.5,2.35-24.47,4.82a50.37,50.37,0,0,0-9.78,4.07,32.44,32.44,0,0,0-4,2.61c-.56.44-1.11.9-1.63,1.38-1,.93-1.15,1.25-1-.33.9-9.52,2.72-19.05,4.14-28.5,1.32-8.85,3.1-17.75,3.57-26.7a54.39,54.39,0,0,0-.73-12.55c0-.16-.28-.09-.25.07,2.17,11.7-.5,23.66-2.25,35.25-1.74,11.42-3.38,22.86-5,34.3a.13.13,0,0,0,.21.12c10.63-11.32,28.64-12.18,43-14.58,7.39-1.24,15-2.74,21.68-6.23s12-8.82,16.27-14.8c8.44-11.78,12.92-27.84,9.45-42.16-2.81-11.59-11.19-21.14-20.58-28.06-14-10.32-31.16-15.52-48.3-17.26-.07,0-.12.06-.13.12-.32,4.51-2.43,8.66-4.27,12.71q-2.33,5.1-4.88,10.07c-3.48,6.79-7.26,13.41-11.24,19.91-8,13.09-16.85,25.65-25.84,38.08s-18.6,24.49-26.45,37.63a93.35,93.35,0,0,0-13.13,42.86c-1,17.78,2.37,35.37,7.9,52.2.05.15.29.09.24-.07Z"/><path class="cls-12" d="M47.91,383.05c-4.9-16.56-7.38-33.84-5.6-51.09a92.91,92.91,0,0,1,6.07-25.19,115,115,0,0,1,12-21.62c18-26.45,38.34-51.19,53.67-79.41,3.66-6.74,7.53-13.74,10.05-21,.42-1.23.43-3.29,1.39-4.1,1.13-.95,5,0,6.5.09a108.47,108.47,0,0,1,12.8,2c13.81,3,27.79,9.06,37.58,19.55,4.24,4.55,7.57,10,8.69,16.2a37.06,37.06,0,0,1-3.56,23.11C184,248.65,178,255,170.84,258.46s-15.48,4-23.32,4.5c-7.4.49-14.85.76-22.11,2.43a39.48,39.48,0,0,0-9.14,3.18,22.8,22.8,0,0,0-3.29,2c-.55.41-.8,1.07-1.22.46-.3-.44.39-2.82.47-3.39q1.76-12.83,3.63-25.62c1.23-8.33,2.87-16.69,3.28-25.11a54.37,54.37,0,0,0-.57-11.4c0-.15-.27-.09-.25.07,1.85,11.3-.68,22.78-2.34,34q-2.42,16.17-4.59,32.39c0,.12.11.21.21.12,5.11-4.62,12.17-6.37,18.82-7.39,7.28-1.13,14.66-1.22,22-1.86,6-.53,12.2-1.31,17.75-3.79a36.65,36.65,0,0,0,14.28-11.94c7-9.54,9.87-23.06,5.28-34.25-3.84-9.37-12.2-16.43-20.79-21.35-13.29-7.63-28.69-10.88-43.88-11.49a.14.14,0,0,0-.13.12c-.4,4.07-2.27,7.78-4,11.44s-3.36,7-5.17,10.47c-3.34,6.38-6.94,12.61-10.73,18.74-7.62,12.33-16,24.19-24.45,35.93s-17.52,23.15-25,35.5A94.1,94.1,0,0,0,42.06,332c-1.78,17.28.7,34.58,5.61,51.16a.13.13,0,0,0,.24-.07Z"/><path class="cls-13" d="M47.42,387.75a126.23,126.23,0,0,1-3.72-45.94,97.49,97.49,0,0,1,15.21-42.13c7.85-12.24,16.87-23.74,25.34-35.54s16.74-23.78,24.17-36.27c3.69-6.2,7.17-12.53,10.36-19a94,94,0,0,0,4.16-9.15c.6-1.64.51-3.85,2.4-4.3s4.24,0,6.1,0c13.85.4,28.15,3.18,40.2,10.3a38,38,0,0,1,12,10.48,22,22,0,0,1,2.89,18.88,25,25,0,0,1-14.7,15.52c-6.55,2.56-14,2.12-20.88,1.79-7.71-.38-15.54-1.12-23.21.18a29.78,29.78,0,0,0-5.18,1.31,27.21,27.21,0,0,1-3.12,1.45l-.55.35a1.48,1.48,0,0,1-.07-1.47,36.62,36.62,0,0,1,.51-3.87q.51-3.85,1-7.71c1.18-8.7,2.44-17.38,3.73-26.07,1.16-7.83,2.18-15.75,1.08-23.65,0-.16-.27-.09-.25.07,1.53,10.89-.86,21.9-2.43,32.66q-2.2,15.24-4.19,30.51a.13.13,0,0,0,.19.11c4.84-3.39,11.19-4,16.92-4.14,6.4-.19,12.77.47,19.16.67,5.48.17,11.24.2,16.48-1.64a26.22,26.22,0,0,0,12-8.76c5.66-7.42,6.34-18,1.11-25.88-4.74-7.09-12.71-11.8-20.43-15-12.55-5.17-26.33-6.74-39.81-6.33a.13.13,0,0,0-.12.09c-.52,3.78-2.24,7.19-3.86,10.6s-3.17,6.48-4.86,9.66c-3.24,6.12-6.74,12.11-10.4,18-7.44,12-15.57,23.49-23.83,34.9S64,290.72,56.78,302.62a95.25,95.25,0,0,0-13.12,37.43,125.54,125.54,0,0,0,3.52,47.76.12.12,0,0,0,.24-.06Z"/><path class="cls-14" d="M46.94,392.45c-6.09-27.5-2.78-56.72,12.22-80.84,7.07-11.36,15.38-22,23.21-32.79,7.65-10.61,15.19-21.32,22.14-32.4,3.54-5.64,6.92-11.37,10.08-17.23q2.14-4,4.15-8.05c1.46-2.95,2.52-6,3.82-9,.84-1.92,2-1.76,4.06-1.94,1.57-.13,3.14-.24,4.72-.31,3.45-.16,6.91-.17,10.36,0a85.49,85.49,0,0,1,19.14,2.93c8.71,2.43,22.69,7.83,22.63,18.89,0,6.3-5.71,10.38-11.38,11.6-6.32,1.37-13.11-.31-19.3-1.59-6.95-1.43-14-3.16-21.17-2.83a23.33,23.33,0,0,0-3.64.43c-1.82.39-2.32,1.31-2.27-1,.09-3.83,1-7.82,1.5-11.63q1.59-12,3.36-24.08c1.09-7.41,2.05-14.87,1.2-22.35,0-.16-.27-.16-.25,0,1.16,10.18-.94,20.38-2.37,30.43-1.41,9.84-2.69,19.7-3.93,29.57,0,.11.11.14.19.11,4.94-2.14,11-1.36,16.2-.59,5.54.82,11,2.21,16.49,3.19,7.72,1.36,17.16,2.2,22.93-4.33,4.7-5.31,2.59-12.75-2.21-17.18-5.49-5.06-13.13-7.8-20.26-9.53-11.68-2.85-23.89-3-35.79-1.61,0,0-.11,0-.12.09-1.12,6.49-5.18,12.85-8.27,18.59s-6.55,11.59-10.08,17.23c-7,11.22-14.67,22-22.42,32.77S65.93,300.25,59,311.48A98.23,98.23,0,0,0,45.24,348a118.21,118.21,0,0,0,1.46,44.51c0,.16.27.09.24-.06Z"/><path class="cls-15" d="M46.45,397.14c-4.45-25-.13-51.75,13-73.57,6.14-10.21,13.5-19.68,20.49-29.31s14-19.35,20.51-29.33a300.35,300.35,0,0,0,17.92-30.69c1.12-2.24,2-4.51,3-6.79.89-2,2-2,4.07-2.38,1.51-.28,3-.54,4.56-.76A116,116,0,0,1,148.28,223c8.78.09,18.91.88,26.77,5.22,1.82,1,5.31,3.3,4.58,5.87-.91,3.24-7.11,2.55-9.52,2.14-5.29-.9-10.34-3.26-15.26-5.31-5.91-2.48-11.93-5.14-18.29-6.23a22.35,22.35,0,0,1-3.24-.33c-.73-.25-.45.62-.82-.8a12.18,12.18,0,0,1,.35-2.91c.43-3.56.87-7.11,1.32-10.67,1-7.41,2-14.81,3-22.2.94-6.65,1.73-13.33,1.16-20,0-.16-.26-.16-.25,0,.83,9.77-1.13,19.5-2.46,29.14-1.27,9.21-2.42,18.43-3.53,27.66,0,.07.07.13.13.13,4.16-.3,8.46,1.14,12.35,2.47,4.63,1.58,9.09,3.6,13.61,5.45,3.93,1.6,8,3.3,12.21,3.95,2.48.38,6.11.68,8.31-.91,4.37-3.14-3.35-7.65-5.85-8.71-6.3-2.66-13.39-3.64-20.17-4a119.68,119.68,0,0,0-31.12,2.73.12.12,0,0,0-.09.08c-1.38,6.35-5.35,12.48-8.48,18.12q-4.44,8-9.35,15.66c-6.71,10.58-14,20.83-21.29,31S67.31,310.5,60.64,321.11a102.78,102.78,0,0,0-13.71,34,110.9,110.9,0,0,0-.72,42.11c0,.16.27.09.24-.07Z"/><path class="cls-16" d="M46,401.88c-3.16-24.19,3.16-49.69,16.09-70.24,6.26-9.94,13.48-19.27,20.35-28.78,7-9.69,14-19.45,20.44-29.5,3.27-5.07,6.43-10.21,9.41-15.45,2.69-4.7,5.63-9.52,7.58-14.59.65-1.66,1.11-2.48,2.93-3,1.32-.41,2.65-.81,4-1.19,2.82-.8,5.65-1.53,8.51-2.18a140.53,140.53,0,0,1,17.92-2.9,123.41,123.41,0,0,1,13-.55q2.25,0,4.5.15c1.35.08,3.91.79,5.16.16,1.78-.89-1.89-2.55-2.62-3-4.3-2.67-8.46-5.46-12.56-8.42-5.19-3.76-10.34-7.56-15.86-10.82-1.12-.66-2.26-1.3-3.41-1.9-1.63-.86-2-.85-1.91-2.92.15-3.39.78-6.83,1.19-10.2q1.31-10.87,2.84-21.72c.92-6.55,1.77-13.11,1.42-19.73,0-.16-.26-.16-.25,0,.49,9.18-1.26,18.29-2.47,27.35-1.18,8.74-2.22,17.49-3.2,26.24a.11.11,0,0,0,.06.11c8,3.68,15.1,9.21,22.21,14.34,3.49,2.51,7,4.95,10.67,7.18.94.58,4.86,2.51,2.65,3.31-1.19.43-3.4-.21-4.74-.27a121.16,121.16,0,0,0-21.37,1,141.69,141.69,0,0,0-14.17,2.58c-2.13.5-4.26,1-6.37,1.63-1,.28-2,.57-3.06.87s-3.69.62-4.47,1.4c-.55.54-.89,2.57-1.19,3.29-1.06,2.5-2.37,4.89-3.64,7.27q-3.5,6.52-7.34,12.87c-5.12,8.49-10.65,16.75-16.33,24.88s-11.59,16.19-17.44,24.25-11.85,16.13-16.61,24.92c-10.32,19-15,42.13-12.19,63.65,0,.15.27.15.25,0Z"/><path class="cls-17" d="M45.49,406.57c-1.79-23,6.35-46.91,18.76-66.07,6.26-9.67,13.3-18.84,20-28.18s13.28-18.58,19.46-28.18c3.12-4.84,6.14-9.75,9-14.74q2-3.43,3.84-6.93c1.28-2.4,2.09-5.77,4.54-7.1,4.91-2.69,10.51-4.57,15.75-6.53s10.33-3.65,15.55-5.32c3.85-1.23,7.74-2.39,11.53-3.82,2.94-1.1,6.1-2.41,8-5,5.06-6.74-3.79-15.73-7.75-20.68s-8.11-9.84-12.35-14.6c-1.61-1.81-3.79-3.68-5-5.79-1-1.76-.33-4.28-.12-6.19l.54-4.86q1.17-10.44,2.59-20.83a125.52,125.52,0,0,0,1.66-19.35.13.13,0,0,0-.25,0c.21,11.8-2.32,23.64-3.69,35.32-.33,2.75-.64,5.51-.94,8.26-.16,1.46-.32,2.92-.47,4.38a5.72,5.72,0,0,0-.07,2.72c.58,1.42,2.34,2.85,3.35,4,2,2.23,4,4.44,5.92,6.68Q160.84,210,166,216.56c3,3.9,7.35,8.7,7.28,13.95s-5.64,7.6-9.83,9.14c-3.75,1.38-7.59,2.53-11.4,3.75a283.18,283.18,0,0,0-29.71,11.17c-.81.37-2.42.72-3,1.39a12.17,12.17,0,0,0-1,2.6,93.32,93.32,0,0,1-4.36,8.28c-2.74,4.89-5.62,9.68-8.62,14.42-12,19-26,36.67-38.7,55.25-13.8,20.23-23.29,45.26-21.36,70.06,0,.16.26.16.25,0Z"/><path class="cls-18" d="M45,411.27c-.22-11.56,2.71-22.72,6.79-33.45a145.51,145.51,0,0,1,16-30.41c12.87-18.85,27-36.76,39.23-56.08,3-4.77,5.93-9.61,8.67-14.54,1.17-2.1,1.91-4.74,3.85-6.23a83.57,83.57,0,0,1,7.57-4.67c8.89-5.38,18.07-10.33,26.74-16.07,6.79-4.5,13.13-9.82,15.89-17.77,3.22-9.3.23-18.64-3.56-27.26-2.59-5.88-5.51-11.61-8.37-17.35-1.39-2.78-2.77-5.57-3.91-8.46-1.19-3-.29-6.63,0-9.81.67-6.49,1.4-13,2.25-19.45a185.23,185.23,0,0,0,2-19.94.13.13,0,0,0-.25,0c-.26,11.54-2.51,23.05-3.76,34.52q-.47,4.38-.9,8.76a17.9,17.9,0,0,0-.38,3.9,12.59,12.59,0,0,0,1,2.8c1.92,4.72,4.38,9.21,6.63,13.78,4.78,9.68,10.94,20.43,10.27,31.58-.64,10.57-7.62,18-15.94,23.68-8.49,5.78-17.59,10.65-26.38,15.94-2.37,1.43-4.74,2.87-7.09,4.34a15.91,15.91,0,0,0-3.25,2,11.45,11.45,0,0,0-1.06,2.42A156.19,156.19,0,0,1,108.76,288C96.85,307.33,83,325.29,69.94,343.83a152.66,152.66,0,0,0-17.56,31.8c-4.51,11.39-7.85,23.3-7.62,35.64a.13.13,0,0,0,.25,0Z"/><path class="cls-19" d="M44.52,416c.57-11.73,4.89-22.66,9.9-33.14a197.78,197.78,0,0,1,17.5-29.27C85.16,334.91,99,316.7,111.05,297.21c1.5-2.43,3-4.87,4.4-7.36a17.66,17.66,0,0,1,2.44-4,45,45,0,0,1,3.57-3c4.24-3.6,8.49-7.18,12.69-10.82,7.76-6.72,15.58-13.62,21.92-21.75a64.43,64.43,0,0,0,12.29-26.44c2.08-10.08,1.21-20-.9-30-1.31-6.24-2.94-12.41-4.49-18.6-.75-3-1.48-6-2.08-9a33.47,33.47,0,0,1-.42-9.94c1.19-13.05,3.42-26,4.3-39.1,0-.16-.24-.16-.25,0-.77,11.45-2.73,22.81-3.84,34.22-.28,2.93-.56,5.85-.8,8.78-.19,2.3.48,4.74.94,7,1.16,5.59,2.68,11.1,4.05,16.65,2.66,10.78,5.28,21.77,4.28,32.95a63.64,63.64,0,0,1-11.51,31.05c-6,8.4-13.77,15.44-21.49,22.2-4.21,3.69-8.49,7.31-12.76,10.92l-2.82,2.39c-1,.9-2.77,1.93-3.58,3-1.45,2-2.42,4.58-3.69,6.7-11.75,19.66-25.47,38-38.84,56.57-7.43,10.3-14.31,20.82-19.85,32.27-5.2,10.77-9.76,22-10.34,34.11,0,.16.24.16.25,0Z"/><path class="cls-20" d="M44,420.67c1.45-11.72,7.25-22.16,13.1-32.21,5.73-9.83,12.13-19.19,18.78-28.4,13.68-19,27.16-37.91,39.7-57.63,1.64-2.58,4-4.8,6-7.11q2.75-3.15,5.44-6.33c3.67-4.34,7.27-8.74,10.74-13.24a171,171,0,0,0,18.08-28.14,130.29,130.29,0,0,0,13.46-63.54c-.25-6.57-.76-13.13-1.27-19.68s-1.37-13.44-1-20.09c.7-13.33,2.76-26.55,4.34-39.79,0-.16-.23-.16-.25,0-1.43,12-3.07,23.86-4,35.88-.93,11.58.75,23.26,1.51,34.82s1,23.37-.82,35a130.22,130.22,0,0,1-10.11,33.07c-9.57,21.06-24.78,38.9-39.94,56.14-3.46,3.94-5.9,8.82-8.76,13.22q-4.86,7.47-9.95,14.78C92.32,337,85.41,346.52,78.52,356c-7.61,10.5-15.06,21.08-21.6,32.3C51,398.42,45.25,408.9,43.79,420.67c0,.16.23.15.25,0Z"/><path class="cls-21" d="M43.55,425.4c2.49-11.77,9.93-21.62,16.69-31.28,7-10,14.13-19.87,21.28-29.74,14.37-19.87,28.76-39.76,41.77-60.57,12-19.2,22.85-39.23,31.24-60.29a245.45,245.45,0,0,0,16.41-66.9c2.79-28.2,2-56.73,7-84.71,0-.16-.22-.23-.24-.07-4.36,24.34-4.36,49.11-6.11,73.71-1.72,24.17-6.14,47.62-14.47,70.41-16.37,44.79-43.95,84.15-71.67,122.52-8,11-16,22-23.82,33.18-7.3,10.38-15.67,21-18.35,33.67,0,.16.2.23.24.07Z"/><path class="cls-22" d="M45.85,421.55c2.48-11.21,9.58-20.58,16.06-29.79,6.75-9.59,13.66-19.07,20.57-28.55,13.9-19.07,27.82-38.16,40.45-58.11,11.61-18.34,22.11-37.46,30.32-57.58a237.78,237.78,0,0,0,16.37-63.75c3-27,2.61-54.35,7.72-81.12,0-.16-.22-.22-.25-.07-4.41,23.16-4.72,46.78-6.66,70.21-1.91,23.1-6.37,45.49-14.5,67.23-16.06,42.87-42.71,80.55-69.46,117.3-7.84,10.76-15.71,21.5-23.4,32.37-6.94,9.81-14.82,19.82-17.46,31.8,0,.16.21.22.24.06Z"/><path class="cls-23" d="M48.16,417.71c2.45-10.65,9.22-19.56,15.42-28.31,6.43-9.06,13-18,19.58-27,13.33-18.14,26.7-36.29,38.89-55.23,11.33-17.62,21.64-36,29.77-55.3a230.81,230.81,0,0,0,16.5-61.14c3.22-25.75,3.19-51.86,8.38-77.36a.12.12,0,0,0-.24-.06c-4.48,22-5.09,44.57-7.24,66.91-2.12,22.06-6.64,43.43-14.63,64.14-15.88,41.14-41.78,77.24-67.7,112.55-7.51,10.23-15,20.45-22.42,30.79-6.58,9.24-13.95,18.65-16.55,29.93a.12.12,0,0,0,.24.06Z"/><path class="cls-24" d="M50.46,413.87c2.48-10.25,9-18.8,15.07-27.22,6.29-8.79,12.73-17.48,19.16-26.16,12.76-17.22,25.55-34.44,37.25-52.41,11-16.88,21-34.46,28.94-53a224.66,224.66,0,0,0,16.27-58.29c3.29-24.19,3.71-48.75,8.92-72.67a.13.13,0,0,0-.24-.07c-4.59,21.1-5.48,42.7-7.87,64.09a232,232,0,0,1-14.76,60.69c-15.57,39.06-40.46,73.35-65.32,106.91-7.09,9.59-14.21,19.15-21.17,28.83-6.49,9-13.83,18.2-16.49,29.21,0,.16.21.23.24.07Z"/><path class="cls-25" d="M52.77,410c2.46-9.69,8.68-17.77,14.43-25.74,6-8.26,12.06-16.43,18.17-24.59,12.28-16.42,24.61-32.83,35.93-49.94,21.37-32.29,38.63-67.21,44.53-105.8,3.51-23,4.31-46.37,9.61-69.08a.12.12,0,0,0-.24-.06c-4.61,19.75-5.83,40-8.37,60.1A225.43,225.43,0,0,1,152,252.79C136.76,290,112.79,322.62,88.87,354.6c-7,9.31-13.94,18.61-20.76,28-6.13,8.45-13,17-15.58,27.34,0,.15.2.22.24.07Z"/><path class="cls-26" d="M55.07,406.18c2.44-9.13,8.33-16.74,13.8-24.25,5.73-7.86,11.59-15.64,17.45-23.4C98.13,342.91,110,327.3,120.93,311c20.54-30.54,37.35-63.53,43.6-100.1,3.71-21.73,4.89-43.87,10.28-65.31,0-.16-.2-.23-.24-.07-4.8,19.1-6.27,38.77-9.15,58.2a216.63,216.63,0,0,1-15.31,54.7c-15.1,34.91-38,65.58-60.83,95.75-6.54,8.65-13.09,17.29-19.5,26.05-5.85,8-12.34,16.11-15,25.86a.12.12,0,0,0,.24.06Z"/><path class="cls-27" d="M57.38,402.34c2.46-8.72,8.15-16,13.44-23.16,5.5-7.46,11.12-14.83,16.75-22.2,11.24-14.7,22.53-29.38,33-44.66,19.6-28.64,35.95-59.58,42.58-93.93,4-20.63,5.53-41.69,11-62a.12.12,0,0,0-.24-.06c-4.88,18-6.67,36.56-9.76,54.9a210.36,210.36,0,0,1-15.44,51.6c-14.73,32.72-36.51,61.51-58.18,89.85-6.31,8.26-12.63,16.5-18.81,24.85-5.68,7.67-12,15.43-14.61,24.76a.13.13,0,0,0,.24.07Z"/><path class="cls-28" d="M59.69,398.5c2.44-8.16,7.78-14.95,12.8-21.68,5.45-7.31,11-14.53,16.61-21.74,10.57-13.66,21.19-27.3,31.08-41.47,18.84-27,34.75-56.12,41.71-88.55,4.13-19.27,6.09-39,11.66-57.94a.13.13,0,0,0-.24-.07c-4.94,16.81-7.05,34.22-10.34,51.38a203.81,203.81,0,0,1-15.47,48.43c-14.6,31.22-35.82,58.65-56.81,85.76-5.8,7.48-11.59,15-17.27,22.53-5.4,7.22-11.35,14.5-14,23.28a.13.13,0,0,0,.25.07Z"/><path class="cls-29" d="M62,394.65c2.41-7.58,7.4-13.9,12.13-20.16,5.16-6.83,10.44-13.57,15.72-20.31C99.72,341.59,109.66,329,119,316c18.25-25.45,34-52.87,41.47-83.52,4.41-18.17,6.75-36.8,12.46-54.65.05-.15-.19-.22-.24-.07-5.07,15.86-7.5,32.34-11.06,48.56a198.27,198.27,0,0,1-15.7,45.27c-14.41,29.26-34.74,55-54.79,80.51-5.49,7-11,14-16.36,21.1-5,6.63-10.46,13.31-13,21.36,0,.15.19.22.24.06Z"/><path class="cls-30" d="M64.3,390.81c2.53-7.46,7.62-13.65,12.36-19.82s9.78-12.52,14.73-18.73c9.5-11.91,19.06-23.8,28-36.11,17.15-23.49,32.1-48.73,39.77-77,4.57-16.81,7.32-34.09,13.09-50.57.05-.15-.19-.21-.24-.06-5.14,14.67-7.89,30-11.65,45a194.15,194.15,0,0,1-15.93,42.49c-14,27-33.17,50.86-52.06,74.54-5.17,6.48-10.33,13-15.39,19.52-4.94,6.41-10.32,12.86-13,20.63-.06.16.19.22.24.07Z"/><path class="cls-31" d="M66.6,387c2.56-7,7.44-12.87,12-18.69s9.13-11.49,13.75-17.19c8.83-10.87,17.71-21.71,26.13-32.9,16.55-22,31.27-45.56,39.39-72,4.76-15.56,7.93-31.58,13.79-46.8.05-.15-.19-.22-.25-.07C166.13,213,163,227.37,159,241.47a189.58,189.58,0,0,1-16,38.93c-13.8,25.24-32.2,47.52-50.26,69.77-5,6.2-10,12.4-15,18.68-4.39,5.63-9,11.27-11.47,18,0,.15.19.22.24.07Z"/><path class="cls-32" d="M68.91,383.12c2.54-6.46,7.08-11.84,11.36-17.21S88.73,355.47,93,350.29c8.64-10.44,17.35-20.83,25.64-31.56,15.27-19.77,29.12-40.88,37.5-64.56,5.17-14.61,8.76-29.76,14.86-44,.06-.14-.15-.27-.21-.12-5.23,12.25-8.64,25.13-12.75,37.77A189.38,189.38,0,0,1,142,284C128.5,307.49,111,328.23,93.75,349c-4.9,5.91-9.78,11.84-14.55,17.85-4,5.06-8.15,10.13-10.53,16.2-.06.15.18.21.24.06Z"/><path class="cls-33" d="M71.2,379.31c2.52-5.9,6.72-10.83,10.74-15.76,3.85-4.73,7.77-9.41,11.71-14.07,8.16-9.65,16.41-19.23,24.31-29.1,14.75-18.42,28.29-38,37.08-60,5.24-13.12,9.24-26.72,15.34-39.5.07-.15-.15-.28-.22-.13-5.15,10.8-8.82,22.18-13,33.37a193.3,193.3,0,0,1-16.13,33.49C128,309,111.5,328,95.34,347.1c-4.46,5.27-8.91,10.55-13.28,15.9-4.13,5.06-8.49,10.12-11.08,16.18-.06.15.16.28.22.13Z"/><path class="cls-34" d="M73.51,375.47c2.42-5.19,6.14-9.55,9.78-13.92,3.82-4.58,7.71-9.1,11.62-13.61,7.58-8.74,15.25-17.4,22.65-26.3,14.11-16.95,27.23-34.85,36.4-55,5.31-11.66,9.7-23.72,15.79-35,.08-.14-.14-.27-.22-.13-5.41,10.05-9.49,20.7-14.05,31.14a195.2,195.2,0,0,1-15.66,29c-12.75,19.43-28.29,36.79-43.5,54.29-4.24,4.87-8.45,9.75-12.59,14.69-3.85,4.62-7.88,9.22-10.44,14.71-.07.14.15.27.22.13Z"/><path class="cls-35" d="M75.81,371.62c2.45-4.75,6-8.78,9.44-12.81s7-8.06,10.6-12.05c7.21-8.06,14.52-16.05,21.62-24.22,13.16-15.15,25.61-31,35.05-48.81,5.54-10.46,10.37-21.29,16.6-31.38.08-.13-.13-.26-.22-.12-5.48,8.88-9.89,18.34-14.64,27.61a207.81,207.81,0,0,1-15.93,26.23c-12.37,17.3-26.86,32.9-41,48.7-4.12,4.59-8.21,9.2-12.22,13.87-3.48,4-7,8.09-9.48,12.86-.08.14.14.27.21.12Z"/><path class="cls-36" d="M78.12,367.78c2.47-4.29,5.79-8,9.07-11.66s6.43-7.12,9.69-10.65c6.61-7.13,13.31-14.17,19.88-21.34C129.45,310.3,141.59,296,151.53,280c5.6-9,10.77-18.28,17-26.9.09-.13-.13-.26-.22-.13-5.46,7.6-10.12,15.71-15,23.69a237.43,237.43,0,0,1-16.7,24.08c-12,15.15-25.45,29-38.58,43.15q-5.39,5.81-10.68,11.7c-3.4,3.81-6.87,7.61-9.43,12.06-.08.14.14.27.22.13Z"/><path class="cls-37" d="M80.42,363.94c4.72-7.27,11.4-13.45,17.4-19.65S110,331.92,116,325.72c11.79-12.06,23.32-24.39,33.49-37.87,6.06-8,11.8-16.32,18.35-24,.1-.12-.08-.3-.18-.18-11.23,13.15-20.59,27.72-32,40.71C123.94,317.67,111.29,330,99,342.72c-6.46,6.66-13.7,13.28-18.77,21.09-.09.14.12.26.21.13Z"/><path class="cls-38" d="M82.73,360.09c6-8,13.74-14.84,20.89-21.75,7.36-7.12,14.85-14.11,22.22-21.22,7.14-6.88,14.19-13.86,21-21.11s13.27-14.59,20.41-21.4a.12.12,0,0,0-.18-.17c-7.25,6.92-13.89,14.42-20.74,21.74S132.23,310.63,125,317.62s-14.86,14.1-22.22,21.22c-6.93,6.71-14.43,13.38-20.23,21.13-.1.13.12.25.22.12Z"/><path class="cls-39" d="M85,356.28c5.7-6.47,12.25-12.27,18.64-18,6.79-6.13,13.72-12.09,20.69-18,13.88-11.79,27.59-24,42.21-34.83.13-.1,0-.32-.13-.22-14.38,10.69-27.86,22.66-41.51,34.25-7,5.92-13.92,11.88-20.72,18-6.64,6-13.44,12-19.35,18.68-.11.12.07.3.17.18Z"/><path class="cls-40" d="M87.32,352.43a378.74,378.74,0,0,1,78.6-56.31c.14-.08,0-.29-.13-.22a379.18,379.18,0,0,0-78.65,56.36c-.12.11.06.28.18.17Z"/><path class="cls-41" d="M90.06,348.42c23.22-22.23,49.73-41,77.87-56.47.14-.08,0-.3-.12-.22-28.16,15.48-54.69,34.27-77.93,56.52-.12.11.06.28.18.17Z"/><path class="cls-42" d="M92.8,344.41c22.76-22.41,49.35-41,77.15-56.64.14-.08,0-.3-.13-.22-27.82,15.63-54.43,34.26-77.2,56.69a.12.12,0,0,0,.18.17Z"/><path class="cls-43" d="M95.54,340.4c22.29-22.6,49-41,76.42-56.81a.12.12,0,0,0-.12-.21c-27.48,15.76-54.18,34.24-76.48,56.85a.12.12,0,0,0,.18.17Z"/><path class="cls-44" d="M98.28,336.39c21.82-22.77,48.59-41.08,75.7-57,.14-.08,0-.3-.13-.22-27.12,15.9-53.92,34.23-75.75,57a.12.12,0,0,0,.18.17Z"/><path class="cls-45" d="M101,332.38c10.61-11.4,22.64-21.33,35.14-30.58q19.24-14.25,39.84-26.56a.12.12,0,0,0-.13-.21q-20.94,12.53-40.57,27.09c-12.25,9.11-24,18.89-34.45,30.09-.11.12.06.29.17.17Z"/><path class="cls-46" d="M103.75,328.38c10.39-11.51,22.36-21.4,34.77-30.64q19.11-14.24,39.49-26.67c.13-.09,0-.3-.13-.22q-20.72,12.67-40.21,27.21c-12.17,9.1-23.9,18.84-34.09,30.14-.11.12.07.29.17.18Z"/><path class="cls-47" d="M106.49,324.37c10.07-11.5,21.85-21.28,34-30.42q19.16-14.38,39.49-27.06a.12.12,0,0,0-.13-.21q-20.68,12.92-40.21,27.59c-11.94,9-23.48,18.64-33.36,29.92-.11.12.07.3.17.18Z"/><path class="cls-48" d="M109.23,320.36c9.84-11.59,21.58-21.34,33.67-30.48q19-14.36,39.14-27.16c.13-.09,0-.31-.13-.22q-20.46,13-39.85,27.71c-11.86,9-23.34,18.59-33,30-.11.12.07.3.17.18Z"/><path class="cls-49" d="M112,316.35c9.62-11.69,21.3-21.4,33.31-30.53q18.87-14.34,38.77-27.28c.13-.09,0-.3-.13-.21q-20.23,13.19-39.48,27.82c-11.77,9-23.2,18.54-32.65,30-.1.12.08.3.18.18Z"/><path class="cls-50" d="M114.71,312.34C124,300.67,135.5,291.07,147.3,282q18.91-14.47,38.76-27.66c.14-.09,0-.31-.12-.22q-20.19,13.44-39.47,28.2c-11.57,8.89-22.81,18.36-31.94,29.81-.1.12.08.3.18.18Z"/><path class="cls-51" d="M117.47,308.3c9.16-11.87,20.73-21.51,32.56-30.6q18.61-14.32,38.05-27.51c.13-.09,0-.31-.13-.21Q168.17,263.44,149.18,278c-11.61,9-22.93,18.47-31.93,30.14-.09.12.12.25.22.12Z"/><path class="cls-52" d="M120.21,304.29c8.67-11.61,19.79-21,31.18-29.87q18.95-14.73,38.7-28.4c.14-.1,0-.31-.12-.22q-19.74,13.71-38.76,28.45c-11.4,8.87-22.53,18.28-31.22,29.92-.09.13.12.25.22.12Z"/><path class="cls-53" d="M123,300.28c8.45-11.7,19.52-21.08,30.82-29.92q18.82-14.72,38.34-28.52c.13-.09,0-.31-.13-.22q-19.5,13.86-38.39,28.57c-11.32,8.85-22.39,18.24-30.86,30-.09.13.12.25.22.12Z"/><path class="cls-54" d="M125.69,296.27c8.22-11.79,19.24-21.14,30.46-30q18.69-14.7,38-28.64c.13-.09,0-.31-.12-.21q-19.27,14-38,28.67c-11.23,8.85-22.26,18.22-30.5,30-.09.13.13.25.22.12Z"/><path class="cls-55" d="M128.43,292.26c7.92-11.75,18.74-21,29.76-29.75q18.72-14.85,37.95-29c.13-.1,0-.31-.13-.22q-19.22,14.23-38,29.06c-11,8.75-21.88,18-29.81,29.81-.09.13.13.26.22.12Z"/><path class="cls-56" d="M131.17,288.25c7.69-11.83,18.46-21.07,29.41-29.81q18.57-14.82,37.57-29.13c.13-.09,0-.31-.12-.21q-19,14.37-37.63,29.17c-11,8.74-21.74,18-29.45,29.86-.09.13.13.26.22.12Z"/><path class="cls-57" d="M133.9,284.25c7.55-12.05,18.42-21.34,29.4-30.14q18.3-14.67,36.89-29c.13-.1-.05-.27-.17-.18-12.6,9.75-25.16,19.55-37.57,29.53-10.77,8.66-21.36,17.84-28.76,29.65-.09.14.13.26.21.13Z"/><path class="cls-58" d="M136.64,280.24c7.25-12,17.92-21.21,28.71-29.92q18.33-14.81,36.86-29.38c.12-.1-.05-.27-.18-.17-12.55,9.92-25.1,19.84-37.52,29.91-10.58,8.56-21,17.66-28.08,29.43-.09.14.13.26.21.13Z"/><path class="cls-59" d="M139.38,276.23c7-12.08,17.64-21.27,28.35-30,12.14-9.86,24.33-19.65,36.49-29.48.13-.1-.05-.28-.17-.18-12.39,10-24.81,20-37.16,30-10.5,8.56-20.84,17.65-27.72,29.49-.08.14.13.27.21.13Z"/><path class="cls-60" d="M141,271.43c7-12,17.51-21.2,28.13-29.9q17.81-14.62,35.79-29c.13-.1,0-.28-.17-.18Q186.48,227,168.31,241.9c-10.4,8.55-20.68,17.62-27.49,29.4a.12.12,0,0,0,.21.13Z"/><path class="cls-61" d="M142.68,266.63c6.84-11.84,17.17-20.94,27.59-29.58q17.56-14.56,35.41-28.8c.13-.1-.05-.28-.17-.18-12.11,9.7-24.17,19.45-36.09,29.36-10.2,8.49-20.26,17.48-27,29.07-.08.14.14.27.22.13Z"/><path class="cls-62" d="M144.33,261.83c6.72-11.68,16.87-20.71,27.1-29.29q17.3-14.52,35-28.55c.13-.1,0-.27-.17-.17-12,9.56-23.91,19.22-35.65,29.09-10,8.44-19.89,17.35-26.48,28.79-.08.14.14.27.22.13Z"/><path class="cls-63" d="M146,257c6.68-11.62,16.76-20.65,26.9-29.25q16.9-14.31,34.28-28.05c.12-.1-.06-.27-.18-.17q-17.68,14-34.94,28.61c-9.93,8.44-19.73,17.35-26.27,28.73-.08.14.13.27.21.13Z"/><path class="cls-64" d="M147.62,252.23C154.16,240.8,164,231.83,174,223.3q16.65-14.27,33.89-27.83c.12-.1,0-.27-.18-.17q-17.55,13.86-34.56,28.4a192.35,192.35,0,0,0-14.82,13.87,76.24,76.24,0,0,0-10.91,14.54.12.12,0,1,0,.21.12Z"/><path class="cls-65" d="M149.27,247.43c.68-1.19,1.12-2.38,1.91-3.53,1.06-1.54,2.18-3,3.34-4.5,2-2.5,4.1-4.89,6.29-7.19,4.52-4.75,9.39-9.13,14.33-13.42q16.4-14.21,33.47-27.57c.12-.1-.05-.28-.18-.18-11.59,9.11-23,18.47-34.12,28.14A191.91,191.91,0,0,0,159.74,233c-2.17,2.33-4.25,4.74-6.19,7.27q-1.34,1.73-2.58,3.52c-.8,1.15-1.25,2.37-1.92,3.54a.13.13,0,0,0,.22.12Z"/><path class="cls-66" d="M150.92,242.63c.65-1.15,1-2.34,1.82-3.46q1.48-2.14,3.11-4.2c2-2.53,4.12-5,6.32-7.31,4.54-4.81,9.44-9.28,14.42-13.64q16-14,32.75-27.06c.13-.1-.05-.28-.18-.18q-17.25,13.49-33.74,27.94a190.24,190.24,0,0,0-14.62,14.06c-2,2.16-3.89,4.4-5.69,6.73-1.07,1.39-2.11,2.8-3.08,4.26-.61.9-.83,1.85-1.33,2.74-.08.14.14.26.22.12Z"/><path class="cls-67" d="M152.57,237.84a32.49,32.49,0,0,1,1.47-3c1.09-1.58,2.23-3.11,3.41-4.62,2-2.56,4.16-5,6.39-7.39,4.38-4.67,9.08-9,13.86-13.26q15.74-13.95,32.37-26.84c.13-.1,0-.28-.18-.18-11.41,8.88-22.57,18.11-33.36,27.74a191.16,191.16,0,0,0-14.08,13.67c-2,2.19-3.93,4.46-5.74,6.81-1.09,1.4-2.15,2.84-3.14,4.31-.59.88-.75,1.82-1.22,2.66-.08.14.14.27.22.13Z"/><path class="cls-68" d="M154.21,233c.38-.69.47-1.51.87-2.2a37.43,37.43,0,0,1,2.81-3.93c2.12-2.79,4.39-5.47,6.75-8,4.37-4.77,9.08-9.21,13.89-13.53,10.41-9.37,21.2-18.32,32.27-26.89.13-.1-.05-.28-.18-.18-11.42,8.84-22.54,18.08-33.25,27.78a183.48,183.48,0,0,0-14.08,14c-2,2.19-3.84,4.45-5.61,6.8a42.72,42.72,0,0,0-3.06,4.28c-.33.57-.36,1.36-.62,1.84-.08.14.14.27.21.13Z"/><path class="cls-69" d="M155.86,228.24c.35-.66.39-1.45.76-2.12a34.72,34.72,0,0,1,2.86-4c2.05-2.71,4.24-5.31,6.52-7.82,4.3-4.74,8.92-9.17,13.64-13.48q15.36-14,31.87-26.65c.12-.1,0-.31-.13-.22-11.11,8.56-21.89,17.54-32.24,27a193.71,193.71,0,0,0-14.21,14.16c-2,2.22-3.87,4.52-5.67,6.89a39.71,39.71,0,0,0-3.1,4.33c-.31.54-.3,1.36-.51,1.75-.08.14.14.27.21.13Z"/><path class="cls-70" d="M157.4,223.5h.07a.13.13,0,0,0,.09-.21c-1-.95,5.13-8,5.71-8.7q2.83-3.51,5.92-6.79c4.2-4.52,8.67-8.78,13.23-12.94q14.36-13.11,29.82-24.92c.12-.1,0-.31-.13-.21-11.26,8.61-22.15,17.73-32.52,27.4A181.31,181.31,0,0,0,165.11,212c-2.05,2.4-4,4.88-5.86,7.44-.28.39-2.86,3.78-1.85,3.82-.16,0-.16.24,0,.25Z"/><path class="cls-71" d="M159,218.66c-1.34-1.11,10.3-14,11.61-15.44,4-4.38,8.29-8.53,12.65-12.57q14.25-13.2,29.75-25c.12-.09,0-.31-.13-.21a393.39,393.39,0,0,0-32.72,27.75A180.1,180.1,0,0,0,166,208.06c-.93,1.11-8.53,9.78-6.94,10.67.12.06.26-.11.15-.2l-.05,0c-.12-.1-.3.07-.18.17Z"/><path class="cls-72" d="M160.59,213.84c-.45-1.06,1.94-3.67,2.49-4.43,1.06-1.44,2.16-2.86,3.28-4.25,1.89-2.35,3.86-4.62,5.88-6.84,4-4.34,8.15-8.46,12.43-12.47a363.75,363.75,0,0,1,29-24.43c.13-.09,0-.31-.13-.21a356.9,356.9,0,0,0-32.35,27.57A181.27,181.27,0,0,0,167,203.93c-.86,1-8,9.54-6.34,10,.11,0,.18-.09.14-.19l0-.08c-.07-.14-.28,0-.22.13Z"/><path class="cls-73" d="M162.23,209c-.22-1.39,1.63-3.26,2.37-4.27q1.58-2.15,3.24-4.21c1.85-2.32,3.79-4.58,5.78-6.78,3.88-4.31,8-8.42,12.18-12.41a330.22,330.22,0,0,1,28.63-24.18c.13-.09,0-.31-.13-.21a325.69,325.69,0,0,0-32.2,27.62,181.75,181.75,0,0,0-13.88,15.09c-2,2.45-4.42,5.06-5.9,7.85-.27.52-.91,1.58,0,1.71a.12.12,0,0,0,.12-.16V209c0-.16-.27-.1-.24.06Z"/><path class="cls-74" d="M163.87,204.18c0-1.56,1.43-3,2.31-4.19s2-2.63,3-3.91q2.65-3.36,5.51-6.57c3.89-4.4,8-8.6,12.24-12.67a298.16,298.16,0,0,1,28.23-23.93c.13-.1,0-.32-.12-.22a297.16,297.16,0,0,0-31.84,27.45,183.11,183.11,0,0,0-13.92,15.41c-1.78,2.23-4.17,4.68-5.42,7.25-.24.5-.92,1.65.14,1.66a.13.13,0,0,0,.12-.12v-.16a.13.13,0,0,0-.25,0Z"/><path class="cls-75" d="M165.52,199.38c.19-2.74,3.61-6,5.27-8.11q2.7-3.41,5.57-6.67c3.83-4.36,7.86-8.53,12-12.57a272.42,272.42,0,0,1,27.51-23.38c.13-.1,0-.32-.12-.22a271.89,271.89,0,0,0-31.15,27,192.15,192.15,0,0,0-13.72,15.35c-1.81,2.27-4.26,4.73-5.5,7.35-.24.52-.88,1.71.23,1.61a.12.12,0,0,0,.12-.13l0-.19c0-.16-.24-.16-.25,0Z"/><path class="cls-76" d="M167.17,194.58a3.47,3.47,0,0,1,.78-2.18c.43-.61.88-1.22,1.32-1.83q1.47-2,3-3.93c1.76-2.25,3.59-4.45,5.46-6.61,3.75-4.33,7.69-8.49,11.77-12.51a251.08,251.08,0,0,1,27.12-23.13c.13-.1,0-.31-.12-.22a250.51,250.51,0,0,0-31,27,197.27,197.27,0,0,0-13.69,15.63c-.84,1.08-1.67,2.17-2.48,3.26-.7.93-2.6,2.75-2.72,3.89-.08.68-.06,1.09.68,1a.13.13,0,0,0,.1-.12l0-.23c0-.16-.24-.16-.25,0Z"/><path class="cls-77" d="M168.82,189.75l-.12-1,.8-1.12,1.08-1.48c1-1.34,2-2.68,3-4q2.68-3.44,5.51-6.75,5.5-6.45,11.52-12.44a232.08,232.08,0,0,1,26.72-22.88c.13-.09,0-.31-.12-.22a231.43,231.43,0,0,0-30.62,26.86c-4.64,4.87-9.05,9.95-13.18,15.25-1,1.21-1.88,2.44-2.8,3.67-.59.81-2.4,2.55-2.48,3.56-.05.68,0,1.11.78.92,0,0,.08,0,.08-.08l.05-.27c0-.16-.22-.23-.24-.07Z"/><path class="cls-78" d="M170.47,185c-.37-.48-.36-.89,0-1.22L171,183l1.27-1.74q1.53-2.07,3.12-4.11c1.68-2.16,3.4-4.28,5.16-6.38,3.62-4.29,7.41-8.45,11.36-12.44a214,214,0,0,1,26.18-22.48c.12-.09,0-.31-.13-.22a214.57,214.57,0,0,0-29.83,26.25q-6.81,7.24-12.92,15.1c-.89,1.14-1.77,2.3-2.64,3.46s-2.68,2.76-2.87,4.07c-.11.77.1,1.1.86.88a.12.12,0,0,0,.09-.08l.06-.31c0-.16-.21-.23-.24-.07Z"/><path class="cls-79" d="M170.19,186.45a1.09,1.09,0,0,1,.07-1.44l.5-.76,1.24-1.88c.84-1.25,1.68-2.5,2.54-3.73,1.61-2.35,3.27-4.66,5-6.95q5.43-7.33,11.35-14.28a243.55,243.55,0,0,1,23.83-24.25c.12-.11-.06-.29-.18-.18a246,246,0,0,0-27.8,29q-6.22,7.65-11.87,15.76c-.94,1.36-1.87,2.72-2.79,4.1-.65,1-2.49,2.88-2.56,4,0,.72,0,1.13.81,1a.14.14,0,0,0,.09-.09l.05-.25c0-.16-.21-.23-.24-.07Z"/><path class="cls-80" d="M169.91,188a1.45,1.45,0,0,1,.12-1.65l.48-.8q.59-1,1.2-2,1.2-2,2.42-4,2.33-3.74,4.73-7.41,4.88-7.44,10.12-14.62a300,300,0,0,1,22.26-27c.11-.12-.07-.29-.18-.18a303.37,303.37,0,0,0-24.68,30.38q-6,8.4-11.48,17.16c-1.71,2.73-4.17,5.74-5.32,8.76-.26.66-.77,1.81.41,1.73a.14.14,0,0,0,.12-.09l0-.2c0-.16-.21-.23-.24-.07Z"/><path class="cls-81" d="M169.63,189.45a1.86,1.86,0,0,1,.17-1.86c.15-.28.3-.57.46-.85.38-.71.76-1.42,1.15-2.12l2.32-4.22q2.33-4.16,4.72-8.29,4.59-7.87,9.45-15.59c6.24-9.86,12.86-19.49,19.92-28.78.1-.13-.12-.25-.21-.13-8.1,10.65-15.6,21.73-22.62,33.1q-5.46,8.83-10.54,17.9c-1.65,2.94-4,6.1-5.1,9.28-.24.69-.77,1.79.37,1.87a.15.15,0,0,0,.12-.1l0-.14c0-.16-.2-.23-.24-.07Z"/><path class="cls-82" d="M169.35,191c.54-1.76.39-2.42,1.09-3.84.36-.73.72-1.47,1.09-2.21l2.19-4.39q2.17-4.33,4.41-8.65,4.23-8.22,8.65-16.35c5.61-10.31,11.45-20.48,17.61-30.46a.13.13,0,0,0-.22-.13c-7.06,11.45-13.7,23.14-20,35q-5,9.3-9.74,18.72-2.43,4.83-4.82,9.68c-.33.68-1.52,2.57-.15,2.88a.14.14,0,0,0,.16-.09l0-.1a.13.13,0,0,0-.25-.06Z"/><path class="cls-83" d="M169.09,192.42c.47-.94.52-2.86,1-4l1-2.27,2-4.52q2-4.46,4-8.92,4.06-8.91,8.18-17.78Q193,138.53,201,122.35c.07-.14-.14-.27-.21-.13q-9.11,18.5-17.71,37.23-4.67,10.08-9.24,20.21-2.25,5-4.48,10c-.36.81-1.42,2.52-.17,3a.12.12,0,0,0,.14-.06l0,0c.07-.14-.15-.27-.22-.12Z"/><path class="cls-84" d="M169,193.89c-1.34-1.29,2.31-7.85,2.9-9.32,1.36-3.33,2.7-6.66,4.05-10q3.82-9.53,7.6-19.06,7.08-17.91,14-35.89c.06-.15-.18-.22-.24-.07q-7.41,19.29-15,38.51-4.07,10.27-8.21,20.51-2.12,5.26-4.27,10.52c-.54,1.33-2.26,3.72-1,5,.12.11.29-.07.18-.18Z"/><path class="cls-85" d="M168.77,195.48c-.2-2.95,1.15-5.54,2.17-8.29q2-5.3,3.85-10.62,3.69-10.33,7.18-20.76,6.47-19.32,12.13-38.88a.13.13,0,0,0-.25-.07q-5.83,20.25-12.57,40.21-3.59,10.68-7.39,21.27-2,5.57-4,11.11c-.52,1.4-1.49,3.05-1.66,4.55-.12,1.09.29.72.34,1.48,0,.16.26.16.25,0Z"/><path class="cls-86" d="M168.49,197a13.52,13.52,0,0,1,.29-3.37c.54-1.9,1.29-3.76,1.91-5.64q1.86-5.59,3.63-11.21,3.38-10.72,6.4-21.54c3.78-13.54,7.13-27.21,9.94-41,0-.16-.21-.23-.24-.07-2.9,14.24-6.38,28.35-10.32,42.34q-3.12,11.07-6.61,22-1.78,5.63-3.67,11.23c-.57,1.69-1.66,3.78-1.85,5.56-.09.78.29,1.06.27,1.64,0,.16.24.16.25,0Z"/><path class="cls-87" d="M168.21,198.44c-.43-2.17.59-4.34,1.21-6.38s1.15-3.79,1.71-5.69q1.67-5.64,3.21-11.32,3-11.07,5.54-22.25c3.07-13.65,5.57-27.42,7.35-41.29,0-.16-.23-.16-.25,0a446.17,446.17,0,0,1-8,44q-2.59,11.22-5.68,22.32-1.59,5.7-3.29,11.35c-.88,2.94-2.67,6.31-2.07,9.36,0,.16.27.09.24-.07Z"/><path class="cls-88" d="M167.93,200c-.4-4,1.7-8.49,2.71-12.29s2-7.54,2.85-11.33q2.81-11.79,5-23.73a373.06,373.06,0,0,0,5.34-43.82c0-.16-.24-.16-.25,0a375.72,375.72,0,0,1-5.66,45.59q-2.16,11.72-5,23.3-1.44,5.94-3,11.82c-.91,3.38-2.56,7-2.21,10.46,0,.16.27.16.25,0Z"/><path class="cls-89" d="M167.66,201.48c-.16-3.91,1.39-7.83,2.3-11.61q1.48-6.18,2.77-12.41,2.58-12.4,4.33-25a333,333,0,0,0,3.3-46.36.13.13,0,0,0-.25,0,334.7,334.7,0,0,1-3.55,48.16q-1.78,12.35-4.37,24.55-1.31,6.22-2.82,12.41c-.83,3.41-2.11,6.74-2,10.24a.13.13,0,0,0,.25,0Z"/><path class="cls-90" d="M167.38,203c0-4.32,1.48-8.61,2.37-12.83s1.7-8.34,2.43-12.53q2.19-12.35,3.48-24.83a308.37,308.37,0,0,0,1.26-49.37c0-.16-.26-.16-.25,0a308.37,308.37,0,0,1-1.26,49.37Q174,166.2,171.6,179.48q-1.14,6.28-2.5,12.53c-.8,3.66-2,7.23-2,11a.13.13,0,0,0,.25,0Z"/><path class="cls-91" d="M167.1,204.48c.16-4.41,1.41-8.75,2.23-13.1q1.28-6.78,2.29-13.61,1.88-12.74,2.76-25.58a293.85,293.85,0,0,0-.89-51.46c0-.16-.27-.16-.25,0a293.85,293.85,0,0,1,.89,51.46q-.94,13.78-3,27.46-1,6.82-2.37,13.62c-.73,3.75-1.72,7.4-1.86,11.21a.13.13,0,0,0,.25,0Z"/><path class="cls-92" d="M166.82,206c.29-4.77,1.46-9.49,2.24-14.23q1-6.31,1.83-12.66c1.16-9.29,1.9-18.64,2.22-28A284.89,284.89,0,0,0,170.05,98c0-.16-.27-.09-.24.07a284.94,284.94,0,0,1,3,54q-.51,13.56-2.19,27-.9,7.29-2.14,14.54A116,116,0,0,0,166.57,206c0,.17.24.16.25,0Z"/><path class="cls-93" d="M166.55,207.47c.75-9.35,2.81-18.65,3.75-28q1.44-14.44,1.51-29a280.57,280.57,0,0,0-5.2-55.16c0-.15-.27-.09-.24.07a280.39,280.39,0,0,1,5.18,56q-.09,14-1.5,28c-.94,9.38-3,18.67-3.75,28,0,.16.23.16.25,0Z"/><path class="cls-94" d="M166.27,209c1.22-9.63,2.66-19.25,3.42-28.95a294.71,294.71,0,0,0,.82-29.72,279,279,0,0,0-7.33-57.69c0-.16-.28-.09-.24.07a279.05,279.05,0,0,1,7.34,58.57,292,292,0,0,1-.92,29.73c-.76,9.38-2.16,18.68-3.34,28,0,.16.23.16.25,0Z"/><path class="cls-95" d="M166,210.47c2-15.63,3.6-31.25,3.57-47a285.78,285.78,0,0,0-4-47.09q-2.26-13.35-5.85-26.43a.13.13,0,0,0-.24.07,283.4,283.4,0,0,1,9.05,94.92c-.62,8.55-1.71,17.07-2.81,25.57,0,.16.23.16.25,0Z"/><path class="cls-96" d="M165.71,212c4.26-32.43,3.93-65.12-2.46-97.26a279.17,279.17,0,0,0-6.94-27.49c-.05-.15-.29-.09-.24.07a283.92,283.92,0,0,1,12,97.85c-.47,9-1.42,17.92-2.59,26.83,0,.16.23.16.25,0Z"/><path class="cls-97" d="M165.44,213.47a286.36,286.36,0,0,0-4.68-101.12,286.17,286.17,0,0,0-7.89-27.83c-.05-.15-.29-.08-.24.07a285.55,285.55,0,0,1,14.92,100.06q-.45,14.46-2.36,28.82c0,.16.22.16.25,0Z"/><path class="cls-98" d="M164.26,215.73c1.75-16.93,3-33.74,2.1-50.77a278.88,278.88,0,0,0-7.1-49.36q-3.27-14-7.88-27.55c0-.16-.29-.09-.24.06,10.72,31.75,16.27,65.28,15.18,98.81-.31,9.64-1.32,19.22-2.31,28.81,0,.16.24.16.25,0Z"/><path class="cls-99" d="M163.09,218c.56-8.18,1.65-16.29,2.07-24.48a245.41,245.41,0,0,0,0-25.3A272.35,272.35,0,0,0,157.82,119c-2.22-9.27-4.88-18.43-7.92-27.46-.06-.15-.3-.09-.25.06,10.67,31.64,16.67,65,15.41,98.49-.35,9.33-1.59,18.57-2.22,27.88,0,.16.24.16.25,0Z"/><path class="cls-100" d="M161.92,220.26c.19-8.2,1.58-16.33,2-24.53a228.33,228.33,0,0,0-.05-25.23,268.1,268.1,0,0,0-7.52-48q-3.39-13.86-8-27.38c0-.15-.3-.09-.24.06,10.57,31.39,17,64.46,15.65,97.68-.37,9.17-1.93,18.26-2.15,27.43,0,.16.24.16.25,0Z"/><path class="cls-101" d="M160.74,222.52c-.25-8,1.5-16.08,1.95-24.08a211.37,211.37,0,0,0-.05-25.17,262.06,262.06,0,0,0-7.72-47.37q-3.45-13.8-8-27.29c0-.15-.29-.09-.24.07,10.42,31,17.28,63.57,15.93,96.37q-.29,7-1,14c-.48,4.54-1.22,8.91-1.08,13.48,0,.16.26.16.25,0Z"/><path class="cls-102" d="M159.57,224.78c-.43-4.1.37-8.05.86-12.11s.82-8,1-12a200.08,200.08,0,0,0-.08-24.61c-1-16-4.09-31.71-8.05-47.18q-3.47-13.52-7.92-26.74c-.05-.15-.29-.09-.24.07,10.32,30.71,17.61,63,16.19,95.57q-.28,6.75-1,13.46c-.51,4.57-1.51,9-1,13.55,0,.16.27.16.25,0Z"/><path class="cls-103" d="M158.39,227c-.82-3.89.26-7.78.75-11.67.52-4.13.9-8.29,1.14-12.45a187.7,187.7,0,0,0-.13-24.07c-1.09-15.75-4.27-31.27-8.25-46.52q-3.51-13.46-8-26.65c-.05-.15-.29-.08-.24.07,10.33,30.76,18.07,63.08,16.41,95.73-.24,4.64-.64,9.28-1.22,13.89-.5,4-1.58,7.77-.74,11.74,0,.16.28.09.24-.07Z"/><path class="cls-104" d="M157.22,229.28c-1.31-3.56.23-8.05.7-11.74q.77-5.94,1.13-11.93a178.14,178.14,0,0,0-.15-24c-1.15-15.7-4.52-31.14-8.58-46.33q-3.51-13.17-7.87-26.1c0-.15-.29-.08-.24.07,10.24,30.51,18.39,62.52,16.68,94.93q-.37,6.95-1.28,13.83c-.49,3.75-2,7.69-.63,11.34.05.15.29.09.24-.06Z"/><path class="cls-105" d="M156,231.51c-1.5-2.36-.19-5.82.21-8.42q.51-3.32.88-6.66.85-7.62,1-15.28a170.91,170.91,0,0,0-1.93-29.29c-3-20.11-8.78-39.91-15.24-59.16-.05-.16-.29-.09-.24.06,6.51,19.41,12.3,39.37,15.31,59.65A170.56,170.56,0,0,1,157.8,204q-.3,7.65-1.27,15.26-.56,4.25-1.32,8.45c-.34,1.9-.43,2.27.61,3.9.08.14.3,0,.21-.12Z"/><path class="cls-106" d="M154.84,233.75c-1.17-.94-1-1.33-.79-2.83.18-1.25.47-2.49.68-3.74.37-2.2.7-4.42,1-6.63q1-7.59,1.18-15.23a163,163,0,0,0-1.79-29.2c-3.09-20.36-9.09-40.41-15.61-59.9,0-.16-.3-.09-.24.06,6.57,19.65,12.62,39.86,15.68,60.39a162.12,162.12,0,0,1,1.6,31.52,161,161,0,0,1-1.58,16.1c-.38,2.51-.83,5-1.31,7.5-.26,1.35-.13,1.2,1,2.13.13.1.31-.07.18-.17Z"/><path class="cls-107" d="M153.61,236c-1-.29-1,0-1.15-1s.55-2.74.74-3.73q.69-3.74,1.19-7.5.95-7.09,1.23-14.26a155,155,0,0,0-1.71-29.59c-3.16-20.46-9.37-40.57-15.92-60.16-.05-.15-.29-.09-.24.06,6.2,18.55,12,37.53,15.37,56.82a155.27,155.27,0,0,1-1.1,59.22.13.13,0,0,0,.12.16,2.4,2.4,0,0,1,1.41.22.12.12,0,0,0,.06-.24Z"/><path class="cls-108" d="M152.41,238.23a10.41,10.41,0,0,0-1.39.32c-.09-.08.09-.26,0-.45-.19-.57.47-2.17.59-2.78.22-1.08.43-2.17.62-3.26.67-3.74,1.19-7.52,1.56-11.3a144.79,144.79,0,0,0,.39-23.74c-1-15.93-5-31.45-9.34-46.75q-3.88-13.59-8.37-27c-.05-.15-.29-.09-.24.07,6.17,18.49,12.13,37.38,15.58,56.6a148.12,148.12,0,0,1-1.24,59,.13.13,0,0,0,.21.12l1.6-.59c.15,0,.16-.26,0-.25Z"/><path class="cls-109" d="M151.2,240.5c-.08,0-1.92.95-1.73,1.07-.08,0,1.26-5.41,1.35-5.9q1-5.35,1.63-10.78a139.15,139.15,0,0,0,.58-24.15c-1-16.05-5.12-31.65-9.6-47q-3.94-13.54-8.42-26.93c0-.15-.29-.09-.24.07,6.15,18.44,12.24,37.24,15.8,56.39a141.59,141.59,0,0,1-1.39,58.83.12.12,0,0,0,.23.09l1.86-1.42c.15-.05.08-.3-.07-.24Z"/><path class="cls-110" d="M150,242.78c-.23.12-2.21,1.7-2,1.82s1.36-5.32,1.46-5.78q1.07-5.34,1.71-10.75a133.5,133.5,0,0,0,.64-24.07c-1-16-5.29-31.54-9.84-46.86q-4-13.48-8.46-26.84c-.05-.15-.29-.08-.24.07,6.13,18.39,12.35,37.1,16,56.17a135.4,135.4,0,0,1-1.54,58.64c0,.13.17.23.23.1a4.6,4.6,0,0,1,2.13-2.29c.14-.08,0-.3-.12-.21Z"/><path class="cls-111" d="M148.82,245a6.41,6.41,0,0,0-1.95,2c-.68,1.25,0,.29.06-.07.31-1.05.54-2.13.78-3.2q1.26-5.52,2-11.14a127.52,127.52,0,0,0,.95-24.47c-.93-16.15-5.35-31.75-10-47.16q-4.12-13.67-8.64-27.21c-.05-.15-.29-.08-.24.07,6.11,18.35,12.47,37,16.24,56a129.82,129.82,0,0,1-1.69,58.45c0,.15.19.21.24.06a6.3,6.3,0,0,1,2.37-3.11c.13-.09,0-.31-.13-.21Z"/><path class="cls-112" d="M147.63,247.32a7.69,7.69,0,0,0-2.23,2.77c-.5,1.35,0,.4.13,0a31.51,31.51,0,0,0,.81-3.18c.94-4,1.68-8,2.23-12a123.9,123.9,0,0,0,.89-23.5c-.94-16.12-5.51-31.63-10.23-47q-4.18-13.61-8.68-27.11c-.06-.16-.3-.09-.25.06,6.09,18.3,12.58,36.83,16.46,55.75a124.59,124.59,0,0,1-1.84,58.25c0,.16.19.22.24.07a8.55,8.55,0,0,1,2.64-4,.12.12,0,0,0-.17-.18Z"/><path class="cls-113" d="M146.45,249.58a11,11,0,0,0-2.95,4.95c-.05.15.19.22.24.06a119.13,119.13,0,0,0,2.46-55.85,266.62,266.62,0,0,0-7.71-28.58q-4.58-14.7-9.43-29.29c-.05-.16-.3-.09-.24.06q4.85,14.61,9.43,29.29c3,9.58,5.92,19.19,7.8,29.05a119,119,0,0,1,1.9,30,117.75,117.75,0,0,1-2,15.3c-.49,2.45-1,4.88-1.7,7.29-.24.93-1.14,3.51.21.8a11,11,0,0,1,2.17-2.86c.11-.11-.06-.29-.18-.18Z"/><path class="cls-114" d="M145.28,251.85a13.61,13.61,0,0,0-3.2,5.79c-.05.16.19.22.24.07A114.63,114.63,0,0,0,144.94,202c-1.93-9.67-4.9-19.08-7.89-28.46q-4.65-14.62-9.48-29.19c0-.15-.29-.09-.24.06q4.83,14.56,9.48,29.19c3,9.54,6.05,19.1,8,28.93a113.15,113.15,0,0,1-.16,45.12q-.76,3.66-1.77,7.26c-.29,1-1.16,3.51.25.45a13.57,13.57,0,0,1,2.35-3.38c.1-.12-.07-.29-.18-.17Z"/><path class="cls-115" d="M144.11,254.11a16,16,0,0,0-3.45,6.65c0,.15.19.21.24.06a110.48,110.48,0,0,0,2.78-55.48c-2-9.63-5-19-8.06-28.34q-4.73-14.56-9.54-29.09c0-.15-.29-.09-.24.07q5,15,9.84,30c3,9.33,6,18.7,7.95,28.33a109.86,109.86,0,0,1,1.83,29.79,108.74,108.74,0,0,1-2.36,15.64c-.54,2.4-1.46,4.8-1.89,7.21-.46,2.61.55-.8.77-1.25a15.9,15.9,0,0,1,2.3-3.44c.11-.12-.07-.3-.17-.17Z"/><path class="cls-116" d="M142.93,256.37a18.9,18.9,0,0,0-3.69,7.5.13.13,0,0,0,.24.07,106.53,106.53,0,0,0,2.94-55.3c-2-9.6-5.16-18.92-8.23-28.22l-9.6-29c0-.15-.29-.09-.24.07l9.9,29.92c3.13,9.44,6.26,18.91,8.22,28.67a105.62,105.62,0,0,1,1.67,30.16,104.93,104.93,0,0,1-2.58,15.57c-.3,1.21-.62,2.41-.95,3.6-.12.41-.74,3.47-1.08,3.56.3-.08,1.08-2.48,1.31-3a18.51,18.51,0,0,1,2.27-3.47c.1-.13-.08-.31-.18-.18Z"/><path class="cls-117" d="M140.84,260.32a16.25,16.25,0,0,0-3.33,6.68.13.13,0,0,0,.24.07,107,107,0,0,0,3.1-54.91c-2-9.56-5-18.84-8-28.1q-4.8-14.67-9.63-29.32c0-.16-.29-.09-.24.06q4.89,14.89,9.78,29.79c3.07,9.4,6.14,18.84,8.06,28.56a107.42,107.42,0,0,1,1.67,29.73A105.78,105.78,0,0,1,140,258.2c-.56,2.36-1.47,4.69-1.94,7.06-.52,2.62.56-1,.71-1.31A15.54,15.54,0,0,1,141,260.5c.1-.13-.07-.3-.18-.18Z"/><path class="cls-118" d="M138.75,264.27a13.62,13.62,0,0,0-3,5.87.13.13,0,0,0,.24.07,107.79,107.79,0,0,0,3.22-54.69c-1.95-9.78-5-19.28-8.08-28.75s-6.23-19.16-9.37-28.73c0-.15-.29-.09-.24.07q4.71,14.35,9.37,28.73c3.11,9.62,6.23,19.28,8.17,29.22a108.14,108.14,0,0,1,1.69,29.45,104.39,104.39,0,0,1-2.28,14.92c-.54,2.38-1.17,4.75-1.88,7.09-.17.54-1.15,2.92-.17,1.1a20.64,20.64,0,0,1,2.47-4.17c.1-.12-.07-.3-.18-.18Z"/><path class="cls-119" d="M136.67,268.22a11.08,11.08,0,0,0-2.61,5,.13.13,0,0,0,.24.07,108.4,108.4,0,0,0,3.28-54.76c-1.9-9.73-4.91-19.2-7.92-28.63s-6.15-19.08-9.25-28.6c0-.16-.29-.09-.24.06q4.65,14.29,9.25,28.61c3,9.43,6,18.89,7.92,28.62a110.52,110.52,0,0,1,1.78,29.49A104.58,104.58,0,0,1,137,262.65c-.52,2.39-1.13,4.77-1.82,7.12a7.8,7.8,0,0,0-.68,2.78c-.22-1.2,1.64-3.35,2.35-4.15.11-.12-.07-.3-.17-.18Z"/><path class="cls-120" d="M134.58,272.17a8.7,8.7,0,0,0-2.24,4.24.12.12,0,1,0,.24.06A109,109,0,0,0,136,222.1a244.88,244.88,0,0,0-7.56-28c-3.09-9.82-6.26-19.61-9.42-29.4,0-.15-.29-.09-.24.07,3.16,9.79,6.33,19.58,9.42,29.39a248.61,248.61,0,0,1,7.47,27.59,112,112,0,0,1,1.8,28.6,106.63,106.63,0,0,1-2,14.56q-.75,3.61-1.76,7.15c-.15.51-1.3,3.13-1.08,3.52.38.58.62.15.7-1.28a7.55,7.55,0,0,1,1.42-1.9c.11-.12-.06-.3-.17-.18Z"/><path class="cls-121" d="M132.49,276.12a6.37,6.37,0,0,0-1.87,3.42.13.13,0,0,0,.24.07,109.85,109.85,0,0,0,3.46-54.46c-3.59-19.46-10.65-38.39-16.7-57.19-.05-.16-.29-.09-.24.06,6,18.52,12.85,37.13,16.53,56.27a113.63,113.63,0,0,1,1.88,28.63,106.88,106.88,0,0,1-1.94,14.6c-.46,2.26-1,4.51-1.61,6.73-.33,1.18-.8,2.35-1.05,3.54-.56,2.57.83-.84,1.47-1.49a.12.12,0,0,0-.17-.18Z"/><path class="cls-122" d="M130.4,280.07a4.49,4.49,0,0,0-1.51,2.61.12.12,0,0,0,.24.06,110.37,110.37,0,0,0,3.52-54.53c-3.51-19.39-10.44-38.23-16.42-57,0-.15-.29-.09-.24.07,5.85,18.28,12.54,36.66,16.16,55.55a115.79,115.79,0,0,1,1.95,28.66,107.68,107.68,0,0,1-1.87,14.65c-.43,2.11-.91,4.21-1.47,6.3-.32,1.19-.66,2.37-1,3.55-.18.59-.37,1.18-.56,1.76l1.39-1.55a.12.12,0,0,0-.17-.18Z"/><path class="cls-123" d="M128.31,284a2.54,2.54,0,0,0-1.14,1.79.13.13,0,0,0,.24.07A111.2,111.2,0,0,0,131,231.59c-3.4-19.41-10.25-38.29-16.21-57,0-.15-.29-.08-.24.07,5.77,18.15,12.31,36.39,15.86,55.13a117.35,117.35,0,0,1,2,27.93,108.39,108.39,0,0,1-1.75,14.7c-.4,2.12-.88,4.23-1.41,6.32q-.47,1.8-1,3.57c-.32,1.06-1.86,3.52.19,1.92.13-.1,0-.28-.17-.18Z"/><path class="cls-124" d="M126.24,288c-.6.28-.73.43-.8,1,0,.15.2.16.24,0a111.88,111.88,0,0,0,3.69-54.37c-3.32-19.32-10-38.12-15.93-56.77,0-.15-.29-.09-.24.07,5.71,18.06,12.12,36.22,15.59,54.88a119.61,119.61,0,0,1,1.94,27.95A108.82,108.82,0,0,1,129,275.5q-.61,3.19-1.42,6.34c-.31,1.19-.64,2.39-1,3.57-.12.38-1.42,3.31-.2,2.76.15-.07,0-.28-.13-.22Z"/><path class="cls-125" d="M124.22,291.89l-.38-.05a.12.12,0,0,0-.13.12v.16a.13.13,0,0,0,.25,0c5.81-17.34,6.78-36,3.81-54-3.2-19.4-9.85-38.27-15.72-57,0-.15-.29-.08-.24.07,5.69,18.13,12,36.37,15.4,55.11a121.33,121.33,0,0,1,1.78,28,108.45,108.45,0,0,1-1.78,14.48q-.6,3.13-1.4,6.23c-.17.65-2.17,7-1.59,7.05.16,0,.16-.23,0-.25Z"/><path class="cls-126" d="M122.25,295.93c-.27-.72.36-1.75.56-2.38.37-1.16.72-2.33,1-3.5.65-2.35,1.22-4.73,1.7-7.12a106.79,106.79,0,0,0,1.78-12.73,120.82,120.82,0,0,0-1.09-28c-3-19.65-9.69-38.75-15.6-57.67,0-.15-.29-.09-.24.07,5.81,18.63,12.33,37.41,15.45,56.73a120.73,120.73,0,0,1,1.23,28.92,106.84,106.84,0,0,1-2.15,14.46q-.78,3.57-1.83,7.07c-.37,1.23-1.57,3-1.1,4.27,0,.14.3.08.24-.07Z"/><path class="cls-127" d="M120.16,299.91c0-2.15,1.41-4.69,2-6.74.66-2.35,1.22-4.73,1.71-7.12a109.68,109.68,0,0,0,1.78-12.76,122.22,122.22,0,0,0-1-27.63c-2.92-19.72-9.5-38.89-15.38-57.88-.05-.15-.29-.08-.24.07,5.79,18.69,12.24,37.55,15.24,56.94a123,123,0,0,1,1.12,28.5,107.13,107.13,0,0,1-2.15,14.48q-.8,3.59-1.84,7.09c-.49,1.65-1.47,3.32-1.48,5.05a.13.13,0,0,0,.25,0Z"/><path class="cls-128" d="M118.07,303.9c.41-2.26,1.46-4.51,2.1-6.72s1.27-4.73,1.78-7.12a107.7,107.7,0,0,0,1.89-12.77,123.5,123.5,0,0,0-.76-27.71c-2.76-19.94-9.31-39.32-15.21-58.49a.13.13,0,0,0-.25.07c5.73,18.57,12,37.3,14.94,56.57a124.88,124.88,0,0,1,1.11,28.65,107.83,107.83,0,0,1-2.16,14.51c-.46,2.09-1,4.17-1.58,6.22-.65,2.25-1.69,4.42-2.1,6.72,0,.16.21.22.24.07Z"/><path class="cls-129" d="M116,307.85c1.23-4.64,3-9.07,4.06-13.78a106,106,0,0,0,2-12.77,125,125,0,0,0-.64-28.67c-2.68-19.85-9.09-39.14-14.93-58.24,0-.15-.29-.08-.24.07,5.7,18.64,11.92,37.45,14.72,56.8a125.51,125.51,0,0,1,1,28.66,107.75,107.75,0,0,1-2.21,14.53c-1,4.56-2.77,8.84-4,13.33a.13.13,0,0,0,.24.07Z"/><path class="cls-130" d="M113.89,311.8c1.48-4.58,3.15-9,4.23-13.71a107.38,107.38,0,0,0,2.21-13.7,127,127,0,0,0-.61-28.7c-2.61-19.77-8.86-39-14.64-58,0-.15-.29-.09-.24.07,5.68,18.7,11.81,37.58,14.5,57a127,127,0,0,1,.82,28.7A106.62,106.62,0,0,1,117.88,298c-1.08,4.71-2.75,9.13-4.23,13.71-.05.15.19.22.24.07Z"/><path class="cls-131" d="M111.8,315.75a113.06,113.06,0,0,0,6.72-27.35,127.32,127.32,0,0,0-.43-29.2c-2.49-19.85-8.65-39.11-14.41-58.2,0-.15-.28-.08-.24.07,5.76,19.06,11.91,38.31,14.4,58.13a128,128,0,0,1,.52,28.28,112.64,112.64,0,0,1-6.8,28.2c0,.15.19.22.24.07Z"/><path class="cls-132" d="M109.71,319.7c7.14-17.93,9-36.93,6.86-56.06-2.28-20.24-8.45-39.89-14.28-59.33-.05-.16-.29-.09-.24.06,5.82,19.42,12,39,14.27,59.27,2.15,19.1.28,38.09-6.85,56-.06.15.18.22.24.07Z"/><path class="cls-133" d="M107.61,323.68c12.19-28.77,8.62-59.87.92-89.31-2.34-9-5-17.87-7.63-26.76-.05-.15-.29-.08-.24.07,5.75,19.34,11.76,38.86,14,59,2.13,19.31.38,38.9-7.23,56.88-.07.15.15.28.21.13Z"/><path class="cls-134" d="M105.52,327.63c12.61-28.38,9.18-59.9,1.74-89.16-2.35-9.25-5.05-18.4-7.76-27.55a.12.12,0,0,0-.24.06c11.09,37.54,22.82,78.75,6,116.52-.07.15.15.27.21.13Z"/><path class="cls-135" d="M103.43,331.58c13.13-28.48,9.64-60.73,2.24-90.23-2.28-9.11-4.92-18.12-7.56-27.13,0-.15-.29-.09-.24.07,11,37.59,22.7,79.53,5.35,117.16-.07.15.15.27.21.13Z"/><path class="cls-136" d="M102.59,332.81c12.32-28.64,9.69-60.79,2.33-90.34-2.26-9.07-4.93-18-7.66-27-.05-.15-.29-.09-.24.07,11.5,37.68,21.67,79.16,5.36,117.12-.06.14.15.27.21.12Z"/><path class="cls-137" d="M101.77,334c11.53-28.75,9.7-60.89,2.39-90.43-2.23-9-4.93-17.94-7.75-26.81,0-.15-.29-.09-.24.07,6.18,19.44,11.76,39.23,13.19,59.67,1.37,19.43-.54,39.25-7.83,57.43-.06.15.18.21.24.07Z"/><path class="cls-138" d="M100.93,335.25c10.85-29,9.72-61.33,2.38-91-2.19-8.84-4.88-17.55-7.75-26.19,0-.15-.3-.09-.25.06,6.39,19.21,11.68,38.78,13,59.06,1.26,19.6-.69,39.53-7.6,58-.06.15.18.22.24.07Z"/><path class="cls-139" d="M100.09,336.48c10.15-29,9.71-61.46,2.46-91.12-2.15-8.81-4.86-17.46-7.85-26,0-.16-.29-.09-.24.06,6.65,19.08,11.65,38.59,12.77,58.83,1.09,19.65-.87,39.55-7.38,58.19-.06.15.19.21.24.06Z"/><path class="cls-140" d="M99.25,337.72c9.49-29.1,9.66-61.62,2.54-91.25a236,236,0,0,0-7.94-25.86c0-.15-.29-.08-.24.07,6.89,18.85,11.53,38.19,12.53,58.28,1,19.8-1,39.8-7.13,58.69-.05.15.19.22.24.07Z"/><path class="cls-141" d="M98.41,339c8.88-29.13,9.58-61.77,2.62-91.38a198.91,198.91,0,0,0-8-25.68c0-.15-.3-.08-.24.07,14.21,36.94,17,78.84,5.41,116.92,0,.16.19.22.24.07Z"/><path class="cls-142" d="M97.57,340.18a183.45,183.45,0,0,0,6.72-45.46c.4-15.4-.59-31-4-46.06a166.33,166.33,0,0,0-8.1-25.49c-.06-.15-.3-.08-.24.07a169.08,169.08,0,0,1,12,57.89,190.29,190.29,0,0,1-6.63,59c0,.15.2.22.24.06Z"/><path class="cls-143" d="M96.73,341.42a199.36,199.36,0,0,0,6.43-46.17c.38-15.49-.44-31.27-3.89-46.41a142.28,142.28,0,0,0-8-24.42c-.07-.15-.28,0-.22.12,7.92,18.44,11.19,37.91,11.8,57.88a205.61,205.61,0,0,1-6.38,58.93.13.13,0,0,0,.24.07Z"/><path class="cls-144" d="M95.89,342.65A216.26,216.26,0,0,0,102,296.37c.41-15.45-.2-31.31-3.53-46.44a120.65,120.65,0,0,0-8-24.23c-.07-.15-.29,0-.22.12,8.31,18.23,11,37.84,11.54,57.72a222.29,222.29,0,0,1-6.11,59,.12.12,0,0,0,.24.06Z"/><path class="cls-145" d="M95.05,343.89A235.6,235.6,0,0,0,100.88,297c.39-15.46-.06-31.43-3.32-46.59a103.41,103.41,0,0,0-8-23.46c-.07-.14-.29,0-.22.13,8.67,17.83,10.82,37.49,11.27,57.08a240.61,240.61,0,0,1-5.83,59.64.13.13,0,0,0,.24.07Z"/><path class="cls-146" d="M94.21,345.12a255.89,255.89,0,0,0,5.53-47.05c.39-15.43.1-31.43-3-46.6a87.92,87.92,0,0,0-8-23.22c-.07-.14-.29,0-.21.13,9.08,17.43,10.61,37.36,11,56.68a260.46,260.46,0,0,1-5.55,60c0,.16.21.23.24.07Z"/><path class="cls-147" d="M93.37,346.35a278.56,278.56,0,0,0,5.23-47.14c.4-15.44.22-31.49-2.68-46.71a75.52,75.52,0,0,0-8-23c-.08-.14-.29,0-.21.13,9.56,17,10.41,37.45,10.73,56.54a281.78,281.78,0,0,1-5.27,60.09c0,.15.21.22.24.06Z"/><path class="cls-148" d="M92.53,347.59a302.13,302.13,0,0,0,4.94-47.72c.38-15.51.29-31.67-2.51-47A64.32,64.32,0,0,0,87,230.81c-.08-.14-.3,0-.21.12,10,16.4,10.16,37.31,10.45,55.92a305.43,305.43,0,0,1-5,60.67c0,.16.21.22.24.07Z"/><path class="cls-149" d="M91.69,348.82A329.76,329.76,0,0,0,96.34,301c.37-15.55.31-31.7-2.25-47.09-1.28-7.68-3.57-15.26-7.91-21.78-.09-.14-.3,0-.21.12,5.1,7.7,7.38,16.84,8.48,25.92a282.65,282.65,0,0,1,1.7,29.67,331.89,331.89,0,0,1-4.7,60.95c0,.16.22.23.24.07Z"/><path class="cls-150" d="M90.85,350.05a356.47,356.47,0,0,0,4.35-47.93c.37-15.65.29-31.79-2-47.3-1.12-7.6-3.28-15.18-7.86-21.46-.09-.12-.31,0-.22.13,5.41,7.39,7.43,16.59,8.35,25.54,1,9.93,1.45,20,1.57,29.92a361.58,361.58,0,0,1-4.42,61c0,.15.22.22.24.06Z"/><path class="cls-151" d="M90,351.29a390.11,390.11,0,0,0,4.08-49c.32-15.77.24-32-2-47.64-1-7.16-3-14.35-7.65-20-.1-.13-.28,0-.18.17,5.73,7,7.39,16.31,8.17,25.11.89,10,1.34,20.13,1.45,30.2a390.59,390.59,0,0,1-4.13,61.12c0,.16.22.23.24.07Z"/><path class="cls-152" d="M89.17,352.52A424,424,0,0,0,93,303.46c.31-16.13.21-32.68-1.9-48.69-.89-6.8-2.71-13.71-7.45-18.88-.11-.11-.29.06-.18.18,6.18,6.74,7.31,16.23,8,25q1.2,15.07,1.34,30.22a425.85,425.85,0,0,1-3.84,61.19c0,.16.22.23.24.07Z"/><path class="cls-153" d="M88.34,353.72a463.65,463.65,0,0,0,3.5-50.1c.24-16.26.14-32.91-1.87-49.06-.79-6.33-2.44-12.85-7.21-17.39-.12-.11-.3.07-.18.18,6.43,6.1,7.12,15.57,7.75,23.89q1.15,15.5,1.29,31a465.64,465.64,0,0,1-3.53,61.44c0,.16.23.16.25,0Z"/><path class="cls-154" d="M87.5,355c3.74-32.88,4.84-66.68,1.48-99.65-.64-6.19-2-12.75-7.07-16.86-.13-.1-.31.08-.18.18,6.93,5.61,7,15.63,7.56,23.78q1.09,15.49,1.22,31A507.85,507.85,0,0,1,87.25,355c0,.15.23.15.25,0Z"/></g></svg>
