<svg xmlns="http://www.w3.org/2000/svg" width="119.17mm" height="146.75mm" viewBox="0 0 337.8 415.98"><defs><style>.cls-1{fill:#fff;}</style></defs><title>logo færdig hvid</title><g id="Lag_3" data-name="Lag 3"><polygon class="cls-1" points="284.21 164.32 170.26 29.3 56.31 164.32 55.54 163.68 170.26 27.75 170.64 28.21 284.98 163.68 284.21 164.32"/><rect class="cls-1" x="112.46" y="242.83" width="1" height="176.55" transform="translate(-187.18 151.37) rotate(-40.25)"/><path class="cls-1" d="M32.36,225.65v.73H30.87V175.1h1.27l.15.44L54,223.82l21.61-48.28.15-.44H77v.73l.08,49.82v.73H75.59v-.73l-.08-46.37L54.65,225.94l-.15.44h-1l-.15-.44-21-46.66Z"/><path class="cls-1" d="M77.08,227.13H75.59a.74.74,0,0,1-.75-.75v-.73l-.07-42.87L55.33,226.25l-.12.37a.74.74,0,0,1-.71.51h-1a.74.74,0,0,1-.71-.5l-.15-.44L33.11,182.78v43.6a.74.74,0,0,1-.75.75H30.87a.75.75,0,0,1-.75-.75V175.1a.76.76,0,0,1,.75-.75h1.27a.75.75,0,0,1,.71.51l.15.44L54,222,74.9,175.23l.13-.37a.75.75,0,0,1,.71-.51H77a.75.75,0,0,1,.75.75v.73l.08,50.55A.75.75,0,0,1,77.08,227.13Zm-23.7-2.86.6,1.34.6-1.34a.77.77,0,0,1-.6.3h0A.73.73,0,0,1,53.38,224.27Zm22.13-45.74h.16a.75.75,0,0,1,.59.66v-3.32L75,178.77A.76.76,0,0,1,75.51,178.53Zm-43.89-2.64v3.27a.75.75,0,0,1,1.3-.39Z"/><path class="cls-1" d="M89.17,175.83v-.73h1.49v51.28H89.17V175.83Z"/><rect class="cls-1" x="88.42" y="174.35" width="2.99" height="52.78" rx="0.75"/><path class="cls-1" d="M107.08,225.65v.73h-1.49V175.1h1.12l.22.29,34.36,48,.07-47.55v-.73h1.49v.73l-.07,49.82v.73h-1.12l-.22-.29-34.36-47.91Z"/><path class="cls-1" d="M142.78,227.13h-1.12a.76.76,0,0,1-.6-.29l-.22-.29-33-46v45.87a.75.75,0,0,1-.75.75h-1.49a.74.74,0,0,1-.75-.75V175.1a.75.75,0,0,1,.75-.75h1.12a.73.73,0,0,1,.59.3l.23.29,33,46.11.07-46a.76.76,0,0,1,.75-.75h1.49a.76.76,0,0,1,.75.75v.73l-.07,50.55A.75.75,0,0,1,142.78,227.13ZM140.85,224l1.18,1.64v-2.16a.74.74,0,0,1-.52.62A.71.71,0,0,1,140.85,224Zm-34.51-48.13v2.2a.75.75,0,0,1,.51-.6.76.76,0,0,1,.82.26Z"/><path class="cls-1" d="M155.61,226.38h-.74v-.73l.07-49.74v-.74h.75l19.37-.07c11,0,20.13,11.72,20.05,25.64s-8.94,25.72-20.05,25.64Zm.75-1.46h18.7c10.29,0,18.64-10.55,18.56-24.18s-8.2-24.1-18.56-24.17h-18.7Z"/><path class="cls-1" d="M175.17,227.13h-20.3a.74.74,0,0,1-.75-.75v-.73l.07-50.47a.75.75,0,0,1,.75-.75h.75l19.37-.08a18.29,18.29,0,0,1,12.88,5.72c5.08,5.11,8,12.65,7.92,20.68s-2.93,15.76-8,20.83A17.79,17.79,0,0,1,175.17,227.13Zm-19.55-1.5h.51a.75.75,0,0,1-.51-.59Zm1.49-1.46h17.95A15.31,15.31,0,0,0,186,219.35c4.41-4.43,6.91-11.21,6.87-18.6,0-13.07-7.82-23.36-17.81-23.43H157.11Zm-1.42-48.24v.29a.89.89,0,0,1,.28-.3Z"/><path class="cls-1" d="M234.65,175.1h.74v1.47H205.58V200h21.69v1.47H205.58v24.9h-1.49V175.1h30.56Z"/><path class="cls-1" d="M205.59,227.13h-1.5a.75.75,0,0,1-.75-.75V175.1a.76.76,0,0,1,.75-.75h31.3a.75.75,0,0,1,.75.75v1.47a.75.75,0,0,1-.75.75h-29v21.94h20.93a.75.75,0,0,1,.75.75v1.46a.74.74,0,0,1-.75.75H206.34v24.16A.75.75,0,0,1,205.59,227.13Zm-.75-27v1.22a.77.77,0,0,1,.58-.61A.76.76,0,0,1,204.84,200.13Zm0-24.28v.6a.76.76,0,0,1,.52-.6Z"/><path class="cls-1" d="M242.85,175.83v-.66h1.64l-.07.74-.08,28.79c0,11.28,8.28,20.29,18.63,20.22s18.71-8.87,18.63-20.22V175.17h1.64l-.07.74-.07,28.79c0,11.87-9,21.76-20.13,21.68s-20-9.74-20.12-21.68Z"/><path class="cls-1" d="M263.1,227.13H263c-11.43,0-20.79-10.06-20.87-22.43V175.18a.75.75,0,0,1,.75-.75h1.64a.74.74,0,0,1,.56.24.77.77,0,0,1,.19.58l-.08.73-.07,28.72a20.44,20.44,0,0,0,5.81,14.46,17,17,0,0,0,12.07,5A17.2,17.2,0,0,0,275.23,219a19.92,19.92,0,0,0,5.62-14.33V175.18a.75.75,0,0,1,.75-.75h1.64a.73.73,0,0,1,.56.24.77.77,0,0,1,.19.58l-.07.73-.07,28.72a23.38,23.38,0,0,1-6.76,16.51A19.81,19.81,0,0,1,263.1,227.13Zm-19.5-51.2v25.4l.07-25.4Zm38.75,0v25.36l.07-25.36Z"/><path class="cls-1" d="M292.08,175.83v-.73h1.49v49.82h28.32v1.46H292.08V175.83Z"/><path class="cls-1" d="M321.89,227.13H292.08a.75.75,0,0,1-.75-.75V175.1a.76.76,0,0,1,.75-.75h1.49a.76.76,0,0,1,.75.75v49.07h27.57a.75.75,0,0,1,.75.75v1.46A.75.75,0,0,1,321.89,227.13Zm-29.06-1.5h.51a.75.75,0,0,1-.51-.59Z"/><rect class="cls-1" x="151.95" y="237.1" width="36.77" height="0.75"/><polygon class="cls-1" points="64.38 134.34 64 134.02 146.9 37.41 147.27 37.74 64.38 134.34"/><path class="cls-1" d="M93,248v-.31h.62v16.16c0,2.88-2.79,5.58-6.2,5.55a5.94,5.94,0,0,1-6.2-5.55v-.31h.61v.31c0,2.76,2.42,5,5.59,4.93A5.34,5.34,0,0,0,93,263.86Z"/><path class="cls-1" d="M87.46,269.66H87.4c-3.52,0-6.41-2.6-6.44-5.8v-.56h1.11v.56a5,5,0,0,0,5.27,4.68h.06c2.92,0,5.31-2.1,5.34-4.69v-16.4h1.12v16.41C93.82,267,90.84,269.66,87.46,269.66Zm-6-5.86v.06c0,2.92,2.69,5.3,6,5.3h0c3.12,0,5.87-2.47,5.9-5.31V248h-.12v15.91c0,2.86-2.65,5.18-5.83,5.18h-.07a5.48,5.48,0,0,1-5.77-5.18v-.06Z"/><path class="cls-1" d="M113.6,247.7h.31v.62H99.65v9.93h10.42v.62H99.65v9.92h14.26v.62H99V247.7H113.6Z"/><path class="cls-1" d="M114.16,269.66H98.78V247.45h15.38v1.12H99.9V258h10.42v1.12H99.9v9.42h14.26Zm-14.88-.5h14.38V269H99.4V258.62h10.42v-.12H99.4V248.07h14.26V248H99.28Z"/><path class="cls-1" d="M117.47,248.08l-.09-.38H118l.06.25L122.81,268l7.1-20.09.06-.22h.43l.07.22,7.1,20.09L142.28,248l.06-.25H143l-.09.38-5,21.08-.06.25h-.47l-.06-.22-7.16-20.25L123,269.19l-.06.22h-.46l-.06-.25Z"/><path class="cls-1" d="M138.07,269.66h-.85l-.11-.4-6.92-19.57-7,20h-.85l-.11-.44-5.13-21.77h1.17l.11.44,4.52,19.24,6.92-19.68h.81l.12.4,6.81,19.28,4.63-19.68h1.16l-.17.69Zm-.47-.5h.08l0-.06,5-21.15h-.13l0,.06-4.9,20.89L130.22,248h-.06v0l-7.39,20.91L117.84,248h-.14l0,.07,5,21.14h.08v0l7.41-20.93Z"/><path class="cls-1" d="M162.89,247.7h.31v.62H148.94v9.93h10.42v.62H148.94v9.92H163.2v.62H148.32V247.7h14.57Z"/><path class="cls-1" d="M163.45,269.66H148.07V247.45h15.38v1.12H149.19V258h10.42v1.12H149.19v9.42h14.26Zm-14.88-.5H163V269H148.69V258.62h10.42v-.12H148.69V248.07H163V248H148.57Z"/><path class="cls-1" d="M168.63,248v-.31h.61v21.09H181v.62h-12.4V248Z"/><path class="cls-1" d="M181.28,269.66h-12.9V247.45h1.11v21.09h11.79Zm-12.4-.5h11.9V269H169V248h-.11Z"/><path class="cls-1" d="M186.45,248v-.31h.62v21.09h11.78v.62h-12.4V248Z"/><path class="cls-1" d="M199.1,269.66H186.2V247.45h1.12v21.09H199.1Zm-12.4-.5h11.9V269H186.82V248h-.12Z"/><path class="cls-1" d="M218.85,247.7h.31v.62H204.89v9.93h10.42v.62H204.89v9.92h14.27v.62H204.27V247.7h14.58Z"/><path class="cls-1" d="M219.41,269.66H204V247.45h15.39v1.12H205.14V258h10.42v1.12H205.14v9.42h14.27Zm-14.89-.5h14.39V269H204.64V258.62h10.42v-.12H204.64V248.07h14.27V248H204.52Z"/><path class="cls-1" d="M230.35,259.08l-.27-.28-4.88.06v10.55h-.62V258.87h0v-.62h0l0-10.2v-.32h.31l8.81,0c4.55,0,6.38,2.64,6.35,5.65,0,2.76-4.12,5.42-7.63,5.42l-1.54,0c3.64,4,4.66,3.32,8.61,10.25l.25.46h-.71l-.1-.15C235.34,263,234.47,263.64,230.35,259.08Zm-5.15-.84,7.25-.09c3.32,0,7-2.35,7-4.8,0-2.82-1.46-5-5.73-5H225.2Z"/><path class="cls-1" d="M240.19,269.75h-1.27l-.17-.28c-2.41-4.25-3.58-5.33-5.34-7-.88-.82-1.88-1.75-3.25-3.26l-.19-.2-4.52.06v10.55h-1.12l0-22.18,9.36,0a6.88,6.88,0,0,1,5.08,1.77,5.62,5.62,0,0,1,1.53,4.13,4.27,4.27,0,0,1-1.42,3,9.63,9.63,0,0,1-6.46,2.7l-1,0c1,1,1.73,1.69,2.42,2.31,1.74,1.55,3.11,2.77,5.84,7.56Zm-1-.5h.15l0-.1c-2.69-4.71-4-5.85-5.73-7.43a35.91,35.91,0,0,1-2.84-2.76l-.38-.41,2.1,0a9.12,9.12,0,0,0,6.11-2.55,3.79,3.79,0,0,0,1.27-2.62,5.1,5.1,0,0,0-1.39-3.78,6.37,6.37,0,0,0-4.71-1.62l-8.87,0,0,21.18H225V258.62l5.24-.07.34.37c1.35,1.49,2.35,2.41,3.22,3.22,1.8,1.67,3,2.77,5.43,7.08ZM225,258.5V248.07h8.78a6.47,6.47,0,0,1,4.69,1.57,5,5,0,0,1,1.29,3.71,3.74,3.74,0,0,1-1.23,2.61,9,9,0,0,1-6,2.44Zm.5-9.93V258l7-.09a8.44,8.44,0,0,0,5.67-2.29,3.29,3.29,0,0,0,1.09-2.26,4.48,4.48,0,0,0-1.15-3.35,6,6,0,0,0-4.34-1.43Z"/><path class="cls-1" d="M252.7,258.66v10.75h-.62V258.66l-8.37-10.46-.41-.5h.81l.09.13,8.19,10.23,8.06-10.23.09-.13h.81l-.41.5Z"/><path class="cls-1" d="M253,269.66h-1.12V258.75l-9.05-11.3h1.45l.17.23,8,10,8-10.21h1.45l-.73.91L253,258.75Zm-.62-.5h.12V258.58l.05-.07L260.82,248l-.17,0-8.26,10.48L244,248h-.15l.07.09,8.43,10.54Z"/><path class="cls-1" d="M234.35,367.13a21.46,21.46,0,0,0-6.59.7,59.92,59.92,0,0,1-10.23,1.56,72.28,72.28,0,0,1-9.07-.28,17.36,17.36,0,0,0-1.76,0c.4-.23.79-.48,1.19-.72a39.85,39.85,0,0,1,9.93-4.66C223.54,362.07,230.11,362.82,234.35,367.13Z"/><path class="cls-1" d="M264.55,350.3a17.84,17.84,0,0,0-4.87,1,55.73,55.73,0,0,1-13.63,2.93,44.67,44.67,0,0,1-14.14-1.46c-3-.82-5.84-1.78-8.86-1.91C236.15,345.45,251.65,344.7,264.55,350.3Z"/><path class="cls-1" d="M209.83,332.26c1.07,5.71-1.15,11.47-3.1,16.82a120.69,120.69,0,0,1-5.65,13.11c.26-1.1.51-2.21.76-3.32A203.14,203.14,0,0,1,209.83,332.26Z"/><path class="cls-1" d="M220.57,306.75c-1,7.95.15,15.93-.09,23.91a35.11,35.11,0,0,1-2.93,13.82c-.42.89-.86,1.77-1.31,2.65a21.49,21.49,0,0,0-.51-7.12c-.95-4.11-3.37-8-3.87-12.16C210.94,320.23,215.24,312.09,220.57,306.75Z"/><path class="cls-1" d="M258.46,318a54.37,54.37,0,0,1,13.36-1c-5.39,6.71-13.18,10.72-21.24,13.44-4.14,1.4-8.38,2.45-12.58,3.68-2.17.63-4.32,1.32-6.48,2,1.7-1.65,3.22-3.45,5-5a90.12,90.12,0,0,1,10.26-7.78A37.52,37.52,0,0,1,258.46,318Z"/><path class="cls-1" d="M248.3,284.19c-.28.29-.55.58-.81.88-10.79,12.24-10.36,29.46-17,43.63.68-8.69-.9-17.59,1.74-26.06a34,34,0,0,1,6.44-11.7,33.13,33.13,0,0,1,4.31-4.23,22.21,22.21,0,0,1,3-2.13A2.17,2.17,0,0,1,248.3,284.19Z"/><path class="cls-1" d="M294.56,302.25c-7.06,3.21-15.62,2.86-23.19,2.59-3.86-.14-7.71-.45-11.54-.9-1.21-.14-2.44-.28-3.64-.47a13.71,13.71,0,0,1-1.67-.45C267.29,297.31,282.47,293.65,294.56,302.25Z"/><path class="cls-1" d="M320.52,311.49a27.19,27.19,0,0,0-6.62-3,30.8,30.8,0,0,1-10.32-5.39c-5.44-4.57-10-10.48-14.66-15.9a70,70,0,0,1,15.41,5.3C312.44,296.5,316.76,303.71,320.52,311.49Z"/><path class="cls-1" d="M324.48,278.88c-11,4.9-22.86,0-34.43.18C301.31,275.61,313.24,274.56,324.48,278.88Z"/><path class="cls-1" d="M285.52,263.94c5.43-1.8,11.18-1.92,16.84-1.88-5.5,6.25-13.53,9-21,12.14a83.31,83.31,0,0,0-19,11.11,60.75,60.75,0,0,1,9.87-12.93A35.65,35.65,0,0,1,285.52,263.94Z"/><path class="cls-1" d="M325.87,278.36c.35.15.55.7.12.92l-.34.16,0-.11-.12-.92c-.33.17-.67.32-1,.47-11.24-4.32-23.17-3.27-34.43.18a32,32,0,0,0-4.15.3l1.44-.51C299.79,274.57,313.47,273.18,325.87,278.36Z"/><path class="cls-1" d="M325.6,279.33l0,.11c-12.71,6.13-26.13-.93-39.38.87,1.25-.44,2.51-.86,3.78-1.25,11.57-.18,23.39,4.72,34.43-.18C324.85,279,325.23,279.17,325.6,279.33Z"/><path class="cls-1" d="M325.48,278.41l.12.92c-.37-.16-.75-.3-1.12-.45C324.81,278.73,325.15,278.58,325.48,278.41Z"/><path class="cls-1" d="M322.31,312.93a.5.5,0,0,1-.78.61c-3.08-2.81-7.07-3.68-10.85-5.12a26.92,26.92,0,0,1-7.81-4.61c-5.77-4.85-10.57-11.2-15.49-16.89a.1.1,0,0,1,0-.07c.53.11,1.06.22,1.58.35,4.64,5.42,9.22,11.33,14.66,15.9a30.8,30.8,0,0,0,10.32,5.39,27.19,27.19,0,0,1,6.62,3l.93,1.95.79-.61h0Z"/><path class="cls-1" d="M322.26,312.82h0a15.33,15.33,0,0,0-1.72-1.34c-3.76-7.78-8.08-15-16.19-19a70,70,0,0,0-15.41-5.3l-.84-1a.43.43,0,0,0-.33-.17l0-.11a72.37,72.37,0,0,1,17.06,5.7C313.73,296,318.19,304.19,322.26,312.82Z"/><path class="cls-1" d="M322.24,312.83l-.79.61-.93-1.95A15.33,15.33,0,0,1,322.24,312.83Z"/><path class="cls-1" d="M303.43,261.07a.5.5,0,0,1,.35.85c-4.93,6.15-12.24,9.15-19.34,12.06a89,89,0,0,0-23.53,13.7c.45-.8.9-1.59,1.37-2.37a83.31,83.31,0,0,1,19-11.11c7.51-3.16,15.54-5.89,21-12.14h1.07c-.12-.29-.24-.57-.35-.86v-.14Z"/><path class="cls-1" d="M303.08,261.21c.11.29.23.57.35.86h-1.07C302.61,261.79,302.85,261.5,303.08,261.21Z"/><path class="cls-1" d="M303.08,261.07v.14c-.23.29-.47.58-.72.85-5.66,0-11.41.08-16.84,1.88a35.65,35.65,0,0,0-13.37,8.44,60.75,60.75,0,0,0-9.87,12.93c-.72.55-1.43,1.12-2.13,1.7,3.4-6.06,7.32-11.81,12.49-16.46a35.93,35.93,0,0,1,13-7.7C291.27,261.07,297.23,261,303.08,261.07Z"/><path class="cls-1" d="M295.78,301.91a.5.5,0,0,1,0,.86l-.41.19-.09-.19v-.86l-.72.34c-12.09-8.6-27.27-4.94-40,.77a5.39,5.39,0,0,0-.86-.21,3.48,3.48,0,0,0-.91-.07C266.33,296.45,282.88,292.11,295.78,301.91Z"/><path class="cls-1" d="M295.28,302.77l.09.19c-6.39,3-13.82,3-20.75,3q-6-.06-12-.67-2.81-.28-5.6-.65c-.84-.12-3.23-.94-4.39-.69.62-.3,1.26-.59,1.9-.88a13.71,13.71,0,0,0,1.67.45c1.2.19,2.43.33,3.64.47,3.83.45,7.68.76,11.54.9,7.57.27,16.13.62,23.19-2.59C294.8,302.41,295,302.59,295.28,302.77Z"/><path class="cls-1" d="M295.28,301.91v.86c-.24-.18-.48-.36-.72-.52Z"/><path class="cls-1" d="M288.08,286.22l.84,1c-.52-.13-1.05-.24-1.58-.35a.52.52,0,0,1,.41-.8A.43.43,0,0,1,288.08,286.22Z"/><path class="cls-1" d="M287.77,285.94l0,.11a.52.52,0,0,0-.41.8A112.32,112.32,0,0,0,275.23,285c.57-.29,1.14-.56,1.72-.82C280.53,284.59,284.17,285.16,287.77,285.94Z"/><path class="cls-1" d="M290.05,279.06c-1.27.39-2.53.81-3.78,1.25l-.13,0c-.55.08-.83-.65-.46-.9l.2-.07h0A32,32,0,0,1,290.05,279.06Z"/><path class="cls-1" d="M286.14,280.33l.13,0q-3,1.1-6,2.37c-1.12.48-2.22,1-3.32,1.5l-1.86-.2a.47.47,0,0,0-.24,0l0,0a111.27,111.27,0,0,1,10.86-4.54C285.31,279.68,285.59,280.41,286.14,280.33Z"/><path class="cls-1" d="M285.88,279.36l-.2.07A.52.52,0,0,1,285.88,279.36Z"/><path class="cls-1" d="M275.09,284l1.86.2c-.58.26-1.15.53-1.72.82l-.14,0a.52.52,0,0,1-.24-1A.47.47,0,0,1,275.09,284Z"/><path class="cls-1" d="M275.09,285l.14,0c-9.41,4.59-18,10.54-24.65,18.77-.7.34-1.39.68-2.07,1a.46.46,0,0,0-.19.17h0a76.91,76.91,0,0,1,6.31-7.19c-.05.49.67.84.92.33.36-.74.73-1.47,1.1-2.21A77.58,77.58,0,0,1,274.82,284l0,0A.52.52,0,0,0,275.09,285Z"/><path class="cls-1" d="M272.84,316c.34,0,.67.44.43.76l-.28.36-.15-.12c-.15-.25-.29-.5-.43-.75-.19.25-.38.5-.59.74a54.37,54.37,0,0,0-13.36,1,37.52,37.52,0,0,0-11.67,5.28,90.12,90.12,0,0,0-10.26,7.78c-1.79,1.58-3.31,3.38-5,5l-2.27.72c2.59-2.15,4.62-4.82,7.19-7A96.8,96.8,0,0,1,247,322C255.06,316.9,263.49,315.81,272.84,316Z"/><path class="cls-1" d="M272.84,317l.15.12c-5,6.41-12,10.54-19.58,13.37-4.67,1.74-9.49,3-14.29,4.33-3.17.9-6.31,1.95-9.46,2.93h0a.43.43,0,0,0,.16-.09c.59-.49,1.16-1,1.7-1.53,2.16-.69,4.31-1.38,6.48-2,4.2-1.23,8.44-2.28,12.58-3.68,8.06-2.72,15.85-6.73,21.24-13.44Z"/><path class="cls-1" d="M272.41,316.24c.14.25.28.5.43.75h-1C272,316.74,272.22,316.49,272.41,316.24Z"/><path class="cls-1" d="M269,351.4a.5.5,0,0,1-.51.86Z"/><path class="cls-1" d="M269,351.4l-.51.86c-.17-.09-.33-.19-.5-.27-1.13-.62-2.28-1.18-3.46-1.69a8.07,8.07,0,0,1,3.91.8C268.65,351.19,268.83,351.3,269,351.4Z"/><path class="cls-1" d="M264.55,350.3c1.18.51,2.33,1.07,3.46,1.69-3.88-1.91-8.24.44-12.07,1.53a45.3,45.3,0,0,1-21.66.81c-4.61-1-8.95-3.1-13.76-2.39.83-.39,1.67-.76,2.53-1.11,3,.13,5.85,1.09,8.86,1.91a44.67,44.67,0,0,0,14.14,1.46,55.73,55.73,0,0,0,13.63-2.93A17.84,17.84,0,0,1,264.55,350.3Z"/><path class="cls-1" d="M268.46,351.1a8.07,8.07,0,0,0-3.91-.8c-12.9-5.6-28.4-4.85-41.5.53a14.5,14.5,0,0,0-2.85.15C235.21,344,253.89,343.17,268.46,351.1Z"/><path class="cls-1" d="M262.28,285.31c-.47.78-.92,1.57-1.37,2.37l-.06.05a.54.54,0,0,1-.88-.4l.17-.31h0C260.85,286.43,261.56,285.86,262.28,285.31Z"/><path class="cls-1" d="M260.85,287.73l.06-.05c-1.51,2.69-2.91,5.46-4.27,8.21-.29.24-.58.51-.86.77l-1.16,1.11a.64.64,0,0,1,.06-.18c1.69-3.42,3.41-6.89,5.29-10.26A.54.54,0,0,0,260.85,287.73Z"/><path class="cls-1" d="M260.14,287l-.17.31A.44.44,0,0,1,260.14,287Z"/><path class="cls-1" d="M255.78,296.66c.28-.26.57-.53.86-.77-.37.74-.74,1.47-1.1,2.21-.25.51-1,.16-.92-.33Z"/><path class="cls-1" d="M253.66,302.81a5.39,5.39,0,0,1,.86.21c-.64.29-1.28.58-1.9.88h0a1.05,1.05,0,0,0-.34.14c-.52.36-1-.44-.56-.81l1.06-.5h0A3.48,3.48,0,0,1,253.66,302.81Z"/><path class="cls-1" d="M252.24,304.05a1.05,1.05,0,0,1,.34-.14q-1.79.84-3.48,1.71c.4-.52.81-1,1.22-1.54l.26-.31,1.1-.53C251.23,303.61,251.72,304.41,252.24,304.05Z"/><path class="cls-1" d="M251.73,303.19a2.24,2.24,0,0,1,1-.45l-1.06.5A.12.12,0,0,1,251.73,303.19Z"/><path class="cls-1" d="M250.58,303.77l-.26.31c-.41.51-.82,1-1.22,1.54l-.08,0a.52.52,0,0,1-.7-.69.46.46,0,0,1,.19-.17C249.19,304.45,249.88,304.11,250.58,303.77Z"/><path class="cls-1" d="M249.57,283.62a.5.5,0,0,1,0,.7c-11.46,11.69-11.35,28.73-17.38,43.06-.52.77-1.06,1.55-1.59,2.32l-.2.29q.07-.64.12-1.29c6.61-14.17,6.18-31.39,17-43.63.26-.3.53-.59.81-.88a2.17,2.17,0,0,0-2.33.39,22.21,22.21,0,0,0-3,2.13,33.13,33.13,0,0,0-4.31,4.23,34,34,0,0,0-6.44,11.7c-2.64,8.47-1.06,17.37-1.74,26.06-.39.84-.8,1.68-1.26,2.49,1.57-11.09-1.22-22.28,3.58-32.85A34.57,34.57,0,0,1,241.16,287C243,285.3,247,281.32,249.57,283.62Z"/><path class="cls-1" d="M249,305.66l.08,0c-7.18,9.08-13.62,18.73-20.21,28.25h0c.45-.72.88-1.45,1.27-2.19a.33.33,0,0,0,.06-.1,43.36,43.36,0,0,0,2-4.19c3.65-5.29,7.3-10.58,11.1-15.75,1.64-2.24,3.29-4.49,5-6.67h0A.52.52,0,0,0,249,305.66Z"/><path class="cls-1" d="M236,367.46a.51.51,0,0,1-.49.84c-3.3-.67-6.43.31-9.64,1a52.63,52.63,0,0,1-15.85,1,14.81,14.81,0,0,0-5.57.18l2.26-1.36a17.36,17.36,0,0,1,1.76,0,72.28,72.28,0,0,0,9.07.28,59.92,59.92,0,0,0,10.23-1.56,21.46,21.46,0,0,1,6.59-.7,11.5,11.5,0,0,1,.93,1l.49-.83.07-.06Z"/><path class="cls-1" d="M235.84,367.28l-.07.06a11.87,11.87,0,0,0-1.42-.21c-4.24-4.31-10.81-5.06-16.53-3.44a39.85,39.85,0,0,0-9.93,4.66c-.4.24-.79.49-1.19.72a9,9,0,0,0-2.94.5C213.77,363.51,227.22,356.75,235.84,367.28Z"/><path class="cls-1" d="M235.77,367.34l-.49.83a11.5,11.5,0,0,0-.93-1A11.87,11.87,0,0,1,235.77,367.34Z"/><path class="cls-1" d="M230.6,329.7c.53-.77,1.07-1.55,1.59-2.32a43.36,43.36,0,0,1-2,4.19,1,1,0,0,0,0-.12c.07-.48.13-1,.17-1.46Z"/><path class="cls-1" d="M231.52,336.11c-.54.53-1.11,1-1.7,1.53a.43.43,0,0,1-.16.09c-.47.17-1-.43-.54-.79l.13-.11Z"/><path class="cls-1" d="M230.52,328.7q0,.65-.12,1.29l-1.06,1.55a.46.46,0,0,1-.08-.35C229.72,330.38,230.13,329.54,230.52,328.7Z"/><path class="cls-1" d="M229.34,331.54,230.4,330c0,.49-.1,1-.17,1.46a1,1,0,0,1,0,.12.27.27,0,0,1-.06.1A.51.51,0,0,1,229.34,331.54Z"/><path class="cls-1" d="M230.14,331.67a.27.27,0,0,0,.06-.1A.33.33,0,0,1,230.14,331.67Z"/><path class="cls-1" d="M229.34,331.54a.51.51,0,0,0,.8.13c-.39.74-.82,1.47-1.27,2.19a.52.52,0,0,1-1-.25h0Z"/><path class="cls-1" d="M229.66,337.73h0c-1.45.46-2.91.9-4.38,1.31.31-.43.61-.86.91-1.3l3.06-.92-.13.11C228.67,337.3,229.19,337.9,229.66,337.73Z"/><path class="cls-1" d="M229.34,331.54l-1.42,2.06a.49.49,0,0,1,.08-.24c.45-.71.87-1.43,1.26-2.17A.46.46,0,0,0,229.34,331.54Z"/><path class="cls-1" d="M228.87,333.86h0q-1.33,2-2.7,3.88l-1.3.37-.09,0,3.12-4.55A.52.52,0,0,0,228.87,333.86Z"/><path class="cls-1" d="M226.19,337.75c-.3.44-.6.87-.91,1.3l-.12,0a.49.49,0,0,1-.61-.55l.25-.38.09,0Z"/><path class="cls-1" d="M225.16,339.09l.12,0-.24.35c-3.35,4.76-6.65,9.59-10,14.35l-.93.56c.18-.55.39-1.1.61-1.64,3.36-4.67,6.63-9.4,9.88-14.13A.49.49,0,0,0,225.16,339.09Z"/><path class="cls-1" d="M224.8,338.16l-.25.38A.4.4,0,0,1,224.8,338.16Z"/><path class="cls-1" d="M220.2,351a14.5,14.5,0,0,1,2.85-.15c-.86.35-1.7.72-2.53,1.11h-.06c-.53.08-.81-.59-.5-.86l.23-.11Z"/><path class="cls-1" d="M220.92,305a.51.51,0,0,1,.84.49c-1.45,8.92.18,17.9-.36,26.87a34.89,34.89,0,0,1-2.31,11.06c-1,2.55-2.43,4.92-3.6,7.39l0,0a17.8,17.8,0,0,0,.79-3.68c.45-.88.89-1.76,1.31-2.65a35.11,35.11,0,0,0,2.93-13.82c.24-8-.91-16,.09-23.91.35-.35.7-.69,1.06-1l-.84-.49,0-.05Z"/><path class="cls-1" d="M220.79,305.24l.84.49c-.36.33-.71.67-1.06,1C220.63,306.25,220.71,305.74,220.79,305.24Z"/><path class="cls-1" d="M220.74,305.19l0,.05c-.08.5-.16,1-.22,1.51-5.33,5.34-9.63,13.48-8.71,21.1.5,4.18,2.92,8,3.87,12.16a21.49,21.49,0,0,1,.51,7.12c-.6,1.19-1.22,2.37-1.79,3.58a.55.55,0,0,1,0-.17c1.63-4.94.66-9.86-1-14.63-.74-2.09-1.54-4-2.07-6a15.14,15.14,0,0,1-.5-5.72A31.05,31.05,0,0,1,220.74,305.19Z"/><path class="cls-1" d="M220.46,352h.06a54.74,54.74,0,0,0-7,3.92.44.44,0,0,0,.15-.25v0c.44-.6.88-1.21,1.3-1.82a54.93,54.93,0,0,1,5-2.66C219.65,351.36,219.93,352,220.46,352Z"/><path class="cls-1" d="M220.19,351l-.23.11A.49.49,0,0,1,220.19,351Z"/><path class="cls-1" d="M216.24,347.13a17.8,17.8,0,0,1-.79,3.68.52.52,0,0,1-1-.1C215,349.5,215.64,348.32,216.24,347.13Z"/><path class="cls-1" d="M215.45,350.81l0,0c-.29.61-.57,1.22-.82,1.84L213,355h0a.53.53,0,0,0-.22.3,26.22,26.22,0,0,1,1.73-4.63A.52.52,0,0,0,215.45,350.81Z"/><path class="cls-1" d="M215,353.75c-.42.61-.86,1.22-1.3,1.82.11-.43.24-.84.37-1.26Z"/><path class="cls-1" d="M214.67,352.67c-.22.54-.43,1.09-.61,1.64L213,355Z"/><path class="cls-1" d="M214.06,354.31c-.13.42-.26.83-.37,1.26l-.23.33a0,0,0,0,1,0,0,.11.11,0,0,1-.07,0,.55.55,0,0,1-.57-.17l0,0a.57.57,0,0,1-.08-.29.34.34,0,0,1,0-.1h0L213,355Z"/><path class="cls-1" d="M213.69,355.57v0a.44.44,0,0,1-.15.25l-.07,0Z"/><path class="cls-1" d="M213.46,355.9l.07,0A.13.13,0,0,1,213.46,355.9Z"/><path class="cls-1" d="M213.45,355.91c-3.64,5-7.41,10-11.51,14.67l0,0a.53.53,0,0,0-.15.19h0l0,0-3,1.84q3.28-3.6,6.35-7.4c2.61-3.24,5.15-6.56,7.62-9.92a.34.34,0,0,0,0,.1.36.36,0,0,0,.08.29l0,0a.43.43,0,0,0,.57.17A.11.11,0,0,0,213.45,355.91Z"/><path class="cls-1" d="M212.81,355.77a.55.55,0,0,0,.57.17A.43.43,0,0,1,212.81,355.77Z"/><path class="cls-1" d="M213,355l-.24.31a.53.53,0,0,1,.22-.3Z"/><path class="cls-1" d="M212.71,355.45a.57.57,0,0,0,.08.29A.36.36,0,0,1,212.71,355.45Z"/><path class="cls-1" d="M210.48,330.65c1.71,6.06-.43,12.13-2.47,17.84a121.87,121.87,0,0,1-8.07,18l0,0c.43-1.43.81-2.87,1.17-4.33a120.69,120.69,0,0,0,5.65-13.11c2-5.35,4.17-11.11,3.1-16.82.19-.53.38-1.06.58-1.59Z"/><path class="cls-1" d="M210.41,330.4a2.33,2.33,0,0,1,.07.25l-.07,0h-1a15.34,15.34,0,0,1,.39,1.59,203.14,203.14,0,0,0-8,26.61c-.25,1.11-.5,2.22-.76,3.32-.64,1.28-1.31,2.54-2,3.79a.61.61,0,0,0,0,.12h0c.88-3,1.55-6,2.21-9a195,195,0,0,1,8.23-26.69.52.52,0,0,1,.9-.16A.77.77,0,0,1,210.41,330.4Z"/><path class="cls-1" d="M210.41,330.67c-.2.53-.39,1.06-.58,1.59a15.34,15.34,0,0,0-.39-1.59Z"/><path class="cls-1" d="M206.7,369.07l-2.26,1.36a6.2,6.2,0,0,0-2,1.05c-.43.33-.86-.24-.66-.66l2-1.24h0A9,9,0,0,1,206.7,369.07Z"/><path class="cls-1" d="M202.4,371.48a6.2,6.2,0,0,1,2-1.05c-1.71,1-3.42,2-5.11,3.06l1.15-1.26c.42-.46.83-.93,1.24-1.4h0C201.54,371.24,202,371.81,202.4,371.48Z"/><path class="cls-1" d="M201.94,370.58a7,7,0,0,1,1.8-1l-2,1.24h0A2,2,0,0,0,201.94,370.58Z"/><path class="cls-1" d="M201.94,370.58a2,2,0,0,1-.19.22.53.53,0,0,1,.15-.19Z"/><path class="cls-1" d="M201.72,370.83c-.41.47-.82.94-1.24,1.4l-1.15,1.26-.1.06c-.45.28-.87-.25-.7-.64l.22-.24Z"/><path class="cls-1" d="M199.07,366c.7-1.25,1.37-2.51,2-3.79-.36,1.46-.74,2.9-1.17,4.33a.51.51,0,0,1-.89-.42A.61.61,0,0,1,199.07,366Z"/><path class="cls-1" d="M199,366.1a.51.51,0,0,0,.89.42,41.59,41.59,0,0,1-3.64,8.82c-1.54,1.64-3.13,3.26-4.75,4.84a.47.47,0,0,1,.13-.24c3.74-3.94,5.85-8.77,7.35-13.84Z"/><path class="cls-1" d="M199.23,373.55l.1-.06q-3.37,3.67-7,7.18l0,0a27.62,27.62,0,0,0,3.91-5.31c.77-.8,1.53-1.61,2.26-2.43C198.36,373.3,198.78,373.83,199.23,373.55Z"/><path class="cls-1" d="M198.75,372.67l-.22.24a.49.49,0,0,1,.19-.22Z"/><path class="cls-1" d="M191.52,380.18c1.62-1.58,3.21-3.2,4.75-4.84a27.62,27.62,0,0,1-3.91,5.31A.5.5,0,0,1,191.52,380.18Z"/><path class="cls-1" d="M192.36,380.65l0,0a194.7,194.7,0,0,1-21.79,18.46c-.53.38-1-.49-.51-.86a193.37,193.37,0,0,0,21.44-18.09A.5.5,0,0,0,192.36,380.65Z"/></g></svg>