<svg xmlns="http://www.w3.org/2000/svg" width="119.17mm" height="146.75mm" viewBox="0 0 337.8 415.98"><defs><style>.cls-1{fill:none;}.cls-1,.cls-2,.cls-3,.cls-4,.cls-5,.cls-6{stroke:#fff;}.cls-1,.cls-2,.cls-4,.cls-5,.cls-6{stroke-miterlimit:10;}.cls-2,.cls-3,.cls-4,.cls-5{fill:#fff;}.cls-3{stroke-linecap:round;stroke-linejoin:round;stroke-width:1.5px;}.cls-4{stroke-width:0.75px;}.cls-5{stroke-width:0.5px;}.cls-6{fill:#1d1d1b;}</style></defs><title>logo_hvid</title><g id="Lag_3" data-name="Lag 3"><polyline class="cls-1" points="55.92 164 113.09 96.27 170.26 28.53 227.43 96.27 284.6 164"/><polyline class="cls-2" points="169.99 398.48 112.96 331.1 55.92 263.73"/><path class="cls-3" d="M32.36,225.65v.73H30.87V175.1h1.27l.15.44L54,223.82l21.61-48.28.15-.44H77v.73l.08,49.82v.73H75.59v-.73l-.08-46.37L54.65,225.94l-.15.44h-1l-.15-.44-21-46.66Z"/><path class="cls-3" d="M89.17,175.83v-.73h1.49v51.28H89.17V175.83Z"/><path class="cls-3" d="M107.08,225.65v.73h-1.49V175.1h1.12l.22.29,34.36,48,.07-47.55v-.73h1.49v.73l-.07,49.82v.73h-1.12l-.22-.29-34.36-47.91Z"/><path class="cls-3" d="M155.61,226.38h-.74v-.73l.07-49.74v-.74h.75l19.37-.07c11,0,20.13,11.72,20.05,25.64s-8.94,25.72-20.05,25.64Zm.75-1.46h18.7c10.29,0,18.64-10.55,18.56-24.18s-8.2-24.1-18.56-24.17h-18.7Z"/><path class="cls-3" d="M234.65,175.1h.74v1.47H205.58V200h21.69v1.47H205.58v24.9h-1.49V175.1h30.56Z"/><path class="cls-3" d="M242.85,175.83v-.66h1.64l-.07.74-.08,28.79c0,11.28,8.28,20.29,18.63,20.22s18.71-8.87,18.63-20.22V175.17h1.64l-.07.74-.07,28.79c0,11.87-9,21.76-20.13,21.68s-20-9.74-20.12-21.68Z"/><path class="cls-3" d="M292.08,175.83v-.73h1.49v49.82h28.32v1.46H292.08V175.83Z"/><path class="cls-4" d="M99.84,254.26v-.37h.74v19.28c0,3.44-3.33,6.66-7.4,6.62s-7.36-3-7.4-6.62v-.37h.74v.37c0,3.29,2.89,5.92,6.66,5.88s6.62-2.74,6.66-5.88Z"/><path class="cls-4" d="M123.48,253.89h.37v.74h-17v11.84h12.43v.74H106.83v11.84h17v.74H106.09v-25.9h17.39Z"/><path class="cls-4" d="M128.14,254.33l-.11-.44h.78l.07.3,5.62,23.94,8.48-24,.07-.26h.52l.07.26,8.48,24,5.62-23.94.08-.3h.77l-.11.44-5.92,25.16-.07.3h-.56l-.07-.26-8.55-24.16-8.55,24.16-.07.26h-.56l-.07-.3Z"/><path class="cls-4" d="M182.38,253.89h.37v.74h-17v11.84h12.43v.74H165.73v11.84h17v.74H165v-25.9h17.39Z"/><path class="cls-4" d="M190.26,254.26v-.37H191v25.16h14.06v.74h-14.8V254.26Z"/><path class="cls-4" d="M218.46,267.47l-.32-.34-5.83.08v12.58h-.74v-.37l0-12.21h0v-.74h0l0-12.17v-.37H212l10.51,0c5.44,0,7.62,3.14,7.58,6.73,0,3.3-4.92,6.48-9.1,6.48l-1.84,0c4.35,4.73,5.56,4,10.28,12.23l.29.55h-.85l-.11-.18C224.41,272.09,223.38,272.91,218.46,267.47Zm-6.15-1,8.66-.11c4,0,8.4-2.81,8.36-5.74,0-3.36-1.73-6-6.84-6H212.31Z"/><path class="cls-4" d="M246.17,267v12.82h-.74V267l-10-12.49-.48-.59h1l.11.15,9.77,12.21L255.42,254l.11-.15h1l-.48.59Z"/><line class="cls-4" x1="151.95" y1="237.47" x2="188.72" y2="237.47"/><line class="cls-5" x1="147.08" y1="37.58" x2="64.19" y2="134.18"/><path class="cls-2" d="M170.33,398.7a193.32,193.32,0,0,0,29.18-26.15c9.64-10.52,17.58-22.81,25.9-34.53s16.17-23.94,25.13-35c8.59-10.62,20-16.91,32-21.83,13.62-5.57,29.22-8.34,43.14-2.33-12.81,6.74-26.29-1.09-39.72,1"/><path class="cls-6" d="M170.59,399.13a194.67,194.67,0,0,0,29.89-26.9c9.18-10.17,16.69-21.67,24.56-32.84,8.34-11.82,16.2-24,25.28-35.32,7.91-9.84,18.45-16.46,29.95-21.39,14.28-6.14,30.46-9.58,45.33-3.35l-.12-.92c-12.64,6.34-26.37-.91-39.6.95-.64.09-.37,1.06.26,1,13.41-1.88,27,5.39,39.85-1.05.43-.22.23-.77-.12-.92-12.4-5.18-26.08-3.79-38.53.49-11.37,3.9-22.7,9.57-31.56,17.81-4.76,4.43-8.65,9.74-12.49,15-4.36,5.93-8.51,12-12.69,18.07-8.26,12-16.35,24.24-25.5,35.57a185.09,185.09,0,0,1-35,33c-.51.37,0,1.24.51.86Z"/><path class="cls-2" d="M255.11,297.84c3.37-6.86,7.77-15.37,12.55-21.29s10.92-10.94,18.11-13.22c5.67-1.8,11.72-1.83,17.66-1.77-5.8,7.48-15.5,10.22-24.08,14a75.56,75.56,0,0,0-18.86,11.78"/><path class="cls-6" d="M255.54,298.1c4.49-9.12,9.22-18.58,16.61-25.73a35.75,35.75,0,0,1,13.37-8.43c5.77-1.91,11.9-1.93,17.91-1.88l-.35-.85c-5.51,6.86-13.93,9.69-21.76,13A83.71,83.71,0,0,0,260.14,287c-.5.41.21,1.12.71.71A88.94,88.94,0,0,1,284.44,274c7.1-2.91,14.4-5.91,19.34-12.06a.51.51,0,0,0-.35-.86c-6-.05-12.05,0-17.79,1.79a35.84,35.84,0,0,0-13,7.7c-8.14,7.32-13.19,17.37-18,27-.29.58.58,1.08.86.51Z"/><path class="cls-2" d="M275.09,284.48a102.3,102.3,0,0,1,22.32,4.75c4.6,1.51,9.19,3.38,12.93,6.5,5.38,4.47,8.54,11.07,11.54,17.45-3.52-3.44-8.79-4-13.22-6.14-5.18-2.46-9.11-7-12.88-11.35-2.51-2.9-5.55-6.22-8-9.12"/><path class="cls-6" d="M275.09,285c9.83,1,20.32,3.12,29.24,7.52s13.12,12.43,17.12,20.94l.78-.61c-2.4-2.19-5.29-3.31-8.33-4.34a30.8,30.8,0,0,1-10.32-5.39c-5.77-4.86-10.57-11.2-15.5-16.89-.42-.48-1.12.23-.7.71,4.92,5.68,9.72,12,15.49,16.89a26.92,26.92,0,0,0,7.81,4.61c3.78,1.44,7.77,2.31,10.85,5.12a.5.5,0,0,0,.78-.61c-4.08-8.67-8.54-16.89-17.48-21.3-9.1-4.48-19.71-6.64-29.74-7.65-.64-.06-.64.94,0,1Z"/><path class="cls-2" d="M228.44,333.61c5-7.67,6.4-16.43,8.81-25.29s5.5-17.94,12-24.35c-.76-1.06-2.4-.52-3.49.17a33.9,33.9,0,0,0-15,22.82c-1.32,8,.27,16.32-1,24.36"/><path class="cls-6" d="M228.87,333.86c9.66-15.36,7.45-36,20.7-49.54a.51.51,0,0,0,0-.71c-2.58-2.29-6.54,1.69-8.41,3.37a34.46,34.46,0,0,0-8.32,11.36c-4.8,10.57-2,21.76-3.58,32.85-.08.63.88.9,1,.26,1.35-9.56-.89-19.45,2-28.81a34,34,0,0,1,6.44-11.7,32.5,32.5,0,0,1,4.31-4.23,22.21,22.21,0,0,1,3-2.13,2.17,2.17,0,0,1,2.33-.39c-.28.29-.55.58-.81.88-12,13.62-10.12,33.4-19.49,48.29-.34.54.53,1.05.87.5Z"/><path class="cls-2" d="M248.77,305.23c7.44-3.82,14.74-6.93,23-8.17s17.17.09,23.77,5.28c-4.36,2.28-9.39,2.77-14.29,3a139.37,139.37,0,0,1-26.13-1.49c-1.57-.22-1.93-1.26-3.13-.2"/><path class="cls-6" d="M249,305.66c14-7.12,32.28-13.51,46.26-2.89v-.86c-7.19,3.56-16.08,3.2-23.91,2.92-3.86-.13-7.71-.45-11.54-.89-1.21-.15-2.44-.28-3.64-.47-.87-.13-1.7-.53-2.53-.66a2,2,0,0,0-1.93.38c-.53.36,0,1.23.51.86.9-.62,3.82.41,4.77.53q2.79.38,5.6.66c4,.39,8,.63,12,.67,7.08.07,14.68.08,21.16-3.14a.5.5,0,0,0,0-.86c-14.27-10.84-33-4.38-47.27,2.88-.57.3-.07,1.16.51.87Z"/><path class="cls-2" d="M229.47,337.29c4.19-3.35,3.82-4.31,8-7.65,5.87-4.69,11.93-9.48,19.08-11.63,5.25-1.57,10.81-1.64,16.28-1.52-3.8,5.17-9.21,8.92-15,11.59s-11.91,4.35-18,6c-4.81,1.31-10,3.2-14.82,4.51"/><path class="cls-6" d="M229.82,337.64c2.45-2,4.35-4.48,6.71-6.56a90.12,90.12,0,0,1,10.26-7.78A37.52,37.52,0,0,1,258.46,318a57.73,57.73,0,0,1,14.38-1l-.43-.75c-5.42,7.16-13.48,11.36-21.83,14.18-4.14,1.4-8.38,2.45-12.58,3.67-4.39,1.28-8.7,2.81-13.11,4a.5.5,0,0,0,.27,1c4.69-1.3,9.28-2.94,14-4.27s9.62-2.59,14.29-4.34c7.68-2.87,14.85-7.1,19.86-13.73.24-.31-.09-.74-.43-.75-9.35-.18-17.78.91-25.82,6a96.58,96.58,0,0,0-10.59,7.88c-2.6,2.2-4.66,4.92-7.31,7.08-.5.41.21,1.12.7.71Z"/><path class="cls-2" d="M213.2,355.47c1-4.38,3.78-8.11,5.46-12.28,4.76-11.76.43-25.29,2.61-37.82a30.5,30.5,0,0,0-9.76,18,15.67,15.67,0,0,0,0,5.42,27.5,27.5,0,0,0,1.5,4.37c2.24,5.73,4.1,11.71,2,17.49"/><path class="cls-6" d="M213.68,355.6c1.12-4.36,3.73-8,5.41-12.16a34.89,34.89,0,0,0,2.31-11.07c.54-9-1.09-17.94.36-26.86a.51.51,0,0,0-.84-.49,31.07,31.07,0,0,0-10,19.21c-.49,4.35,1.16,7.68,2.57,11.68,1.68,4.77,2.65,9.69,1,14.63-.2.61.77.88,1,.27a19.82,19.82,0,0,0,.28-10.8c-.95-4.11-3.37-8-3.87-12.16-1-8.12,4-16.84,9.77-22.12l-.84-.49c-1.37,8.45,0,16.92-.31,25.42a35.11,35.11,0,0,1-2.93,13.82c-1.67,3.62-3.83,7-4.84,10.86a.5.5,0,0,0,1,.26Z"/><path class="cls-2" d="M213.2,355.47c15.55-10.51,39.32-13,55.56-3.64-3.23-2.22-7.53-.56-11.23.68a44.76,44.76,0,0,1-26.62.46c-3.66-1.08-6.83-2.22-10.58-1.51"/><path class="cls-6" d="M213.45,355.9c15.71-10.44,38.28-13.1,55.06-3.64a.5.5,0,0,0,.51-.86c-3-1.77-6.21-1.11-9.34-.13a56.2,56.2,0,0,1-13.63,2.93,44.39,44.39,0,0,1-14.14-1.47c-3.94-1.06-7.57-2.38-11.71-1.75-.64.1-.37,1.06.26,1,4.83-.74,9.19,1.42,13.82,2.38a45.3,45.3,0,0,0,21.66-.81c4-1.14,8.57-3.64,12.57-1.26l.51-.86c-17.09-9.63-40.06-7-56.08,3.64-.53.35,0,1.22.51.86Z"/><path class="cls-2" d="M192,380.3c7.66-7.83,8.54-19.59,11.36-30.26,1.75-6.64,4.15-13.08,6.55-19.51,1.61,4.76.29,10-1.33,14.75a120.91,120.91,0,0,1-9.08,21"/><path class="cls-6" d="M192.36,380.65c5.67-6,7.74-13.94,9.48-21.78a208.75,208.75,0,0,1,8.57-28.2h-1c1.87,6.23-.58,12.57-2.71,18.41A117.19,117.19,0,0,1,199.07,366a.5.5,0,0,0,.87.51,121.51,121.51,0,0,0,8.07-18c2.07-5.78,4.24-11.94,2.4-18.08a.51.51,0,0,0-1,0,194.58,194.58,0,0,0-8.23,26.69c-1.79,8.14-3.64,16.61-9.56,22.85-.44.47.27,1.18.71.71Z"/><path class="cls-2" d="M199,373.12c1.49-1,2.81-1.41,4.31-2.4,5-3.31,10.19-6.7,16.05-7.92s12.65.18,16.3,5c-3.11-.79-6.34.19-9.46.89a52.45,52.45,0,0,1-14.62,1.16c-3.31-.2-6.91-1.05-9.41,1.17"/><path class="cls-6" d="M199.23,373.55c2.87-1.76,5.79-3.43,8.66-5.2a39.85,39.85,0,0,1,9.93-4.66c6.15-1.74,13.29-.74,17.46,4.48l.49-.84a18.71,18.71,0,0,0-8,.5,59.92,59.92,0,0,1-10.23,1.56,74.23,74.23,0,0,1-9.07-.28c-2.4-.16-4.61,0-6.56,1.5-.51.39,0,1.26.5.86,2.28-1.76,4.92-1.46,7.61-1.22a55.31,55.31,0,0,0,8.44.09,54.39,54.39,0,0,0,7.41-1c3.21-.68,6.34-1.66,9.64-1a.51.51,0,0,0,.49-.84c-10.17-12.72-27.19-1-37.27,5.23-.54.34,0,1.2.51.86Z"/></g></svg>
